# Blender v2.81 (sub 16) OBJ File: 'assets.blend'
# www.blender.org
mtllib glass-type-03.mtl
o glass-type-03
v 0.001493 0.002001 -0.000000
v 0.020903 0.048628 0.013654
v -0.005920 0.048628 0.022093
v -0.022498 0.048629 -0.000000
v -0.005920 0.048628 -0.022093
v 0.020903 0.048628 -0.013654
v -0.002864 0.004163 0.012986
v 0.012902 0.004163 0.008026
v 0.008544 0.039974 0.021012
v 0.024310 0.039975 -0.000000
v 0.012902 0.004163 -0.008026
v -0.012608 0.004163 -0.000000
v -0.016966 0.039974 0.012986
v -0.002864 0.004163 -0.012986
v -0.016966 0.039974 -0.012986
v 0.008544 0.039974 -0.021012
v 0.027004 0.076562 0.008026
v 0.027004 0.076562 -0.008026
v 0.001493 0.076562 0.025972
v 0.017260 0.076562 0.021012
v -0.024017 0.076562 0.008026
v -0.014273 0.076562 0.021012
v -0.014273 0.076562 -0.021012
v -0.024017 0.076562 -0.008026
v 0.017260 0.076562 -0.021012
v 0.001493 0.076562 -0.025972
v 0.001493 0.005898 -0.000000
v 0.020216 0.050371 0.013171
v -0.005658 0.050371 0.021312
v -0.021650 0.050372 -0.000000
v -0.005658 0.050371 -0.021312
v 0.020216 0.050371 -0.013171
v -0.002710 0.007478 0.012527
v 0.012498 0.007478 0.007742
v 0.008295 0.042023 0.020269
v 0.023504 0.042023 -0.000000
v 0.012498 0.007478 -0.007742
v -0.012110 0.007478 -0.000000
v -0.016314 0.042023 0.012527
v -0.002710 0.007478 -0.012527
v -0.016314 0.042023 -0.012527
v 0.008295 0.042023 -0.020269
v 0.026120 0.077426 0.007762
v 0.026120 0.077426 -0.007762
v 0.001479 0.077426 0.025077
v 0.016728 0.077426 0.020279
v -0.023142 0.077426 0.007735
v -0.013718 0.077426 0.020296
v -0.013718 0.077426 -0.020296
v -0.023142 0.077426 -0.007735
v 0.016728 0.077426 -0.020279
v 0.001479 0.077426 -0.025077
v 0.043946 0.044749 0.000000
v 0.043309 0.044870 0.002419
v 0.041569 0.045201 0.004191
v 0.039192 0.045654 0.004839
v 0.036815 0.046107 0.004191
v 0.035075 0.046438 0.002419
v 0.034439 0.046559 0.000000
v 0.035075 0.046438 -0.002419
v 0.036815 0.046107 -0.004191
v 0.039192 0.045654 -0.004839
v 0.041569 0.045201 -0.004191
v 0.043309 0.044870 -0.002419
v 0.035982 0.067596 0.000000
v 0.035559 0.067105 0.002419
v 0.034402 0.065764 0.004191
v 0.032821 0.063932 0.004839
v 0.031241 0.062099 0.004191
v 0.030084 0.060758 0.002419
v 0.029661 0.060267 0.000000
v 0.030084 0.060758 -0.002419
v 0.031241 0.062099 -0.004191
v 0.032821 0.063932 -0.004839
v 0.034402 0.065764 -0.004191
v 0.035559 0.067105 -0.002419
v 0.024556 0.070075 0.000000
v 0.024556 0.069463 0.002419
v 0.024556 0.067790 0.004191
v 0.024556 0.065506 0.004839
v 0.024556 0.063221 0.004191
v 0.024556 0.061549 0.002419
v 0.024556 0.060936 0.000000
v 0.024556 0.061549 -0.002419
v 0.024556 0.063221 -0.004191
v 0.024556 0.065506 -0.004839
v 0.024556 0.067790 -0.004191
v 0.024556 0.069463 -0.002419
v 0.018283 0.028908 0.000000
v 0.018283 0.029399 0.002419
v 0.018283 0.030740 0.004191
v 0.018283 0.032572 0.004839
v 0.018283 0.034404 0.004191
v 0.018283 0.035745 0.002419
v 0.018283 0.036236 0.000000
v 0.018283 0.035745 -0.002419
v 0.018283 0.034404 -0.004191
v 0.018283 0.032572 -0.004839
v 0.018283 0.030740 -0.004191
v 0.018283 0.029399 -0.002419
v 0.028141 0.026429 0.000000
v 0.027928 0.027041 0.002419
v 0.027345 0.028713 0.004191
v 0.026549 0.030998 0.004839
v 0.025752 0.033283 0.004191
v 0.025169 0.034955 0.002419
v 0.024956 0.035567 0.000000
v 0.025169 0.034955 -0.002419
v 0.025752 0.033283 -0.004191
v 0.026549 0.030998 -0.004839
v 0.027345 0.028713 -0.004191
v 0.027928 0.027041 -0.002419
vt 0.424835 0.422490
vt 0.426810 0.422490
vt 0.426810 0.423478
vt 0.424835 0.423478
vt 0.426810 0.424465
vt 0.424835 0.424465
vt 0.426810 0.425453
vt 0.424835 0.425453
vt 0.426810 0.426440
vt 0.424835 0.426440
vt 0.426810 0.427427
vt 0.424835 0.427427
vt 0.426810 0.428415
vt 0.424835 0.428415
vt 0.424835 0.416566
vt 0.426810 0.416566
vt 0.426810 0.417553
vt 0.424835 0.417553
vt 0.426810 0.418540
vt 0.424835 0.418540
vt 0.426810 0.419528
vt 0.424835 0.419528
vt 0.426810 0.420515
vt 0.424835 0.420515
vt 0.426810 0.421503
vt 0.424835 0.421503
vt 0.428785 0.422490
vt 0.428785 0.423478
vt 0.428785 0.424465
vt 0.428785 0.425453
vt 0.428785 0.426440
vt 0.428785 0.427427
vt 0.428785 0.428415
vt 0.428785 0.416566
vt 0.428785 0.417553
vt 0.428785 0.418540
vt 0.428785 0.419528
vt 0.428785 0.420515
vt 0.428785 0.421503
vt 0.420885 0.422490
vt 0.422860 0.422490
vt 0.422860 0.423478
vt 0.420885 0.423478
vt 0.422860 0.424465
vt 0.420885 0.424465
vt 0.422860 0.425453
vt 0.420885 0.425453
vt 0.422860 0.426440
vt 0.420885 0.426440
vt 0.422860 0.427427
vt 0.420885 0.427427
vt 0.422860 0.428415
vt 0.420885 0.428415
vt 0.420885 0.416566
vt 0.422860 0.416566
vt 0.422860 0.417553
vt 0.420885 0.417553
vt 0.422860 0.418540
vt 0.420885 0.418540
vt 0.422860 0.419528
vt 0.420885 0.419528
vt 0.422860 0.420515
vt 0.420885 0.420515
vt 0.422860 0.421503
vt 0.420885 0.421503
vt 0.612685 0.304951
vt 0.612685 0.304951
vt 0.612685 0.304951
vt 0.612685 0.304951
vt 0.612685 0.304951
vt 0.612685 0.304951
vt 0.612685 0.304951
vt 0.612685 0.304951
vt 0.612685 0.304951
vt 0.612685 0.304951
vt 0.428605 0.416566
vt 0.428067 0.417498
vt 0.429144 0.417498
vt 0.427528 0.418431
vt 0.426990 0.417498
vt 0.426451 0.418431
vt 0.419988 0.416566
vt 0.419449 0.417498
vt 0.420526 0.417498
vt 0.422142 0.416566
vt 0.421604 0.417498
vt 0.422681 0.417498
vt 0.424297 0.416566
vt 0.423758 0.417498
vt 0.424835 0.417498
vt 0.426990 0.419364
vt 0.429683 0.418431
vt 0.428605 0.418431
vt 0.429144 0.419364
vt 0.421065 0.418431
vt 0.419988 0.418431
vt 0.420526 0.419364
vt 0.423219 0.418431
vt 0.422142 0.418431
vt 0.422681 0.419364
vt 0.425374 0.418431
vt 0.424297 0.418431
vt 0.424835 0.419364
vt 0.428067 0.419364
vt 0.430221 0.419364
vt 0.421604 0.419364
vt 0.423758 0.419364
vt 0.425912 0.419364
vt 0.419449 0.419364
vt 0.418911 0.418431
vt 0.425912 0.417498
vt 0.426451 0.416566
vt 0.428605 0.416566
vt 0.429144 0.417498
vt 0.428067 0.417498
vt 0.427528 0.418431
vt 0.426451 0.418431
vt 0.426990 0.417498
vt 0.419988 0.416566
vt 0.420526 0.417498
vt 0.419449 0.417498
vt 0.422142 0.416566
vt 0.422681 0.417498
vt 0.421604 0.417498
vt 0.424297 0.416566
vt 0.424835 0.417498
vt 0.423758 0.417498
vt 0.426990 0.419364
vt 0.429683 0.418431
vt 0.429144 0.419364
vt 0.428605 0.418431
vt 0.421065 0.418431
vt 0.420526 0.419364
vt 0.419988 0.418431
vt 0.423219 0.418431
vt 0.422681 0.419364
vt 0.422142 0.418431
vt 0.425374 0.418431
vt 0.424835 0.419364
vt 0.424297 0.418431
vt 0.428067 0.419364
vt 0.430221 0.419364
vt 0.421604 0.419364
vt 0.423758 0.419364
vt 0.425912 0.419364
vt 0.419449 0.419364
vt 0.418911 0.418431
vt 0.425912 0.417498
vt 0.426451 0.416566
vn 0.9198 0.3206 0.2260
vn 0.7138 0.2488 0.6546
vn 0.2791 0.0973 0.9553
vn -0.2791 -0.0973 0.9553
vn -0.7138 -0.2488 0.6547
vn -0.9198 -0.3206 0.2260
vn -0.9198 -0.3206 -0.2260
vn -0.7138 -0.2488 -0.6547
vn -0.2791 -0.0973 -0.9553
vn 0.2791 0.0973 -0.9553
vn 0.7138 0.2488 -0.6546
vn 0.9198 0.3206 -0.2260
vn 0.2050 0.9503 0.2345
vn 0.1530 0.7275 0.6689
vn 0.0558 0.2804 0.9583
vn -0.0509 -0.2822 0.9580
vn -0.1155 -0.7376 0.6652
vn -0.1323 -0.9639 0.2313
vn -0.1323 -0.9639 -0.2313
vn -0.1155 -0.7376 -0.6652
vn -0.0509 -0.2822 -0.9580
vn 0.0558 0.2804 -0.9583
vn 0.1530 0.7275 -0.6689
vn 0.2050 0.9503 -0.2345
vn -0.2356 -0.9497 0.2061
vn -0.1790 -0.7637 0.6202
vn -0.0647 -0.3111 0.9482
vn 0.0530 0.3093 0.9495
vn 0.1020 0.7659 0.6348
vn 0.1044 0.9706 0.2167
vn 0.1044 0.9706 -0.2167
vn 0.1020 0.7659 -0.6348
vn 0.0530 0.3093 -0.9495
vn -0.0647 -0.3111 -0.9482
vn -0.1790 -0.7637 -0.6202
vn -0.2356 -0.9497 -0.2061
vn 0.7376 -0.6363 0.2261
vn 0.5724 -0.4938 0.6546
vn 0.2238 -0.1931 0.9553
vn -0.2238 0.1931 0.9553
vn -0.5724 0.4938 0.6547
vn -0.7376 0.6363 0.2260
vn -0.7376 0.6363 -0.2260
vn -0.5724 0.4938 -0.6547
vn -0.2238 0.1931 -0.9553
vn 0.2238 -0.1931 -0.9553
vn 0.5724 -0.4938 -0.6546
vn 0.7376 -0.6363 -0.2261
vn -0.0000 -1.0000 -0.0000
vn 0.5917 -0.6778 0.4364
vn -0.2243 -0.6768 0.7011
vn 0.7914 -0.1581 0.5904
vn 0.9801 -0.1983 0.0000
vn -0.7347 -0.6783 0.0000
vn -0.2243 -0.6768 -0.7011
vn 0.5917 -0.6778 -0.4364
vn 0.8954 0.3347 0.2935
vn -0.2980 -0.1555 0.9418
vn 0.2966 -0.1927 0.9353
vn 0.0038 0.3308 0.9437
vn -0.9871 -0.1599 0.0000
vn -0.7866 -0.1961 0.5855
vn -0.8929 0.3347 0.3010
vn -0.2980 -0.1555 -0.9418
vn -0.7866 -0.1961 -0.5855
vn -0.5492 0.3323 -0.7668
vn 0.7914 -0.1581 -0.5904
vn 0.2966 -0.1927 -0.9353
vn 0.5428 0.3323 -0.7713
vn 0.5428 0.3323 0.7713
vn -0.5492 0.3323 0.7668
vn -0.8929 0.3347 -0.3010
vn 0.0038 0.3308 -0.9437
vn 0.8954 0.3347 -0.2935
vn 0.0000 1.0000 0.0000
vn 0.2216 0.6863 -0.6927
vn -0.5847 0.6870 -0.4314
vn -0.7929 -0.1462 -0.5915
vn -0.9906 -0.1366 0.0000
vn 0.7262 0.6874 0.0000
vn 0.2216 0.6863 0.6927
vn -0.5847 0.6870 0.4314
vn -0.1783 0.9828 -0.0479
vn 0.2981 -0.1514 -0.9424
vn -0.0081 0.9822 -0.1875
vn -0.2991 -0.1447 -0.9432
vn 0.9897 -0.1429 0.0000
vn 0.1733 0.9828 -0.0632
vn 0.7943 -0.1398 -0.5912
vn 0.2981 -0.1514 0.9424
vn 0.1179 0.9824 0.1447
vn 0.7943 -0.1398 0.5912
vn -0.7929 -0.1462 0.5915
vn -0.1048 0.9825 0.1542
vn -0.2991 -0.1447 0.9432
vn -0.1048 0.9825 -0.1542
vn 0.1179 0.9824 -0.1447
vn 0.1733 0.9828 0.0632
vn -0.0081 0.9822 0.1875
vn -0.1783 0.9828 0.0479
usemtl basematerial
s off
f 53/1/1 65/2/1 66/3/1 54/4/1
f 54/4/2 66/3/2 67/5/2 55/6/2
f 55/6/3 67/5/3 68/7/3 56/8/3
f 56/8/4 68/7/4 69/9/4 57/10/4
f 57/10/5 69/9/5 70/11/5 58/12/5
f 58/12/6 70/11/6 71/13/6 59/14/6
f 59/15/7 71/16/7 72/17/7 60/18/7
f 60/18/8 72/17/8 73/19/8 61/20/8
f 61/20/9 73/19/9 74/21/9 62/22/9
f 62/22/10 74/21/10 75/23/10 63/24/10
f 63/24/11 75/23/11 76/25/11 64/26/11
f 64/26/12 76/25/12 65/2/12 53/1/12
f 65/2/13 77/27/13 78/28/13 66/3/13
f 66/3/14 78/28/14 79/29/14 67/5/14
f 67/5/15 79/29/15 80/30/15 68/7/15
f 68/7/16 80/30/16 81/31/16 69/9/16
f 69/9/17 81/31/17 82/32/17 70/11/17
f 70/11/18 82/32/18 83/33/18 71/13/18
f 71/16/19 83/34/19 84/35/19 72/17/19
f 72/17/20 84/35/20 85/36/20 73/19/20
f 73/19/21 85/36/21 86/37/21 74/21/21
f 74/21/22 86/37/22 87/38/22 75/23/22
f 75/23/23 87/38/23 88/39/23 76/25/23
f 76/25/24 88/39/24 77/27/24 65/2/24
f 89/40/25 101/41/25 102/42/25 90/43/25
f 90/43/26 102/42/26 103/44/26 91/45/26
f 91/45/27 103/44/27 104/46/27 92/47/27
f 92/47/28 104/46/28 105/48/28 93/49/28
f 93/49/29 105/48/29 106/50/29 94/51/29
f 94/51/30 106/50/30 107/52/30 95/53/30
f 95/54/31 107/55/31 108/56/31 96/57/31
f 96/57/32 108/56/32 109/58/32 97/59/32
f 97/59/33 109/58/33 110/60/33 98/61/33
f 98/61/34 110/60/34 111/62/34 99/63/34
f 99/63/35 111/62/35 112/64/35 100/65/35
f 100/65/36 112/64/36 101/41/36 89/40/36
f 101/41/37 53/1/37 54/4/37 102/42/37
f 102/42/38 54/4/38 55/6/38 103/44/38
f 103/44/39 55/6/39 56/8/39 104/46/39
f 104/46/40 56/8/40 57/10/40 105/48/40
f 105/48/41 57/10/41 58/12/41 106/50/41
f 106/50/42 58/12/42 59/14/42 107/52/42
f 107/55/43 59/15/43 60/18/43 108/56/43
f 108/56/44 60/18/44 61/20/44 109/58/44
f 109/58/45 61/20/45 62/22/45 110/60/45
f 110/60/46 62/22/46 63/24/46 111/62/46
f 111/62/47 63/24/47 64/26/47 112/64/47
f 112/64/48 64/26/48 53/1/48 101/41/48
f 28/66/49 35/67/49 29/68/49 39/69/49 30/70/49 41/71/49 31/72/49 42/73/49 32/74/49 36/75/49
s 1
f 1/76/49 8/77/50 7/78/51
f 2/79/52 8/80/50 10/81/53
f 1/82/49 7/83/51 12/84/54
f 1/85/49 12/86/54 14/87/55
f 1/88/49 14/89/55 11/90/56
f 2/79/52 10/81/53 17/91/57
f 3/92/58 9/93/59 19/94/60
f 4/95/61 13/96/62 21/97/63
f 5/98/64 15/99/65 23/100/66
f 6/101/67 16/102/68 25/103/69
f 2/79/52 17/91/57 20/104/70
f 3/92/58 19/94/60 22/105/71
f 4/95/61 21/97/63 24/106/72
f 5/98/64 23/100/66 26/107/73
f 6/101/67 25/103/69 18/108/74
f 25/103/69 16/102/68 26/107/73
f 16/102/68 5/98/64 26/107/73
f 23/100/66 15/99/65 24/106/72
f 15/99/65 4/95/61 24/106/72
f 21/97/63 13/96/62 22/109/71
f 13/96/62 3/110/58 22/109/71
f 19/94/60 9/93/59 20/104/70
f 9/93/59 2/79/52 20/104/70
f 17/91/57 10/81/53 18/108/74
f 10/81/53 6/101/67 18/108/74
f 11/90/56 16/102/68 6/101/67
f 11/90/56 14/89/55 16/102/68
f 14/89/55 5/98/64 16/102/68
f 14/87/55 15/99/65 5/98/64
f 14/87/55 12/86/54 15/99/65
f 12/86/54 4/95/61 15/99/65
f 12/84/54 13/96/62 4/95/61
f 12/84/54 7/83/51 13/96/62
f 7/83/51 3/110/58 13/96/62
f 10/81/53 11/111/56 6/101/67
f 10/81/53 8/80/50 11/111/56
f 8/80/50 1/112/49 11/111/56
f 7/78/51 9/93/59 3/92/58
f 7/78/51 8/77/50 9/93/59
f 8/77/50 2/79/52 9/93/59
f 27/113/75 33/114/76 34/115/77
f 28/116/78 36/117/79 34/118/77
f 27/119/75 38/120/80 33/121/76
f 27/122/75 40/123/81 38/124/80
f 27/125/75 37/126/82 40/127/81
f 28/116/78 43/128/83 36/117/79
f 29/129/84 45/130/85 35/131/86
f 30/132/87 47/133/88 39/134/89
f 31/135/90 49/136/91 41/137/92
f 32/138/93 51/139/94 42/140/95
f 28/116/78 46/141/96 43/128/83
f 29/129/84 48/142/97 45/130/85
f 30/132/87 50/143/98 47/133/88
f 31/135/90 52/144/99 49/136/91
f 32/138/93 44/145/100 51/139/94
f 51/139/94 52/144/99 42/140/95
f 42/140/95 52/144/99 31/135/90
f 49/136/91 50/143/98 41/137/92
f 41/137/92 50/143/98 30/132/87
f 47/133/88 48/146/97 39/134/89
f 39/134/89 48/146/97 29/147/84
f 45/130/85 46/141/96 35/131/86
f 35/131/86 46/141/96 28/116/78
f 43/128/83 44/145/100 36/117/79
f 36/117/79 44/145/100 32/138/93
f 37/126/82 32/138/93 42/140/95
f 37/126/82 42/140/95 40/127/81
f 40/127/81 42/140/95 31/135/90
f 40/123/81 31/135/90 41/137/92
f 40/123/81 41/137/92 38/124/80
f 38/124/80 41/137/92 30/132/87
f 38/120/80 30/132/87 39/134/89
f 38/120/80 39/134/89 33/121/76
f 33/121/76 39/134/89 29/147/84
f 36/117/79 32/138/93 37/148/82
f 36/117/79 37/148/82 34/118/77
f 34/118/77 37/148/82 27/149/75
f 33/114/76 29/129/84 35/131/86
f 33/114/76 35/131/86 34/115/77
f 34/115/77 35/131/86 28/116/78
f 18/108/74 25/103/69 51/139/94 44/145/100
f 26/107/73 23/100/66 49/136/91 52/144/99
f 24/106/72 21/97/63 47/133/88 50/143/98
f 22/105/71 19/94/60 45/130/85 48/142/97
f 20/104/70 17/91/57 43/128/83 46/141/96
f 25/103/69 26/107/73 52/144/99 51/139/94
f 23/100/66 24/106/72 50/143/98 49/136/91
f 21/97/63 22/109/71 48/146/97 47/133/88
f 19/94/60 20/104/70 46/141/96 45/130/85
f 17/91/57 18/108/74 44/145/100 43/128/83
