# Blender v2.81 (sub 16) OBJ File: 'assets.blend'
# www.blender.org
mtllib meat-type-001.mtl
o meat-type-001
v -0.099515 0.000000 -0.090018
v -0.104149 0.000000 0.076181
v 0.116681 0.000000 -0.122368
v 0.099490 -0.016570 0.088646
v 0.101369 0.000000 -0.092470
v -0.089776 0.000000 -0.072902
v -0.085454 0.000000 0.058638
v 0.091429 -0.013161 0.058465
v 0.046066 0.000000 -0.087790
v -0.036384 0.000000 -0.057811
v -0.035516 0.000000 0.042208
v 0.027942 -0.000358 0.043284
v 0.051572 0.000000 -0.116505
v -0.048620 0.000000 -0.079706
v -0.045845 0.000000 0.067422
v 0.028849 -0.001883 0.064102
v -0.098436 0.000000 -0.040201
v -0.096054 0.000000 0.013157
v 0.113111 -0.004369 0.024684
v 0.136088 0.000000 -0.034704
v -0.121844 0.000000 -0.050139
v -0.118305 0.000000 0.017775
v 0.131678 -0.005782 0.031649
v 0.163171 0.000000 -0.041381
v -0.027367 0.000000 0.007351
v -0.024102 0.000000 -0.042668
v 0.043182 -0.000184 0.024267
v 0.054137 0.000000 -0.038860
v -0.099515 0.025467 -0.090018
v -0.104149 0.025467 0.076181
v 0.116681 0.025467 -0.122368
v 0.099490 0.008897 0.088646
v 0.101369 0.025467 -0.092470
v -0.089776 0.025467 -0.072902
v -0.085454 0.025467 0.058638
v 0.091429 0.012306 0.058465
v 0.046066 0.025467 -0.087790
v -0.036384 0.025467 -0.057811
v -0.035516 0.025467 0.042208
v 0.027942 0.025109 0.043284
v 0.051572 0.025467 -0.116505
v -0.048620 0.025467 -0.079706
v -0.045845 0.025467 0.067422
v 0.028849 0.023584 0.064102
v -0.098436 0.025467 -0.040201
v -0.096054 0.025467 0.013157
v 0.113111 0.021098 0.024684
v 0.136088 0.025467 -0.034704
v -0.121844 0.025467 -0.050139
v -0.118305 0.025467 0.017775
v 0.131678 0.019685 0.031649
v 0.163171 0.025467 -0.041381
v -0.027367 0.025467 0.007351
v -0.024102 0.025467 -0.042668
v 0.043182 0.025283 0.024267
v 0.052080 0.025043 -0.038586
v 0.050683 0.025436 -0.058567
v 0.030554 0.023753 -0.040836
v 0.050819 0.025432 -0.019045
v 0.073980 0.025223 -0.038321
v 0.032318 0.024655 -0.027272
v 0.070727 0.025338 -0.054368
v 0.066514 0.023481 -0.023400
v 0.037922 0.024965 -0.055556
vt 0.654487 0.198730
vt 0.654487 0.203866
vt 0.659623 0.203866
vt 0.659623 0.198730
vt 0.655020 0.428691
vt 0.655020 0.428691
vt 0.655020 0.428691
vt 0.655020 0.428691
vt 0.655020 0.428691
vt 0.655020 0.428691
vt 0.655020 0.428691
vt 0.655020 0.428691
vt 0.655020 0.428691
vt 0.655020 0.428691
vt 0.655020 0.428691
vt 0.655020 0.428691
vt 0.655020 0.428691
vt 0.655020 0.428691
vt 0.655020 0.428691
vt 0.655020 0.428691
vt 0.655020 0.428691
vt 0.655020 0.428691
vt 0.655020 0.428691
vt 0.655020 0.428691
vt 0.654487 0.188457
vt 0.654487 0.193593
vt 0.659623 0.193593
vt 0.659623 0.188457
vt 0.644215 0.193593
vt 0.644215 0.198730
vt 0.649351 0.198730
vt 0.649351 0.193593
vt 0.644215 0.188457
vt 0.649351 0.188457
vt 0.655020 0.428691
vt 0.655020 0.428691
vt 0.655020 0.428691
vt 0.655020 0.428691
vt 0.644215 0.203866
vt 0.649351 0.203866
vt 0.654487 0.198730
vt 0.659623 0.198730
vt 0.659623 0.203866
vt 0.654487 0.203866
vt 0.655020 0.428691
vt 0.655020 0.428691
vt 0.655020 0.428691
vt 0.655020 0.428691
vt 0.655020 0.428691
vt 0.655020 0.428691
vt 0.655020 0.428691
vt 0.655020 0.428691
vt 0.655020 0.428691
vt 0.655020 0.428691
vt 0.655020 0.428691
vt 0.655020 0.428691
vt 0.655020 0.428691
vt 0.655020 0.428691
vt 0.655020 0.428691
vt 0.655020 0.428691
vt 0.655020 0.428691
vt 0.655020 0.428691
vt 0.655020 0.428691
vt 0.655020 0.428691
vt 0.654487 0.188457
vt 0.659623 0.188457
vt 0.659623 0.193593
vt 0.654487 0.193593
vt 0.644215 0.193593
vt 0.649351 0.193593
vt 0.649351 0.197705
vt 0.647509 0.198023
vt 0.647264 0.198730
vt 0.644215 0.198730
vt 0.650831 0.198730
vt 0.650438 0.197661
vt 0.644215 0.188457
vt 0.649351 0.188457
vt 0.655020 0.428691
vt 0.655020 0.428691
vt 0.655020 0.428691
vt 0.655020 0.428691
vt 0.646841 0.200480
vt 0.649351 0.200041
vt 0.649351 0.203866
vt 0.644215 0.203866
vt 0.655020 0.428691
vt 0.655020 0.428691
vt 0.655020 0.428691
vt 0.655020 0.428691
vt 0.655020 0.428691
vt 0.655020 0.428691
vt 0.655020 0.428691
vt 0.655020 0.428691
vt 0.650809 0.199983
vt 0.655020 0.428691
vn -0.0962 -0.9680 -0.2316
vn 0.0000 -1.0000 0.0000
vn 0.0644 -0.9827 -0.1737
vn -0.1825 -0.9812 -0.0628
vn -0.0168 -0.9992 -0.0365
vn -0.0034 -1.0000 -0.0047
vn -0.0010 -1.0000 -0.0018
vn -0.0303 -0.9956 -0.0888
vn -0.0262 -0.9987 -0.0444
vn 0.0962 0.9680 0.2316
vn 0.0000 1.0000 0.0000
vn -0.0644 0.9827 0.1737
vn 0.1825 0.9812 0.0628
vn 0.0168 0.9992 0.0365
vn 0.0034 1.0000 0.0047
vn 0.0068 0.9997 0.0247
vn 0.0064 0.9999 -0.0125
vn 0.0303 0.9956 0.0888
vn -0.0013 1.0000 0.0030
vn 0.0527 0.9972 0.0525
vn -0.3448 0.0000 -0.9387
vn 0.8673 0.0000 -0.4978
vn -0.9986 0.0000 0.0520
vn 0.1986 0.0000 -0.9801
vn 0.1486 0.0000 0.9889
vn 0.8707 0.0000 0.4917
vn -0.9719 0.0000 0.2355
vn 0.0444 0.0000 0.9990
vn 0.9183 0.0000 0.3960
vn -0.0897 0.0000 -0.9960
vn -0.3282 0.0000 0.9446
vn -0.8725 0.0000 -0.4886
vn -0.0415 0.9984 -0.0383
vn -0.0035 0.9999 0.0145
vn 0.0234 0.9989 0.0401
vn -0.0504 0.9980 0.0375
usemtl basematerial
s off
f 27/1/1 19/2/1 8/3/1 12/4/1
f 9/5/2 13/6/2 3/7/2 5/8/2
f 17/9/2 21/10/2 1/11/2 6/12/2
f 11/13/2 15/14/2 2/15/2 7/16/2
f 19/17/3 23/18/3 4/19/3 8/20/3
f 8/20/4 4/19/4 16/21/4 12/22/4
f 12/22/5 16/21/5 15/14/5 11/13/5
f 6/12/2 1/11/2 14/23/2 10/24/2
f 10/24/2 14/23/2 13/6/2 9/5/2
f 18/25/2 25/26/2 11/27/2 7/28/2
f 25/26/6 27/1/6 12/4/6 11/27/6
f 10/29/2 9/30/2 28/31/2 26/32/2
f 26/32/7 28/31/7 27/1/7 25/26/7
f 6/33/2 10/29/2 26/32/2 17/34/2
f 17/34/2 26/32/2 25/26/2 18/25/2
f 5/8/2 3/7/2 24/35/2 20/36/2
f 20/36/8 24/35/8 23/18/8 19/17/8
f 7/16/2 2/15/2 22/37/2 18/38/2
f 18/38/2 22/37/2 21/10/2 17/9/2
f 9/30/2 5/39/2 20/40/2 28/31/2
f 28/31/9 20/40/9 19/2/9 27/1/9
f 55/41/10 40/42/10 36/43/10 47/44/10
f 37/45/11 33/46/11 31/47/11 41/48/11
f 45/49/11 34/50/11 29/51/11 49/52/11
f 39/53/11 35/54/11 30/55/11 43/56/11
f 47/57/12 36/58/12 32/59/12 51/60/12
f 36/58/13 40/61/13 44/62/13 32/59/13
f 40/61/14 39/53/14 43/56/14 44/62/14
f 34/50/11 38/63/11 42/64/11 29/51/11
f 38/63/11 37/45/11 41/48/11 42/64/11
f 46/65/11 35/66/11 39/67/11 53/68/11
f 53/68/15 39/67/15 40/42/15 55/41/15
f 38/69/16 54/70/16 58/71/16 64/72/16 57/73/16 37/74/16
f 54/70/17 53/68/17 55/41/17 59/75/17 61/76/17 58/71/17
f 34/77/11 45/78/11 54/70/11 38/69/11
f 45/78/11 46/65/11 53/68/11 54/70/11
f 33/46/11 48/79/11 52/80/11 31/47/11
f 48/79/18 47/57/18 51/60/18 52/80/18
f 35/54/11 46/81/11 50/82/11 30/55/11
f 46/81/11 45/49/11 49/52/11 50/82/11
f 37/74/19 57/73/19 62/83/19 60/84/19 48/85/19 33/86/19
f 56/87/20 59/88/20 63/89/20 60/90/20
f 13/6/21 14/23/21 42/64/21 41/48/21
f 24/35/22 3/7/22 31/47/22 52/80/22
f 21/10/23 22/37/23 50/82/23 49/52/23
f 14/23/24 1/11/24 29/51/24 42/64/24
f 2/15/25 15/14/25 43/56/25 30/55/25
f 4/19/26 23/18/26 51/60/26 32/59/26
f 22/37/27 2/15/27 30/55/27 50/82/27
f 15/14/28 16/21/28 44/62/28 43/56/28
f 23/18/29 24/35/29 52/80/29 51/60/29
f 3/7/30 13/6/30 41/48/30 31/47/30
f 16/21/31 4/19/31 32/59/31 44/62/31
f 1/11/32 21/10/32 49/52/32 29/51/32
f 58/91/33 61/92/33 59/88/33 56/87/33
f 60/90/34 62/93/34 57/94/34 56/87/34
f 60/84/35 63/95/35 59/75/35 55/41/35 47/44/35 48/85/35
f 57/94/36 64/96/36 58/91/36 56/87/36
