# Blender v2.81 (sub 16) OBJ File: 'assets.blend'
# www.blender.org
mtllib picnic-cloth.mtl
o picnic-cloth_Plane.001
v -0.693236 0.041571 0.693236
v 0.693236 0.041571 0.693236
v -0.693236 0.041571 -0.693236
v 0.693236 0.041571 -0.693236
v -0.693236 0.008532 0.693236
v 0.693236 0.008532 0.693236
v -0.693236 0.008532 -0.693236
v 0.693236 0.008532 -0.693236
v -0.693236 0.041571 0.000000
v 0.000000 0.041571 0.693236
v 0.693236 0.041571 0.000000
v 0.000000 0.041571 -0.693236
v 0.000000 0.041571 0.000000
v -0.693236 0.041571 0.346618
v 0.346618 0.041571 0.693236
v 0.693236 0.041571 -0.346618
v -0.346618 0.041571 -0.693236
v -0.693236 0.041571 -0.346618
v -0.346618 0.041571 0.693236
v 0.693236 0.041571 0.346618
v 0.346618 0.041571 -0.693236
v 0.000000 0.041571 -0.346618
v 0.000000 0.041571 0.346618
v -0.346618 0.041571 0.000000
v 0.346618 0.041571 0.000000
v 0.346618 0.041571 0.346618
v -0.346618 0.041571 0.346618
v -0.346618 0.041571 -0.346618
v 0.346618 0.041571 -0.346618
vt 0.007666 0.183682
vt 0.046284 0.183682
vt 0.046284 0.217731
vt 0.007666 0.217731
vt 0.003793 0.134135
vt 0.003793 0.217061
vt 0.097848 0.217061
vt 0.097848 0.134135
vt 0.104743 0.221547
vt 0.104743 0.221547
vt -0.000633 0.221547
vt -0.000633 0.221547
vt 0.025711 0.221547
vt 0.052055 0.221547
vt 0.078399 0.221547
vt -0.000633 0.128641
vt -0.000633 0.128641
vt 0.104743 0.128641
vt 0.104743 0.128641
vt 0.078399 0.128641
vt 0.052055 0.128641
vt 0.025711 0.128641
vt 0.104743 0.198321
vt 0.104743 0.175094
vt 0.104743 0.151867
vt -0.000633 0.151867
vt -0.000633 0.175094
vt -0.000633 0.198321
vt 0.008383 0.183036
vt 0.048466 0.183036
vt 0.048466 0.218376
vt 0.008383 0.218376
vt 0.008927 0.183202
vt 0.047922 0.183202
vt 0.047922 0.217582
vt 0.008927 0.217582
vt 0.007717 0.183413
vt 0.046233 0.183413
vt 0.046233 0.217371
vt 0.007717 0.217371
vt 0.006639 0.182366
vt 0.047530 0.182366
vt 0.047530 0.218418
vt 0.006639 0.218418
vt 0.008416 0.184699
vt 0.045753 0.184699
vt 0.045753 0.217618
vt 0.008416 0.217618
vt 0.008472 0.184229
vt 0.045478 0.184229
vt 0.045478 0.216857
vt 0.008472 0.216857
vt 0.006884 0.183473
vt 0.045263 0.183473
vt 0.045263 0.217311
vt 0.006884 0.217311
vt 0.006956 0.184303
vt 0.045191 0.184303
vt 0.045191 0.218014
vt 0.006956 0.218014
vt 0.010000 0.184914
vt 0.046849 0.184914
vt 0.046849 0.217403
vt 0.010000 0.217403
vt 0.006977 0.183869
vt 0.045170 0.183869
vt 0.045170 0.217543
vt 0.006977 0.217543
vt 0.006512 0.184225
vt 0.045635 0.184225
vt 0.045635 0.218719
vt 0.006512 0.218719
vt 0.008194 0.183635
vt 0.048655 0.183635
vt 0.048655 0.219309
vt 0.008194 0.219309
vt 0.007656 0.183576
vt 0.046513 0.183576
vt 0.046513 0.217836
vt 0.007656 0.217836
vt 0.007187 0.183929
vt 0.046982 0.183929
vt 0.046982 0.219015
vt 0.007187 0.219015
vt 0.007821 0.184584
vt 0.046129 0.184584
vt 0.046129 0.218360
vt 0.007821 0.218360
vn 0.0000 1.0000 0.0000
vn 0.0000 -1.0000 0.0000
vn 0.0000 0.0000 -1.0000
vn 0.0000 0.0000 1.0000
vn 1.0000 -0.0000 0.0000
vn -1.0000 -0.0000 0.0000
usemtl basematerial
s off
f 29/1/1 16/2/1 4/3/1 21/4/1
f 5/5/2 7/6/2 8/7/2 6/8/2
f 4/9/3 8/10/3 7/11/3 3/12/3 17/13/3 12/14/3 21/15/3
f 1/16/4 5/17/4 6/18/4 2/19/4 15/20/4 10/21/4 19/22/4
f 2/19/5 6/18/5 8/10/5 4/9/5 16/23/5 11/24/5 20/25/5
f 3/12/6 7/11/6 5/17/6 1/16/6 14/26/6 9/27/6 18/28/6
f 28/29/1 22/30/1 12/31/1 17/32/1
f 27/33/1 23/34/1 13/35/1 24/36/1
f 26/37/1 20/38/1 11/39/1 25/40/1
f 23/41/1 26/42/1 25/43/1 13/44/1
f 10/45/1 15/46/1 26/47/1 23/48/1
f 15/49/1 2/50/1 20/51/1 26/52/1
f 14/53/1 27/54/1 24/55/1 9/56/1
f 1/57/1 19/58/1 27/59/1 14/60/1
f 19/61/1 10/62/1 23/63/1 27/64/1
f 18/65/1 28/66/1 17/67/1 3/68/1
f 9/69/1 24/70/1 28/71/1 18/72/1
f 24/73/1 13/74/1 22/75/1 28/76/1
f 22/77/1 29/78/1 21/79/1 12/80/1
f 13/81/1 25/82/1 29/83/1 22/84/1
f 25/85/1 11/86/1 16/87/1 29/88/1
