# Blender v2.81 (sub 16) OBJ File: 'assets.blend'
# www.blender.org
mtllib plants-type-003.mtl
o plants-type-003
v 0.041295 0.085707 0.118132
v -0.108113 0.085707 0.073009
v -0.108113 0.085707 -0.073009
v 0.041295 0.085707 -0.118132
v 0.133634 0.085706 -0.000000
v -0.000000 0.194054 -0.000000
v 0.142096 -0.001949 0.042914
v 0.142096 -0.001949 -0.042914
v -0.000000 -0.001949 0.138873
v 0.087820 -0.001949 0.112351
v -0.142096 -0.001949 0.042914
v -0.087820 -0.001949 0.112351
v -0.087820 -0.001949 -0.112351
v -0.142096 -0.001949 -0.042914
v 0.087820 -0.001949 -0.112351
v -0.000000 -0.001949 -0.138873
v 0.102821 0.101097 0.069436
v -0.039275 0.101097 0.112350
v -0.127094 0.101097 -0.000000
v -0.039275 0.101097 -0.112350
v 0.102821 0.101097 -0.069436
v 0.024272 0.164782 0.069436
v 0.078548 0.164781 -0.000000
v -0.063547 0.164781 0.042913
v -0.063547 0.164781 -0.042913
v 0.024272 0.164782 -0.069436
v 0.045985 0.240370 -0.042396
v 0.048726 0.239349 -0.042396
v 0.116804 0.189372 0.059741
v 0.119627 0.189372 0.056130
v -0.074121 0.256710 -0.032018
v -0.078910 0.254504 -0.028784
v 0.063410 0.224753 0.046697
v 0.062514 0.225833 0.044135
v -0.045005 0.217592 0.097126
v -0.049957 0.217592 0.095630
v -0.041732 0.235913 -0.051986
v -0.040653 0.234610 -0.055075
v 0.103644 0.171911 -0.086487
v 0.098215 0.171911 -0.093433
v 0.168535 0.149127 -0.043127
v 0.164664 0.154684 -0.043127
v 0.154163 0.139935 0.036354
v 0.153032 0.142902 0.033120
v 0.052742 0.126771 0.114822
v 0.046340 0.131962 0.114822
v -0.067629 0.188556 0.145623
v -0.062449 0.193748 0.142124
v -0.108232 0.183533 0.039778
v -0.101707 0.190072 0.044185
v -0.062860 0.203469 -0.004851
v -0.072256 0.199140 -0.011196
v 0.000149 0.151718 -0.150340
v 0.002604 0.154178 -0.148682
v -0.120628 0.170632 -0.079920
v -0.113169 0.183865 -0.074884
v -0.082956 0.180537 -0.073284
v -0.067258 0.180537 -0.078025
v 0.108983 0.093984 -0.157392
v 0.115966 0.095731 -0.151865
v 0.060201 0.145502 -0.128117
v 0.053368 0.151042 -0.128117
v 0.113617 0.126820 -0.050806
v 0.110198 0.135791 -0.041025
v -0.130445 0.089644 -0.117754
v -0.115429 0.093001 -0.126335
v -0.095910 0.123706 0.108746
v -0.094176 0.126783 0.107575
v -0.106626 0.042158 0.102995
v -0.104801 0.034276 0.106533
v 0.038846 0.086429 0.154031
v 0.024553 0.089159 0.153006
v 0.193691 0.073458 0.014489
v 0.187011 0.076795 0.029542
v -0.190506 0.062997 0.014106
v -0.194062 0.065880 0.000430
v -0.043691 0.094911 0.159285
v -0.041328 0.099927 0.159285
v -0.169080 0.114601 0.083097
v -0.172251 0.106422 0.080288
v -0.181503 0.127734 -0.045669
v -0.182598 0.124911 -0.044699
v -0.111969 0.122226 -0.137191
v -0.108788 0.128979 -0.137191
v -0.008542 0.116601 -0.181202
v -0.012495 0.108212 -0.183187
v 0.161784 0.126646 -0.114367
v 0.158315 0.135749 -0.116711
v 0.147611 0.099291 0.100391
v 0.148730 0.106977 0.097191
v 0.069928 0.115101 0.184654
v 0.075784 0.104068 0.183927
vt 0.322499 0.493688
vt 0.320506 0.493688
vt 0.321502 0.495414
vt 0.326484 0.493688
vt 0.324492 0.493688
vt 0.325488 0.495414
vt 0.310541 0.493688
vt 0.308548 0.493688
vt 0.309544 0.495414
vt 0.314527 0.493688
vt 0.312534 0.493688
vt 0.313530 0.495414
vt 0.318513 0.493688
vt 0.316520 0.493688
vt 0.317516 0.495414
vt 0.315523 0.495414
vt 0.316520 0.497140
vt 0.311537 0.495414
vt 0.312534 0.497140
vt 0.307552 0.495414
vt 0.308548 0.497140
vt 0.306555 0.493688
vt 0.323495 0.495414
vt 0.324492 0.497140
vt 0.319509 0.495414
vt 0.320506 0.497140
vt 0.317516 0.491962
vt 0.315523 0.491962
vt 0.313530 0.491962
vt 0.311537 0.491962
vt 0.309544 0.491962
vt 0.307552 0.491962
vt 0.325488 0.491962
vt 0.323495 0.491962
vt 0.321502 0.491962
vt 0.319509 0.491962
vt 0.305559 0.491962
vt 0.317516 0.495414
vt 0.316520 0.497140
vt 0.319509 0.495414
vt 0.321502 0.495414
vt 0.308548 0.497140
vt 0.307552 0.495414
vt 0.324492 0.497140
vt 0.323495 0.495414
vt 0.323495 0.495414
vt 0.325488 0.495414
vt 0.316520 0.497140
vt 0.315523 0.495414
vt 0.315523 0.495414
vt 0.317516 0.495414
vt 0.318513 0.493688
vt 0.317516 0.495414
vt 0.319509 0.495414
vt 0.320506 0.493688
vt 0.321502 0.495414
vt 0.320506 0.493688
vt 0.323495 0.495414
vt 0.324492 0.493688
vt 0.307552 0.495414
vt 0.308548 0.493688
vt 0.312534 0.497140
vt 0.311537 0.495414
vt 0.313530 0.495414
vt 0.312534 0.493688
vt 0.310541 0.493688
vt 0.309544 0.495414
vt 0.311537 0.495414
vt 0.313530 0.495414
vt 0.314527 0.493688
vt 0.316520 0.493688
vt 0.315523 0.495414
vt 0.316520 0.493688
vt 0.317516 0.495414
vt 0.316520 0.493688
vt 0.310541 0.493688
vt 0.312534 0.493688
vt 0.326484 0.493688
vt 0.325488 0.495414
vt 0.325488 0.491962
vt 0.326484 0.493688
vt 0.322499 0.493688
vt 0.324492 0.493688
vt 0.318513 0.493688
vt 0.320506 0.493688
vt 0.306555 0.493688
vt 0.308548 0.493688
vt 0.324492 0.493688
vt 0.325488 0.491962
vt 0.306555 0.493688
vt 0.307552 0.491962
vt 0.309544 0.491962
vt 0.310541 0.493688
vt 0.312534 0.493688
vt 0.311537 0.491962
vt 0.313530 0.491962
vt 0.314527 0.493688
vt 0.316520 0.493688
vt 0.317516 0.491962
vt 0.320506 0.493688
vt 0.321502 0.491962
vt 0.321502 0.491962
vt 0.322499 0.493688
vn 0.4362 0.5381 0.7212
vn -0.5053 0.5407 0.6726
vn -0.7696 0.5544 -0.3169
vn 0.0405 0.5303 -0.8469
vn 0.7983 0.5561 -0.2310
vn 0.3369 0.9040 -0.2633
vn 0.5650 0.6969 -0.4417
vn 0.4362 0.5381 -0.7212
vn -0.1277 0.8972 -0.4229
vn -0.2113 0.6824 -0.6998
vn -0.5053 0.5407 -0.6726
vn -0.4184 0.9083 0.0000
vn -0.7079 0.7063 0.0000
vn -0.7696 0.5544 0.3169
vn -0.1277 0.8972 0.4229
vn -0.2113 0.6824 0.6998
vn 0.0405 0.5303 0.8469
vn 0.3369 0.9040 0.2633
vn 0.5650 0.6969 0.4417
vn 0.7983 0.5561 0.2310
vn 0.9034 0.2557 -0.3442
vn 0.7801 0.1404 -0.6097
vn 0.5628 0.2467 -0.7890
vn -0.0237 0.2407 -0.9703
vn -0.2865 0.1350 -0.9485
vn -0.5218 0.2458 -0.8169
vn -0.9210 0.2563 -0.2935
vn -0.9896 0.1441 0.0000
vn -0.9210 0.2563 0.2935
vn -0.5218 0.2458 0.8169
vn -0.2865 0.1350 0.9485
vn -0.0237 0.2407 0.9703
vn 0.5628 0.2467 0.7890
vn 0.7801 0.1404 0.6097
vn 0.9034 0.2557 0.3442
vn 0.2879 0.0899 -0.9534
vn -0.7844 0.0936 -0.6131
vn -0.7844 0.0936 0.6131
vn 0.2879 0.0899 0.9534
vn 0.9954 0.0961 0.0000
vn 0.2027 0.5440 0.8142
vn 0.2717 -0.9387 0.2124
vn 0.2122 0.6320 0.7454
vn 0.6420 -0.6000 -0.4774
vn -0.2169 -0.6611 0.7182
vn -0.7285 -0.6843 0.0338
vn 0.0765 -0.9953 -0.0598
vn 0.4542 0.3164 0.8328
vn 0.0968 -0.7164 -0.6909
vn 0.6102 0.7526 0.2475
vn 0.6207 -0.0949 0.7783
vn -0.2231 -0.3818 0.8969
vn -0.1579 -0.6911 0.7053
vn -0.7406 0.6622 0.1139
vn 0.5448 0.0121 -0.8385
vn -0.1196 -0.9105 -0.3959
vn 0.1729 -0.9807 0.0914
vn -0.6245 -0.7703 -0.1293
vn -0.3194 0.6401 -0.6987
vn 0.1321 -0.9795 -0.1521
vn -0.8848 0.4368 -0.1624
vn -0.7003 -0.4209 -0.5765
vn -0.1881 -0.9821 0.0069
vn -0.2250 -0.9676 0.1146
vn 0.4434 -0.8468 -0.2938
vn 0.9043 -0.4260 0.0289
vn 0.0022 -0.3255 0.9455
vn -0.4177 -0.1460 -0.8968
vn -0.2852 0.1344 0.9490
vn 0.7251 -0.1846 -0.6634
vn -0.4509 -0.3798 -0.8077
vn 0.5121 -0.3927 -0.7639
vn -0.7452 -0.4292 0.5104
usemtl basematerial
s off
f 1/1/1 17/2/1 22/3/1
f 2/4/2 18/5/2 24/6/2
f 3/7/3 19/8/3 25/9/3
f 4/10/4 20/11/4 26/12/4
f 5/13/5 21/14/5 23/15/5
f 23/15/6 26/16/6 6/17/6
f 23/15/7 21/14/7 26/16/7
f 21/14/8 4/10/8 26/16/8
f 26/12/9 25/18/9 6/19/9
f 26/12/10 20/11/10 25/18/10
f 20/11/11 3/7/11 25/18/11
f 25/9/12 24/20/12 6/21/12
f 25/9/13 19/8/13 24/20/13
f 19/8/14 2/22/14 24/20/14
f 24/6/15 22/23/15 6/24/15
f 24/6/16 18/5/16 22/23/16
f 18/5/17 1/1/17 22/23/17
f 22/3/18 23/25/18 6/26/18
f 22/3/19 17/2/19 23/25/19
f 17/2/20 5/13/20 23/25/20
f 8/27/21 21/14/21 5/13/21
f 8/27/22 15/28/22 21/14/22
f 15/28/23 4/10/23 21/14/23
f 16/29/24 20/11/24 4/10/24
f 16/29/25 13/30/25 20/11/25
f 13/30/26 3/7/26 20/11/26
f 14/31/27 19/8/27 3/7/27
f 14/31/28 11/32/28 19/8/28
f 11/32/29 2/22/29 19/8/29
f 12/33/30 18/5/30 2/4/30
f 12/33/31 9/34/31 18/5/31
f 9/34/32 1/1/32 18/5/32
f 10/35/33 17/2/33 1/1/33
f 10/35/34 7/36/34 17/2/34
f 7/36/35 5/13/35 17/2/35
f 15/28/36 16/29/36 4/10/36
f 13/30/37 14/31/37 3/7/37
f 11/32/38 12/37/38 2/22/38
f 9/34/39 10/35/39 1/1/39
f 7/36/40 8/27/40 5/13/40
f 6/17/41 23/15/41 28/38/41 27/39/41
f 22/3/42 23/25/42 30/40/42 29/41/42
f 24/20/43 6/21/43 31/42/43 32/43/43
f 22/23/44 6/24/44 33/44/44 34/45/44
f 24/6/45 22/23/45 35/46/45 36/47/45
f 26/16/46 6/17/46 37/48/46 38/49/46
f 23/15/47 26/16/47 40/50/47 39/51/47
f 23/15/48 5/13/48 41/52/48 42/53/48
f 17/2/49 23/25/49 44/54/49 43/55/49
f 17/2/50 22/3/50 46/56/50 45/57/50
f 18/5/51 22/23/51 48/58/51 47/59/51
f 19/8/52 24/20/52 50/60/52 49/61/52
f 25/18/53 6/19/53 51/62/53 52/63/53
f 20/11/54 26/12/54 54/64/54 53/65/54
f 25/9/55 3/7/55 55/66/55 56/67/55
f 26/12/56 25/18/56 57/68/56 58/69/56
f 21/14/57 4/10/57 59/70/57 60/71/57
f 21/14/58 26/16/58 62/72/58 61/73/58
f 21/14/59 23/15/59 64/74/59 63/75/59
f 20/11/60 3/7/60 65/76/60 66/77/60
f 24/6/61 2/4/61 67/78/61 68/79/61
f 2/4/62 12/33/62 70/80/62 69/81/62
f 18/5/63 1/1/63 71/82/63 72/83/63
f 17/2/64 5/13/64 73/84/64 74/85/64
f 19/8/65 2/22/65 75/86/65 76/87/65
f 12/33/66 18/5/66 78/88/66 77/89/66
f 11/32/67 2/22/67 79/90/67 80/91/67
f 3/7/68 14/31/68 82/92/68 81/93/68
f 13/30/69 20/11/69 84/94/69 83/95/69
f 4/10/70 16/29/70 86/96/70 85/97/70
f 8/27/71 21/14/71 88/98/71 87/99/71
f 10/35/72 17/2/72 90/100/72 89/101/72
f 1/1/73 10/35/73 92/102/73 91/103/73
