# Blender v2.81 (sub 16) OBJ File: 'assets.blend'
# www.blender.org
mtllib shield-type-01.mtl
o shield-type-01
v -0.077078 0.042431 -0.023138
v 0.077078 0.042431 -0.023138
v -0.247147 0.536724 -0.027680
v 0.247147 0.536724 -0.027680
v 0.000000 0.001328 -0.024723
v 0.000000 0.689049 -0.032815
v -0.237230 0.413151 -0.024272
v -0.217995 0.289578 -0.022080
v -0.178351 0.166004 -0.020049
v 0.178351 0.166004 -0.020049
v 0.217995 0.289578 -0.022080
v 0.237230 0.413151 -0.024272
v 0.000000 0.166004 -0.010741
v 0.000000 0.289578 0.000023
v 0.000000 0.413152 -0.000912
v -0.144287 0.184547 -0.016312
v -0.052434 0.072468 -0.021441
v 0.000000 0.044506 -0.022145
v 0.052434 0.072468 -0.021441
v 0.199366 0.417611 -0.019731
v 0.207303 0.516526 -0.025370
v 0.000000 0.644294 -0.029650
v -0.207303 0.516526 -0.025370
v -0.199366 0.417611 -0.019731
v -0.180807 0.298381 -0.017251
v 0.144287 0.184547 -0.016312
v 0.180807 0.298381 -0.017251
v -0.077078 0.042431 0.004477
v 0.077078 0.042431 0.004477
v -0.247147 0.536724 -0.000149
v 0.247147 0.536724 -0.000149
v 0.000000 0.001328 0.002916
v 0.000000 0.689049 -0.005359
v -0.237230 0.413151 0.003499
v -0.217995 0.289578 0.005731
v -0.178351 0.166004 0.007565
v 0.178351 0.166004 0.007565
v 0.215679 0.289578 0.005731
v 0.237230 0.413151 0.003499
v 0.000000 0.166004 0.017252
v 0.006125 0.288535 0.025435
v 0.002208 0.423352 0.025442
v -0.144287 0.184547 0.011382
v -0.052434 0.072468 0.006260
v 0.000000 0.044506 0.005657
v 0.052434 0.072468 0.006260
v 0.199366 0.417611 0.008120
v 0.207303 0.516526 0.009142
v 0.000000 0.644294 -0.001987
v -0.207303 0.519979 0.002126
v -0.199366 0.417611 0.008120
v -0.183096 0.302152 0.013703
v 0.144287 0.184547 0.011382
v 0.180807 0.298381 0.010639
v -0.144287 0.184547 0.028752
v -0.052434 0.072468 0.023784
v 0.000000 0.044506 0.023266
v 0.052434 0.072468 0.023784
v 0.199366 0.417611 0.025509
v 0.207303 0.516526 0.031414
v 0.000000 0.644294 0.015697
v -0.207303 0.522418 0.019442
v -0.199366 0.417611 0.025509
v -0.184731 0.304847 0.033282
v 0.144287 0.184547 0.028752
v 0.180804 0.298381 0.028028
v -0.178351 0.166004 0.024909
v -0.077078 0.042431 0.021970
v 0.000000 0.001328 0.020516
v 0.077078 0.042431 0.021970
v 0.237230 0.413151 0.020888
v 0.247147 0.536724 0.017188
v 0.000000 0.689049 0.012311
v -0.247147 0.536724 0.017188
v -0.237230 0.413151 0.020888
v -0.217998 0.289582 0.023124
v 0.178351 0.166004 0.024909
v 0.214024 0.289578 0.023121
v -0.199366 0.417611 -0.063891
v -0.180807 0.298381 -0.061411
v 0.180807 0.298381 -0.061411
v 0.199366 0.417611 -0.063891
v -0.237230 0.413151 -0.068432
v -0.217995 0.289578 -0.066240
v 0.217995 0.289578 -0.066240
v 0.237230 0.413151 -0.068432
v 0.180807 0.298381 -0.039331
v 0.217995 0.289578 -0.044160
v 0.199366 0.417611 -0.041811
v 0.237230 0.413151 -0.046352
v -0.217995 0.289578 -0.044160
v -0.180807 0.298381 -0.039331
v -0.199366 0.417611 -0.041811
v -0.237230 0.413151 -0.046352
v 0.000000 0.389925 -0.066639
v 0.000000 0.389925 -0.078442
v 0.000000 0.326066 -0.065286
v 0.000000 0.326066 -0.077112
v 0.108115 0.577659 0.000158
v 0.097918 0.421686 0.016550
v 0.075694 0.100849 0.007557
v 0.091719 0.291259 0.023998
v 0.080571 0.176359 0.013974
v -0.096161 0.415302 0.018017
v -0.090179 0.293968 0.019449
v -0.106809 0.578464 0.000133
v -0.083344 0.110184 0.007984
v -0.085564 0.177000 0.013771
v -0.053103 0.426480 0.019933
v -0.051223 0.289370 0.023862
v -0.053405 0.611379 -0.000927
v -0.042782 0.171502 0.015511
v -0.157056 0.547495 0.001129
v -0.114926 0.180774 0.012577
v -0.135493 0.296174 0.015044
v -0.147792 0.432118 0.017234
v 0.054058 0.610976 -0.000914
v 0.040285 0.171182 0.015613
v 0.044154 0.291727 0.023923
v 0.050650 0.425340 0.020118
v 0.157709 0.547092 0.001142
v 0.151054 0.412582 0.017653
v 0.130548 0.296129 0.011317
v 0.112429 0.180453 0.012678
v -0.157056 0.547495 0.006352
v -0.207303 0.521078 0.007349
v -0.199366 0.417611 0.013343
v -0.183829 0.303361 0.019908
v -0.144287 0.184547 0.016605
v -0.114926 0.180774 0.017799
v -0.135493 0.296174 0.020266
v -0.147797 0.432923 0.022671
v -0.085564 0.177000 0.017859
v -0.090179 0.293968 0.023536
v -0.096161 0.415302 0.022104
v -0.106809 0.578464 0.004220
v -0.157056 0.547495 0.005217
v -0.114926 0.180774 0.016664
v -0.135493 0.296174 0.019131
v -0.147797 0.432882 0.021526
v -0.054014 0.428704 0.025625
v -0.096161 0.415302 0.024198
v -0.051663 0.289197 0.030046
v -0.090179 0.293968 0.025630
v -0.053405 0.611379 0.005254
v -0.106809 0.578464 0.006314
v -0.042782 0.171502 0.021693
v -0.085564 0.177000 0.019952
v 0.054058 0.610976 0.003237
v 0.000000 0.644294 0.002164
v 0.002505 0.424724 0.029351
v 0.000000 0.166004 0.021403
v 0.006948 0.288395 0.029204
v 0.040285 0.171182 0.019764
v 0.044153 0.291727 0.028065
v 0.050748 0.425799 0.024166
v 0.002712 0.425684 0.035820
v 0.000000 0.644294 0.008803
v 0.000000 0.166004 0.028041
v 0.007524 0.288297 0.035579
v -0.054251 0.429281 0.030107
v -0.051411 0.289296 0.034653
v -0.053405 0.611379 0.009863
v -0.042782 0.171502 0.026301
v 0.091862 0.291149 0.028914
v 0.080571 0.176359 0.018706
v 0.108115 0.577659 0.004890
v 0.097975 0.421954 0.021222
v 0.054058 0.610976 0.003818
v 0.040285 0.171182 0.020345
v 0.044153 0.291727 0.028644
v 0.050750 0.425807 0.024745
v 0.157709 0.547092 0.005220
v 0.108115 0.577659 0.004236
v 0.151228 0.412364 0.021989
v 0.097974 0.421948 0.020568
v 0.130323 0.296129 0.015180
v 0.091859 0.291151 0.028255
v 0.112429 0.180453 0.016756
v 0.080571 0.176359 0.018052
v 0.199366 0.417611 0.013850
v 0.207303 0.516526 0.017302
v 0.144287 0.184547 0.017112
v 0.180806 0.298381 0.016368
v 0.157709 0.547092 0.006872
v 0.151245 0.412343 0.023666
v 0.130301 0.296129 0.016811
v 0.112429 0.180453 0.018408
v -0.083344 0.110184 0.019517
v -0.052434 0.072468 0.017793
v 0.000000 0.044506 0.017191
v 0.052434 0.072468 0.017793
v 0.075694 0.100849 0.019091
v 0.144287 0.184547 0.022916
v 0.000000 0.166004 0.028785
v -0.114926 0.180774 0.024110
v -0.144287 0.184547 0.022916
v 0.040285 0.171182 0.027147
v 0.112429 0.180453 0.024212
v 0.080571 0.176359 0.025508
v -0.042782 0.171502 0.027045
v -0.085564 0.177000 0.025305
vt 0.029990 0.427570
vt 0.029990 0.426676
vt 0.028183 0.426790
vt 0.028202 0.427532
vt 0.031779 0.427532
vt 0.031798 0.426790
vt 0.031131 0.430423
vt 0.031670 0.429544
vt 0.029990 0.429704
vt 0.029990 0.430492
vt 0.031740 0.428561
vt 0.029990 0.428637
vt 0.028311 0.429544
vt 0.028850 0.430423
vt 0.028230 0.428561
vt 0.188621 0.666658
vt 0.189615 0.667006
vt 0.189615 0.665939
vt 0.189160 0.665779
vt 0.186340 0.666658
vt 0.185347 0.667006
vt 0.187481 0.667006
vt 0.187481 0.666727
vt 0.185673 0.663025
vt 0.185347 0.662739
vt 0.185347 0.663805
vt 0.185692 0.663767
vt 0.189288 0.663025
vt 0.189615 0.662739
vt 0.187481 0.662739
vt 0.187481 0.662912
vt 0.189269 0.663767
vt 0.189615 0.663805
vt 0.185692 0.663767
vt 0.185720 0.664796
vt 0.185720 0.664796
vt 0.185692 0.663767
vt 0.189615 0.664872
vt 0.189230 0.664796
vt 0.185801 0.665779
vt 0.185347 0.665939
vt 0.185720 0.664796
vt 0.185347 0.664872
vt 0.421582 0.731314
vt 0.421955 0.731238
vt 0.421955 0.731238
vt 0.421582 0.731314
vt 0.088541 0.433443
vt 0.088527 0.428675
vt 0.088527 0.428675
vt 0.088541 0.433443
vt 0.188412 0.662970
vt 0.188850 0.662998
vt 0.188850 0.662998
vt 0.188412 0.662970
vt 0.189160 0.665779
vt 0.188802 0.666362
vt 0.188802 0.666362
vt 0.189160 0.665779
vt 0.082655 0.428762
vt 0.082699 0.433485
vt 0.082699 0.433485
vt 0.082655 0.428762
vt 0.080612 0.433530
vt 0.080678 0.428848
vt 0.080678 0.428848
vt 0.080612 0.433530
vt 0.092489 0.424344
vt 0.090817 0.424184
vt 0.090817 0.424184
vt 0.092489 0.424344
vt 0.088713 0.437298
vt 0.088713 0.437298
vt 0.090494 0.433485
vt 0.090837 0.437164
vt 0.090837 0.437164
vt 0.090494 0.433485
vt 0.189615 0.667006
vt 0.187481 0.667006
vt 0.187481 0.667006
vt 0.189615 0.667006
vt 0.185720 0.664796
vt 0.185801 0.665779
vt 0.185801 0.665779
vt 0.185720 0.664796
vt 0.185347 0.664872
vt 0.185347 0.663805
vt 0.185347 0.663805
vt 0.185347 0.664872
vt 0.189288 0.663025
vt 0.187946 0.662941
vt 0.187481 0.662912
vt 0.187481 0.662912
vt 0.189288 0.663025
vt 0.187481 0.662739
vt 0.189615 0.662739
vt 0.189615 0.662739
vt 0.187481 0.662739
vt 0.186204 0.666436
vt 0.186340 0.666658
vt 0.186340 0.666658
vt 0.185347 0.665939
vt 0.185347 0.665939
vt 0.185673 0.663025
vt 0.185692 0.663767
vt 0.185692 0.663767
vt 0.185673 0.663025
vt 0.185347 0.662739
vt 0.185347 0.662739
vt 0.189230 0.664796
vt 0.189230 0.664796
vt 0.189160 0.665779
vt 0.185347 0.667006
vt 0.185347 0.667006
vt 0.187481 0.666727
vt 0.187481 0.666727
vt 0.189615 0.665939
vt 0.189615 0.664872
vt 0.189615 0.663805
vt 0.188621 0.666658
vt 0.189615 0.665939
vt 0.189269 0.663767
vt 0.189615 0.663805
vt 0.189615 0.664872
vt 0.188621 0.666658
vt 0.187009 0.662941
vt 0.186538 0.662971
vt 0.186106 0.662998
vt 0.189269 0.663767
vt 0.425465 0.731238
vt 0.425850 0.731314
vt 0.425850 0.730247
vt 0.425505 0.730208
vt 0.421927 0.730208
vt 0.421582 0.730247
vt 0.425465 0.731238
vt 0.425850 0.731314
vt 0.189269 0.663767
vt 0.189230 0.664796
vt 0.189230 0.664796
vt 0.189269 0.663767
vt 0.421927 0.730208
vt 0.421582 0.730247
vt 0.425850 0.730247
vt 0.425505 0.730208
vt 0.421582 0.730247
vt 0.421582 0.731314
vt 0.421927 0.730208
vt 0.421955 0.731238
vt 0.425850 0.731314
vt 0.425850 0.730247
vt 0.425505 0.730208
vt 0.425465 0.731238
vt 0.185720 0.664796
vt 0.185720 0.664796
vt 0.185720 0.664796
vt 0.185692 0.663767
vt 0.185692 0.663767
vt 0.185720 0.664796
vt 0.185692 0.663767
vt 0.185692 0.663767
vt 0.082098 0.424209
vt 0.080557 0.424356
vt 0.080557 0.424356
vt 0.082098 0.424209
vt 0.092573 0.433530
vt 0.092495 0.428846
vt 0.092495 0.428846
vt 0.092573 0.433530
vt 0.092489 0.424344
vt 0.185692 0.663767
vt 0.185720 0.664796
vt 0.088703 0.423983
vt 0.088703 0.423983
vt 0.084343 0.423995
vt 0.086588 0.423781
vt 0.086588 0.423781
vt 0.084343 0.423995
vt 0.084644 0.433443
vt 0.084622 0.428677
vt 0.084622 0.428677
vt 0.084644 0.433443
vt 0.086588 0.428591
vt 0.086588 0.428591
vt 0.082391 0.437167
vt 0.082699 0.433485
vt 0.082391 0.437167
vt 0.084644 0.433443
vt 0.084622 0.428677
vt 0.082655 0.428762
vt 0.189230 0.664796
vt 0.189269 0.663767
vt 0.189288 0.663025
vt 0.188850 0.662998
vt 0.080612 0.433530
vt 0.080678 0.428848
vt 0.088541 0.433443
vt 0.088527 0.428675
vt 0.088713 0.437298
vt 0.086588 0.423781
vt 0.086588 0.428591
vt 0.092573 0.433530
vt 0.092495 0.428846
vt 0.092489 0.424344
vt 0.090494 0.433485
vt 0.090837 0.437164
vt 0.078701 0.428934
vt 0.078525 0.433575
vt 0.079016 0.424503
vt 0.080557 0.424356
vt 0.080417 0.437043
vt 0.078442 0.436919
vt 0.189160 0.665779
vt 0.080417 0.437043
vt 0.079016 0.424503
vt 0.082391 0.437167
vt 0.080417 0.437043
vt 0.080557 0.424356
vt 0.082098 0.424209
vt 0.084490 0.437299
vt 0.082098 0.424209
vt 0.084343 0.423995
vt 0.084490 0.437299
vt 0.188412 0.662970
vt 0.187946 0.662941
vt 0.086588 0.433401
vt 0.088703 0.423983
vt 0.086588 0.437431
vt 0.086588 0.437431
vt 0.086588 0.433401
vt 0.187481 0.662912
vt 0.187009 0.662941
vt 0.086588 0.433401
vt 0.084490 0.437299
vt 0.086588 0.437431
vt 0.187946 0.662941
vt 0.187481 0.662912
vt 0.088703 0.423983
vt 0.090817 0.424184
vt 0.090465 0.428759
vt 0.187009 0.662941
vt 0.186538 0.662971
vt 0.090465 0.428759
vt 0.090465 0.428759
vt 0.092786 0.437042
vt 0.090817 0.424184
vt 0.092786 0.437042
vt 0.186538 0.662971
vt 0.186106 0.662998
vt 0.094161 0.424503
vt 0.094525 0.428934
vt 0.092786 0.437042
vt 0.094652 0.433575
vt 0.094735 0.436919
vt 0.185673 0.663025
vt 0.186106 0.662998
vt 0.185801 0.665779
vt 0.094161 0.424503
vt 0.194644 0.666619
vt 0.199784 0.666311
vt 0.199784 0.669860
vt 0.197539 0.670074
vt 0.195294 0.670288
vt 0.193825 0.667953
vt 0.204925 0.666619
vt 0.205541 0.667623
vt 0.204013 0.670263
vt 0.201899 0.670061
vt 0.207357 0.670581
vt 0.205685 0.670422
vt 0.193753 0.670435
vt 0.192212 0.670581
vt 0.094161 0.424503
vt 0.188621 0.666658
vt 0.084343 0.423995
vt 0.086588 0.423781
vt 0.186340 0.666658
vt 0.187481 0.666727
vt 0.079016 0.424503
vt 0.185801 0.665779
vt 0.186204 0.666436
vn -0.0663 -0.1018 -0.9926
vn 0.0663 -0.1018 -0.9926
vn 0.0455 0.0883 -0.9951
vn 0.0744 0.0527 -0.9958
vn 0.0943 -0.0068 -0.9955
vn -0.0455 0.0883 -0.9951
vn -0.0744 0.0527 -0.9958
vn -0.0943 -0.0068 -0.9955
vn 0.0379 0.0658 -0.9971
vn -0.0114 0.0545 -0.9985
vn -0.0809 -0.0340 -0.9961
vn 0.0226 -0.0702 -0.9973
vn 0.0114 0.0545 -0.9985
vn -0.0226 -0.0702 -0.9973
vn 0.0809 -0.0340 -0.9961
vn -0.0793 -0.0288 -0.9964
vn 0.1106 0.0231 -0.9936
vn -0.0379 0.0658 -0.9971
vn -0.1106 0.0231 -0.9936
vn -0.2303 -0.9731 0.0000
vn -0.9988 0.0491 0.0081
vn -0.5247 0.8513 0.0000
vn -0.7734 -0.6339 0.0000
vn 0.9988 0.0492 0.0000
vn -0.9959 -0.0900 0.0077
vn -0.1275 0.9918 0.0000
vn -0.9998 0.0192 0.0097
vn 0.9978 -0.0656 -0.0042
vn -0.4705 -0.8824 0.0000
vn -0.9522 0.3055 -0.0001
vn 0.9831 -0.1772 0.0468
vn 0.5084 -0.8522 0.1231
vn -0.7734 0.6339 0.0000
vn 0.9582 -0.2824 0.0457
vn -0.9968 0.0800 0.0000
vn 0.9968 -0.0800 0.0000
vn 0.9487 0.3155 0.0190
vn 0.7734 -0.6339 0.0000
vn -0.4705 0.8824 0.0000
vn 0.9542 -0.2966 0.0399
vn -0.9881 -0.1538 0.0000
vn 0.9859 -0.1620 0.0411
vn 0.4705 -0.8824 0.0000
vn -0.9522 -0.3055 0.0000
vn 0.5247 0.8513 0.0000
vn -0.9968 -0.0800 0.0000
vn -0.0407 -0.0668 0.9969
vn 0.0152 -0.0571 0.9983
vn 0.2412 -0.0290 0.9701
vn -0.0274 0.0767 0.9967
vn -0.0152 -0.0571 0.9983
vn 0.0861 0.2112 0.9736
vn -0.0836 0.0361 0.9959
vn -0.2066 0.0118 0.9784
vn -0.1707 -0.0671 0.9830
vn 0.0407 -0.0668 0.9969
vn 0.1187 -0.0256 0.9926
vn 0.1322 -0.0034 0.9912
vn 0.4705 0.8824 0.0000
vn -0.9881 0.1538 -0.0001
vn -0.5247 -0.8513 0.0000
vn -0.9881 -0.1538 -0.0001
vn 0.9971 0.0761 -0.0053
vn 0.7734 0.6339 0.0000
vn 0.9901 0.1361 0.0339
vn 0.1238 0.0002 -0.9923
vn -0.1238 0.0002 -0.9923
vn 0.2303 -0.9731 0.0000
vn 0.9881 0.1538 0.0000
vn 0.1170 0.9931 0.0000
vn 0.9881 -0.1538 0.0000
vn -0.1170 0.9931 0.0000
vn -0.9881 0.1538 0.0000
vn -0.1514 -0.9885 0.0000
vn 0.1323 0.0341 0.9906
vn 0.1375 0.9905 0.0000
vn 0.1514 -0.9885 0.0000
vn -0.1375 0.9905 0.0000
vn -0.1323 0.0341 0.9906
vn 0.0793 -0.0288 -0.9964
vn 0.1275 0.9918 0.0000
vn -0.9845 0.1755 -0.0012
vn -0.9879 0.1534 -0.0217
vn 0.9881 -0.1538 0.0001
vn -0.1275 -0.9918 0.0000
vn -0.9980 -0.0189 -0.0611
vn 0.9964 -0.0512 -0.0672
vn -0.9979 -0.0651 0.0000
vn 0.9938 0.0185 0.1099
vn -0.9988 -0.0492 0.0000
vn -0.9890 -0.1395 -0.0487
vn -0.4723 0.8766 -0.0923
vn 0.9959 0.0900 -0.0064
vn 0.9988 -0.0491 -0.0091
vn 0.9998 -0.0193 -0.0109
vn -0.9935 0.0462 0.1041
vn 0.9845 -0.1753 0.0015
vn 0.9878 -0.1534 0.0280
vn -0.9978 0.0656 0.0048
vn -0.0970 0.0057 0.9953
vn -0.0243 -0.0309 0.9992
vn -0.1185 0.0918 0.9887
vn 0.9845 0.1755 0.0000
vn -0.9491 -0.3139 -0.0277
vn -0.9970 -0.0764 0.0080
vn 0.9968 0.0795 -0.0056
vn -0.0119 0.1213 0.9925
vn -0.0782 -0.0434 0.9960
vn -0.0529 -0.0075 0.9986
vn -0.9845 -0.1755 0.0000
vn 0.9979 0.0651 0.0000
vn 0.9992 0.0394 0.0000
vn -0.9968 -0.0793 0.0067
vn -0.0562 0.1082 0.9925
vn -0.0744 0.0200 0.9970
vn -0.0834 -0.0643 0.9944
vn -0.9992 -0.0394 0.0000
vn 0.9968 0.0707 0.0365
vn 0.9971 0.0076 0.0751
vn 0.0731 0.0133 0.9972
vn 0.0432 -0.0680 0.9968
vn 0.0768 0.1175 0.9901
vn 0.1275 -0.9918 0.0000
vn -0.9993 -0.0060 0.0378
vn -0.9883 -0.0306 0.1492
vn 0.9995 -0.0321 0.0001
vn -0.0304 -0.0661 0.9973
vn -0.0566 0.0139 0.9983
vn -0.0727 0.1165 0.9905
vn 0.9997 0.0081 -0.0247
vn 0.9949 0.0320 -0.0956
vn -0.9974 -0.0716 -0.0089
vn -0.9985 -0.0046 -0.0541
vn 0.0629 0.1060 0.9924
vn 0.0197 -0.0796 0.9966
vn 0.0362 0.0420 0.9985
vn 0.9986 -0.0482 -0.0201
vn 0.9953 -0.0958 -0.0159
vn -0.9995 0.0321 -0.0001
vn 0.1256 -0.0102 0.9920
vn 0.0205 0.1121 0.9935
vn 0.2076 -0.0628 0.9762
vn -0.9986 0.0484 0.0228
vn -0.9953 0.0956 0.0180
vn 0.9984 -0.0514 -0.0219
vn 0.0207 0.0053 0.9998
vn 0.0084 0.0565 0.9984
vn 0.1061 -0.0361 0.9937
vn 0.9522 -0.3055 0.0001
vn -0.9986 0.0508 0.0172
vn -0.0470 -0.0905 0.9948
vn 0.0468 -0.0907 0.9948
vn 0.0518 -0.0879 0.9948
vn -0.0518 -0.0879 0.9948
usemtl basematerial
s off
f 15/1/1 22/2/1 21/3/1 20/4/1
f 24/5/2 23/6/2 22/2/2 15/1/2
f 17/7/3 16/8/3 13/9/3 18/10/3
f 16/8/4 25/11/4 14/12/4 13/9/4
f 25/11/5 24/5/5 15/1/5 14/12/5
f 18/10/6 13/9/6 26/13/6 19/14/6
f 13/9/7 14/12/7 27/15/7 26/13/7
f 14/12/8 15/1/8 20/4/8 27/15/8
f 17/16/9 1/17/9 9/18/9 16/19/9
f 19/20/10 2/21/10 5/22/10 18/23/10
f 21/24/11 4/25/11 12/26/11 20/27/11
f 23/28/12 3/29/12 6/30/12 22/31/12
f 18/23/13 5/22/13 1/17/13 17/16/13
f 22/31/14 6/30/14 4/25/14 21/24/14
f 24/32/15 7/33/15 3/29/15 23/28/15
f 96/34/16 98/35/16 80/36/16 79/37/16
f 16/19/17 9/18/17 8/38/17 25/39/17
f 26/40/18 10/41/18 2/21/18 19/20/18
f 27/42/19 11/43/19 10/41/19 26/40/19
f 88/44/20 87/45/20 81/46/20 85/47/20
f 120/48/21 119/49/21 171/50/21 172/51/21
f 106/52/22 113/53/22 137/54/22 136/55/22
f 43/56/23 107/57/23 189/58/23 197/59/23
f 105/60/24 104/61/24 135/62/24 134/63/24
f 116/64/25 115/65/25 139/66/25 140/67/25
f 124/68/26 103/69/26 200/70/26 199/71/26
f 117/72/27 120/48/27 172/51/27 169/73/27
f 100/74/28 99/75/28 167/76/28 168/77/28
f 28/78/29 32/79/29 69/80/29 68/81/29
f 54/82/30 53/83/30 65/84/30 66/85/30
f 38/86/31 39/87/31 71/88/31 78/89/31
f 50/90/32 113/53/32 106/52/32 111/91/32 49/92/32 61/93/32 62/94/32
f 33/95/22 30/96/22 74/97/22 73/98/22
f 53/83/33 101/99/33 46/100/33 58/101/33 65/84/33
f 37/102/34 38/86/34 78/89/34 77/103/34
f 48/104/35 47/105/35 59/106/35 60/107/35
f 39/87/36 31/108/36 72/109/36 71/88/36
f 43/56/37 52/110/37 64/111/37 55/112/37
f 29/113/38 37/102/38 77/103/38 70/114/38
f 46/100/39 45/115/39 57/116/39 58/101/39
f 10/41/40 11/43/40 38/86/40 37/102/40
f 9/18/23 1/17/23 28/78/23 36/117/23
f 7/33/41 8/38/41 35/118/41 34/119/41
f 1/17/29 5/22/29 32/79/29 28/78/29
f 11/43/42 12/26/42 39/87/42 38/86/42
f 5/22/43 2/21/43 29/113/43 32/79/43
f 8/38/44 9/18/44 36/117/44 35/118/44
f 4/25/45 6/30/45 33/95/45 31/108/45
f 12/26/36 4/25/36 31/108/36 39/87/36
f 2/21/38 10/41/38 37/102/38 29/113/38
f 3/29/46 7/33/46 34/119/46 30/96/46
f 6/30/22 3/29/22 30/96/22 33/95/22
f 56/120/47 55/112/47 67/121/47 68/81/47
f 58/101/48 57/116/48 69/80/48 70/114/48
f 60/107/49 59/106/49 71/88/49 72/109/49
f 62/94/50 61/93/50 73/98/50 74/97/50
f 57/116/51 56/120/51 68/81/51 69/80/51
f 61/93/52 60/107/52 72/109/52 73/98/52
f 63/122/53 62/94/53 74/97/53 75/123/53
f 64/111/54 63/122/54 75/123/54 76/124/54
f 55/112/55 64/111/55 76/124/55 67/121/55
f 65/84/56 58/101/56 70/114/56 77/103/56
f 66/85/57 65/84/57 77/103/57 78/89/57
f 59/106/58 66/85/58 78/89/58 71/88/58
f 45/115/59 44/125/59 56/120/59 57/116/59
f 47/105/60 54/82/60 66/85/60 59/106/60
f 31/108/45 33/95/45 73/98/45 72/109/45
f 49/92/61 117/126/61 99/127/61 121/128/61 48/104/61 60/107/61 61/93/61
f 30/96/46 34/119/46 75/123/46 74/97/46
f 34/119/62 35/118/62 76/124/62 75/123/62
f 51/129/63 50/90/63 62/94/63 63/122/63
f 36/117/23 28/78/23 68/81/23 67/121/23
f 44/125/64 107/57/64 43/56/64 55/112/64 56/120/64
f 35/118/44 36/117/44 67/121/44 76/124/44
f 52/110/65 51/129/65 63/122/65 64/111/65
f 32/79/43 29/113/43 70/114/43 69/80/43
f 80/130/66 84/131/66 83/132/66 79/133/66
f 82/134/67 86/135/67 85/47/67 81/46/67
f 92/136/68 91/137/68 84/131/68 80/130/68
f 93/138/69 92/139/69 80/140/69 79/141/69
f 89/142/70 90/143/70 86/135/70 82/134/70
f 90/143/71 88/44/71 85/47/71 86/135/71
f 94/144/72 93/145/72 79/133/72 83/132/72
f 91/137/41 94/144/41 83/132/41 84/131/41
f 12/146/71 11/147/71 88/44/71 90/143/71
f 20/148/70 12/146/70 90/143/70 89/142/70
f 11/147/20 27/149/20 87/45/20 88/44/20
f 27/149/73 20/148/73 89/142/73 87/45/73
f 8/150/41 7/151/41 94/144/41 91/137/41
f 7/151/72 24/152/72 93/145/72 94/144/72
f 24/152/69 25/153/69 92/136/69 93/145/69
f 25/153/68 8/150/68 91/137/68 92/136/68
f 81/154/74 87/155/74 97/156/74 98/35/74
f 97/156/75 95/157/75 93/158/75 92/159/75
f 95/157/76 96/34/76 79/37/76 93/158/76
f 98/35/77 97/156/77 92/159/77 80/36/77
f 89/160/78 82/161/78 96/34/78 95/157/78
f 87/155/79 89/160/79 95/157/79 97/156/79
f 82/161/80 81/154/80 98/35/80 96/34/80
f 108/162/81 114/163/81 196/164/81 202/165/81
f 122/166/82 123/167/82 187/168/82 186/169/82
f 123/167/83 124/68/83 188/170/83 187/168/83
f 54/82/84 47/105/84 181/171/84 184/172/84
f 103/69/26 118/173/26 198/174/26 200/70/26
f 112/175/85 40/176/85 159/177/85 164/178/85
f 109/179/86 110/180/86 162/181/86 161/182/86
f 40/176/87 41/183/87 160/184/87 159/177/87
f 106/185/88 104/61/88 142/186/88 146/187/88
f 110/180/89 109/179/89 141/188/89 143/189/89
f 104/61/90 105/60/90 144/190/90 142/186/90
f 51/129/91 52/110/91 128/191/91 127/192/91
f 113/53/92 50/90/92 126/193/92 125/194/92
f 115/65/93 116/64/93 132/195/93 131/196/93
f 119/49/94 120/48/94 156/197/94 155/198/94
f 120/48/95 117/72/95 149/199/95 156/197/95
f 41/183/96 40/176/96 152/200/96 153/201/96
f 123/167/97 122/166/97 175/202/97 177/203/97
f 124/68/98 123/167/98 177/203/98 179/204/98
f 99/75/99 100/74/99 176/205/99 174/206/99
f 128/207/100 131/196/100 132/195/100 127/208/100
f 129/209/101 130/210/101 131/196/101 128/207/101
f 127/208/102 132/195/102 125/211/102 126/212/102
f 114/163/103 115/65/103 131/196/103 130/210/103
f 52/110/104 43/56/104 129/213/104 128/191/104
f 50/90/105 51/129/105 127/192/105 126/193/105
f 116/64/106 113/214/106 125/211/106 132/195/106
f 43/215/85 114/163/85 130/210/85 129/209/85
f 140/67/107 135/62/107 136/216/107 137/217/107
f 138/218/108 133/219/108 134/63/108 139/66/108
f 139/66/109 134/63/109 135/62/109 140/67/109
f 115/65/110 114/163/110 138/218/110 139/66/110
f 104/61/111 106/185/111 136/216/111 135/62/111
f 114/163/85 108/162/85 133/219/85 138/218/85
f 108/162/112 105/60/112 134/63/112 133/219/112
f 113/214/113 116/64/113 140/67/113 137/217/113
f 146/187/114 142/186/114 141/188/114 145/220/114
f 142/186/115 144/190/115 143/189/115 141/188/115
f 144/190/116 148/221/116 147/222/116 143/189/116
f 105/60/117 108/162/117 148/221/117 144/190/117
f 112/175/118 110/180/118 143/189/118 147/222/118
f 108/162/85 112/175/85 147/222/85 148/221/85
f 109/179/119 111/223/119 145/220/119 141/188/119
f 111/91/22 106/52/22 146/224/22 145/225/22
f 153/201/120 155/198/120 156/197/120 151/226/120
f 152/200/121 154/227/121 155/198/121 153/201/121
f 151/226/122 156/197/122 149/199/122 150/228/122
f 40/176/123 118/173/123 154/227/123 152/200/123
f 49/229/124 42/230/124 151/226/124 150/228/124
f 42/230/125 41/183/125 153/201/125 151/226/125
f 118/173/126 119/49/126 155/198/126 154/227/126
f 117/126/45 49/92/45 150/231/45 149/232/45
f 162/181/127 164/178/127 159/177/127 160/184/127
f 161/182/128 162/181/128 160/184/128 157/233/128
f 163/234/129 161/182/129 157/233/129 158/235/129
f 42/230/130 49/229/130 158/235/130 157/233/130
f 41/183/131 42/230/131 157/233/131 160/184/131
f 110/180/132 112/175/132 164/178/132 162/181/132
f 111/223/133 109/179/133 161/182/133 163/234/133
f 49/92/22 111/91/22 163/236/22 158/237/22
f 172/51/134 168/77/134 167/76/134 169/73/134
f 170/238/135 166/239/135 165/240/135 171/50/135
f 171/50/136 165/240/136 168/77/136 172/51/136
f 99/127/45 117/126/45 169/241/45 167/242/45
f 102/243/137 100/74/137 168/77/137 165/240/137
f 103/69/138 102/243/138 165/240/138 166/239/138
f 119/49/139 118/173/139 170/238/139 171/50/139
f 118/173/123 103/69/123 166/239/123 170/238/123
f 176/205/140 178/244/140 177/203/140 175/202/140
f 174/206/141 176/205/141 175/202/141 173/245/141
f 178/244/142 180/246/142 179/204/142 177/203/142
f 100/74/143 102/243/143 178/244/143 176/205/143
f 102/243/144 103/69/144 180/246/144 178/244/144
f 103/69/123 124/68/123 179/204/123 180/246/123
f 122/166/145 121/247/145 173/245/145 175/202/145
f 121/128/45 99/127/45 174/248/45 173/249/45
f 187/168/146 188/170/146 183/250/146 184/251/146
f 185/252/147 186/169/147 181/253/147 182/254/147
f 186/169/148 187/168/148 184/251/148 181/253/148
f 47/105/36 48/104/36 182/255/36 181/171/36
f 48/104/45 121/128/45 185/256/45 182/255/45
f 53/83/149 54/82/149 184/172/149 183/257/149
f 121/247/150 122/166/150 186/169/150 185/252/150
f 124/68/123 53/258/123 183/250/123 188/170/123
f 190/259/151 191/260/151 195/261/151 201/262/151 202/263/151 189/264/151
f 191/260/152 192/265/152 193/266/152 200/267/152 198/268/152 195/261/152
f 200/267/153 193/266/153 194/269/153 199/270/153
f 189/264/154 202/263/154 196/271/154 197/272/154
f 53/258/26 124/68/26 199/71/26 194/273/26
f 107/57/23 44/125/23 190/274/23 189/58/23
f 112/175/81 108/162/81 202/165/81 201/275/81
f 40/176/81 112/175/81 201/275/81 195/276/81
f 45/115/43 46/100/43 192/277/43 191/278/43
f 114/163/81 43/215/81 197/279/81 196/164/81
f 101/99/38 53/83/38 194/280/38 193/281/38
f 46/100/38 101/99/38 193/281/38 192/277/38
f 44/125/29 45/115/29 191/278/29 190/274/29
f 118/173/26 40/176/26 195/276/26 198/174/26
