# Blender v2.81 (sub 16) OBJ File: 'assets.blend'
# www.blender.org
mtllib stone-type-006.mtl
o stone-type-004-rndm.002
v 0.105692 -0.000198 0.055389
v 0.216676 0.126533 -0.025584
v 0.121914 0.154776 0.144773
v -0.071278 0.087728 0.119494
v -0.066784 0.001345 -0.057132
v 0.114756 0.038236 -0.151897
v 0.101025 0.248080 0.048071
v -0.049870 0.277520 0.117724
v -0.170215 0.142302 0.009317
v -0.056536 0.132373 -0.167361
v 0.108070 0.253565 -0.168141
v -0.064990 0.284043 0.036069
vt 0.422185 0.975562
vt 0.422622 0.974805
vt 0.421748 0.974805
vt 0.423060 0.975562
vt 0.423497 0.974805
vt 0.425684 0.975562
vt 0.426121 0.974805
vt 0.425246 0.974805
vt 0.424809 0.975562
vt 0.424372 0.974805
vt 0.423934 0.975562
vt 0.423060 0.974047
vt 0.422185 0.974047
vt 0.425684 0.974047
vt 0.424809 0.974047
vt 0.423934 0.974047
vt 0.421310 0.974047
vt 0.422622 0.973290
vt 0.421748 0.973290
vt 0.425246 0.973290
vt 0.424372 0.973290
vt 0.423497 0.973290
vn 0.7848 -0.3692 0.4978
vn 0.7174 -0.6899 -0.0966
vn 0.0620 -0.5035 0.8618
vn -0.2792 -0.8654 0.4161
vn 0.1066 -0.9785 -0.1768
vn 0.7856 -0.0223 -0.6183
vn 0.7755 0.5297 0.3436
vn -0.1382 0.0248 0.9901
vn -0.6954 -0.6524 0.3014
vn -0.2667 -0.6081 -0.7477
vn 0.7362 0.6755 0.0411
vn 0.4074 0.6996 0.5870
vn -0.7192 0.0876 0.6892
vn -0.7960 -0.3520 -0.4924
vn 0.0495 -0.0736 -0.9961
vn 0.2094 0.9773 0.0316
vn 0.2088 0.9772 0.0394
vn -0.8049 0.5609 0.1938
vn -0.6679 0.5831 -0.4625
vn -0.5046 0.6820 -0.5294
usemtl basematerial
s off
f 1/1/1 2/2/1 3/3/1
f 2/2/2 1/4/2 6/5/2
f 1/6/3 3/7/3 4/8/3
f 1/9/4 4/8/4 5/10/4
f 1/11/5 5/10/5 6/5/5
f 2/2/6 6/5/6 11/12/6
f 3/3/7 2/2/7 7/13/7
f 4/8/8 3/7/8 8/14/8
f 5/10/9 4/8/9 9/15/9
f 6/5/10 5/10/10 10/16/10
f 2/2/11 11/12/11 7/13/11
f 3/3/12 7/13/12 8/17/12
f 4/8/13 8/14/13 9/15/13
f 5/10/14 9/15/14 10/16/14
f 6/5/15 10/16/15 11/12/15
f 7/13/16 11/12/16 12/18/16
f 8/17/17 7/13/17 12/19/17
f 9/15/18 8/14/18 12/20/18
f 10/16/19 9/15/19 12/21/19
f 11/12/20 10/16/20 12/22/20
