# Blender v2.81 (sub 16) OBJ File: 'assets.blend'
# www.blender.org
mtllib tinybridge.mtl
o tinybridge
v -1.546490 0.517619 0.405636
v -1.303491 0.512367 0.402334
v -1.546490 0.517619 -0.405636
v -1.301273 0.507504 -0.388302
v -1.161751 0.516243 0.396535
v -0.887031 0.481111 0.389961
v -1.224363 0.490412 -0.378772
v -0.959200 0.472195 -0.401123
v -0.814702 0.483656 0.405954
v -0.556569 0.472011 0.387849
v -0.827153 0.491722 -0.395038
v -0.568268 0.474974 -0.405715
v -0.451834 0.474136 0.374945
v -0.221614 0.461708 0.405636
v -0.469079 0.478761 -0.405636
v -0.240142 0.460967 -0.373807
v -0.111471 0.462621 0.405314
v 0.140454 0.438427 0.387724
v -0.119241 0.467492 -0.390316
v 0.139778 0.448760 -0.406938
v 0.299587 0.450408 0.413357
v 0.545501 0.436028 0.390299
v 0.218346 0.447328 -0.392174
v 0.460004 0.440223 -0.416445
v 0.619485 0.431612 0.405502
v 0.863010 0.420669 0.409858
v 0.620294 0.432056 -0.405769
v 0.867578 0.420087 -0.405529
v 0.960863 0.418507 0.413183
v 1.214946 0.417596 0.404935
v 0.967734 0.416682 -0.405636
v 1.193948 0.405998 -0.373122
v 1.293716 0.415920 0.403135
v 1.542553 0.405105 0.405636
v 1.280814 0.400767 -0.384059
v 1.542553 0.405105 -0.405636
v -1.546186 0.563154 -0.405636
v -1.546186 0.563154 0.405636
v -1.303485 0.558170 0.402116
v -1.301263 0.551929 -0.386130
v -1.167547 0.564904 0.393607
v -1.227001 0.534522 -0.376107
v -0.889281 0.526591 0.389624
v -0.959345 0.515337 -0.399467
v -0.816182 0.529168 0.405718
v -0.829471 0.536808 -0.393602
v -0.559361 0.517311 0.389942
v -0.569743 0.520344 -0.405950
v -0.453485 0.519355 0.378414
v -0.468775 0.524186 -0.405636
v -0.221310 0.507243 0.405636
v -0.242197 0.506144 -0.369757
v -0.108268 0.508044 0.405662
v -0.116576 0.512840 -0.389045
v 0.142069 0.497066 0.384864
v 0.143457 0.493770 -0.406796
v 0.301597 0.496403 0.412949
v 0.220898 0.492347 -0.392386
v 0.547505 0.481520 0.390323
v 0.462008 0.485715 -0.416421
v 0.621687 0.477096 0.405529
v 0.622495 0.477539 -0.405742
v 0.861750 0.478247 0.403463
v 0.869779 0.465570 -0.405502
v 0.960103 0.463250 0.414882
v 0.968038 0.462217 -0.405636
v 1.215093 0.464268 0.404625
v 1.191531 0.450383 -0.368979
v 1.293450 0.465579 0.402009
v 1.278599 0.445237 -0.380224
v 1.542857 0.450641 0.405636
v 1.542857 0.450641 -0.405636
v -1.553592 0.463463 0.405636
v 1.528040 0.358736 0.405636
v -1.436935 0.461797 -0.403059
v 1.411036 0.359517 -0.405636
v -1.553288 0.508999 0.405636
v -1.436941 0.506542 -0.400757
v 1.528344 0.404271 0.405636
v 1.411047 0.404929 -0.405190
v 1.447669 0.443849 -0.405020
v 1.444974 0.011501 -0.405020
v 1.444974 0.011501 0.300425
v 1.447669 0.443849 0.300425
v 1.476843 0.011288 0.313626
v 1.479538 0.443636 0.313626
v 1.490043 0.011200 0.345496
v 1.492739 0.443548 0.345496
v 1.476843 0.011288 0.377366
v 1.479538 0.443636 0.377366
v 1.444974 0.011501 0.390567
v 1.447669 0.443849 0.390567
v 1.413105 0.011714 0.377366
v 1.415800 0.444062 0.377366
v 1.399904 0.011802 0.345496
v 1.402599 0.444150 0.345496
v 1.413105 0.011714 0.313626
v 1.415800 0.444062 0.313626
v 1.476843 0.011288 -0.391820
v 1.479538 0.443636 -0.391820
v 1.490043 0.011200 -0.359950
v 1.492739 0.443548 -0.359950
v 1.476843 0.011288 -0.328080
v 1.479538 0.443636 -0.328080
v 1.444974 0.011501 -0.314879
v 1.447669 0.443849 -0.314879
v 1.413105 0.011714 -0.328080
v 1.415792 0.444059 -0.328068
v 1.399904 0.011802 -0.359950
v 1.401757 0.443794 -0.358667
v 1.413105 0.011714 -0.391820
v 1.415416 0.443900 -0.391235
v -1.477397 0.517778 -0.403703
v -1.480648 0.005081 -0.405020
v -1.480648 0.005081 0.300425
v -1.477220 0.518230 0.300425
v -1.448779 0.004868 0.313626
v -1.445351 0.518018 0.313626
v -1.435578 0.004780 0.345496
v -1.432150 0.517929 0.345496
v -1.448779 0.004868 0.377366
v -1.445351 0.518018 0.377366
v -1.480648 0.005081 0.390567
v -1.477220 0.518230 0.390567
v -1.512517 0.005294 0.377366
v -1.509089 0.518443 0.377366
v -1.525717 0.005382 0.345496
v -1.522289 0.518532 0.345496
v -1.512517 0.005294 0.313626
v -1.509089 0.518443 0.313626
v -1.448779 0.004868 -0.391820
v -1.445910 0.516591 -0.387664
v -1.435578 0.004780 -0.359950
v -1.432803 0.516266 -0.355104
v -1.448779 0.004868 -0.328080
v -1.445663 0.517222 -0.325763
v -1.480648 0.005081 -0.314879
v -1.477248 0.518159 -0.314670
v -1.512517 0.005294 -0.328080
v -1.509089 0.518443 -0.328080
v -1.525717 0.005382 -0.359950
v -1.522289 0.518532 -0.359950
v -1.512517 0.005294 -0.391820
v -1.509090 0.518440 -0.391809
vt 0.477903 0.415896
vt 0.477903 0.429085
vt 0.491093 0.429085
vt 0.491093 0.415896
vt 0.534564 0.426051
vt 0.534564 0.437532
vt 0.546046 0.437532
vt 0.546046 0.426051
vt 0.477903 0.415896
vt 0.477903 0.429085
vt 0.491093 0.429085
vt 0.491093 0.415896
vt 0.534564 0.426051
vt 0.534564 0.437532
vt 0.546046 0.437532
vt 0.546046 0.426051
vt 0.477903 0.415896
vt 0.477903 0.429085
vt 0.491093 0.429085
vt 0.491093 0.415896
vt 0.534564 0.426051
vt 0.534564 0.437532
vt 0.546046 0.437532
vt 0.546046 0.426051
vt 0.477903 0.415896
vt 0.477903 0.429085
vt 0.491093 0.429085
vt 0.491093 0.415896
vt 0.534564 0.426051
vt 0.534564 0.437532
vt 0.546046 0.437532
vt 0.546046 0.426051
vt 0.477903 0.415896
vt 0.477903 0.429085
vt 0.491093 0.429085
vt 0.491093 0.415896
vt 0.477903 0.415896
vt 0.491093 0.415896
vt 0.491093 0.429085
vt 0.477903 0.429085
vt 0.534564 0.426051
vt 0.546046 0.426051
vt 0.546046 0.437532
vt 0.534564 0.437532
vt 0.477903 0.415896
vt 0.491093 0.415896
vt 0.491093 0.429085
vt 0.477903 0.429085
vt 0.534564 0.426051
vt 0.546046 0.426051
vt 0.546046 0.437532
vt 0.534564 0.437532
vt 0.477903 0.415896
vt 0.491093 0.415896
vt 0.491093 0.429085
vt 0.477903 0.429085
vt 0.534564 0.426051
vt 0.546046 0.426051
vt 0.546046 0.437532
vt 0.534564 0.437532
vt 0.477903 0.415896
vt 0.491093 0.415896
vt 0.491093 0.429085
vt 0.477903 0.429085
vt 0.534564 0.426051
vt 0.546046 0.426051
vt 0.546046 0.437532
vt 0.534564 0.437532
vt 0.477903 0.415896
vt 0.491093 0.415896
vt 0.491093 0.429085
vt 0.477903 0.429085
vt 0.414409 0.417510
vt 0.414409 0.439872
vt 0.436772 0.439872
vt 0.436772 0.417510
vt 0.414409 0.417510
vt 0.436772 0.417510
vt 0.436772 0.439872
vt 0.414409 0.439872
vt 0.423150 0.427998
vt 0.417990 0.430135
vt 0.412831 0.427998
vt 0.410694 0.422838
vt 0.412831 0.417679
vt 0.417990 0.415542
vt 0.423150 0.417679
vt 0.425287 0.422838
vt 0.440791 0.430439
vt 0.440791 0.445639
vt 0.436991 0.445639
vt 0.436991 0.430439
vt 0.421790 0.430439
vt 0.421790 0.445639
vt 0.417990 0.445639
vt 0.417990 0.430439
vt 0.433191 0.445639
vt 0.433191 0.430439
vt 0.425591 0.430439
vt 0.425591 0.445639
vt 0.429391 0.445639
vt 0.429391 0.430439
vt 0.429391 0.430439
vt 0.429391 0.445639
vt 0.425591 0.445639
vt 0.425591 0.430439
vt 0.433191 0.430135
vt 0.438350 0.427998
vt 0.440487 0.422838
vt 0.438350 0.417679
vt 0.433191 0.415542
vt 0.428032 0.417679
vt 0.425895 0.422838
vt 0.428032 0.427998
vt 0.433191 0.430439
vt 0.433191 0.445639
vt 0.421790 0.445639
vt 0.421790 0.430439
vt 0.414190 0.430439
vt 0.414190 0.445639
vt 0.410390 0.445639
vt 0.410390 0.430439
vt 0.436991 0.430439
vt 0.436991 0.445639
vt 0.417990 0.445639
vt 0.417990 0.430439
vt 0.423150 0.427998
vt 0.417990 0.430135
vt 0.412831 0.427998
vt 0.410694 0.422838
vt 0.412831 0.417679
vt 0.417990 0.415542
vt 0.423150 0.417679
vt 0.425287 0.422838
vt 0.440791 0.430439
vt 0.440791 0.445639
vt 0.414190 0.445639
vt 0.414190 0.430439
vt 0.410390 0.445639
vt 0.410390 0.430439
vt 0.433191 0.430135
vt 0.438350 0.427998
vt 0.440487 0.422838
vt 0.438350 0.417679
vt 0.433191 0.415542
vt 0.428032 0.417679
vt 0.425895 0.422838
vt 0.428032 0.427998
vt 0.423150 0.427998
vt 0.417990 0.430135
vt 0.412831 0.427998
vt 0.410694 0.422838
vt 0.412831 0.417679
vt 0.417990 0.415542
vt 0.423150 0.417679
vt 0.425287 0.422838
vt 0.440791 0.430439
vt 0.440791 0.445639
vt 0.436991 0.445639
vt 0.436991 0.430439
vt 0.421790 0.430439
vt 0.421790 0.445639
vt 0.417990 0.445639
vt 0.417990 0.430439
vt 0.433191 0.445639
vt 0.433191 0.430439
vt 0.425591 0.430439
vt 0.425591 0.445639
vt 0.429391 0.445639
vt 0.429391 0.430439
vt 0.429391 0.430439
vt 0.429391 0.445639
vt 0.425591 0.445639
vt 0.425591 0.430439
vt 0.433191 0.430135
vt 0.438350 0.427998
vt 0.440487 0.422838
vt 0.438350 0.417679
vt 0.433191 0.415542
vt 0.428032 0.417679
vt 0.425895 0.422838
vt 0.428032 0.427998
vt 0.433191 0.430439
vt 0.433191 0.445639
vt 0.421790 0.445639
vt 0.421790 0.430439
vt 0.414190 0.430439
vt 0.414190 0.445639
vt 0.410390 0.445639
vt 0.410390 0.430439
vt 0.436991 0.430439
vt 0.436991 0.445639
vt 0.417990 0.445639
vt 0.417990 0.430439
vt 0.423150 0.427998
vt 0.417990 0.430135
vt 0.412831 0.427998
vt 0.410694 0.422838
vt 0.412831 0.417679
vt 0.417990 0.415542
vt 0.423150 0.417679
vt 0.425287 0.422838
vt 0.440791 0.430439
vt 0.440791 0.445639
vt 0.414190 0.445639
vt 0.414190 0.430439
vt 0.410390 0.445639
vt 0.410390 0.430439
vt 0.433191 0.430135
vt 0.438350 0.427998
vt 0.440487 0.422838
vt 0.438350 0.417679
vt 0.433191 0.415542
vt 0.428032 0.417679
vt 0.425895 0.422838
vt 0.428032 0.427998
vn -0.0315 -0.9995 0.0030
vn -0.0967 -0.9949 0.0304
vn -0.0552 -0.9985 -0.0061
vn -0.0655 -0.9978 -0.0010
vn -0.0843 -0.9964 -0.0091
vn -0.0437 -0.9990 0.0038
vn -0.0466 -0.9989 -0.0001
vn -0.0246 -0.9997 0.0086
vn -0.0123 -0.9999 0.0096
vn 0.0333 0.9994 -0.0039
vn 0.1029 0.9941 -0.0351
vn 0.0551 0.9985 0.0059
vn 0.0655 0.9979 0.0009
vn 0.0588 0.9983 0.0007
vn 0.0437 0.9990 -0.0044
vn 0.0222 0.9997 -0.0074
vn 0.0231 0.9997 -0.0096
vn 0.0180 0.9998 -0.0129
vn -0.9997 -0.0156 0.0207
vn 0.9999 -0.0087 0.0078
vn -0.1263 -0.0398 0.9912
vn -1.0000 0.0067 0.0000
vn 0.0010 0.0005 -1.0000
vn 0.9995 0.0204 -0.0254
vn 0.0141 0.0023 0.9999
vn -0.9999 -0.0049 -0.0090
vn 0.1505 0.0470 -0.9875
vn 1.0000 -0.0002 0.0028
vn 0.0363 -0.0149 0.9992
vn -0.9979 0.0643 0.0105
vn 0.0760 0.0238 -0.9968
vn 0.9992 0.0261 -0.0291
vn 0.0776 0.0205 0.9968
vn -0.9926 -0.0900 0.0817
vn 0.1542 0.0491 -0.9868
vn 0.9987 -0.0510 0.0002
vn 0.0239 0.0367 0.9990
vn -0.9995 -0.0269 0.0183
vn -0.0646 0.0201 -0.9977
vn 0.9955 0.0282 -0.0900
vn -0.0117 0.0118 0.9999
vn -0.9937 0.0505 0.0997
vn -0.0821 0.0467 -0.9955
vn 1.0000 -0.0067 0.0000
vn 0.0925 0.0001 0.9957
vn -0.9990 -0.0421 0.0157
vn -0.0897 0.0405 -0.9951
vn 0.9935 -0.0437 -0.1055
vn 0.0649 -0.0174 0.9977
vn -0.0995 0.0029 -0.9950
vn 0.9988 0.0473 -0.0137
vn -0.9988 0.0483 -0.0010
vn -0.0436 0.0114 -0.9990
vn -0.0035 0.0617 0.9981
vn -0.0349 -0.9994 0.0006
vn 0.0348 0.9994 -0.0011
vn -0.9897 0.0069 -0.1428
vn 0.0000 0.0000 1.0000
vn 0.9897 -0.0027 -0.1430
vn -0.0001 0.0305 -0.9995
vn 0.0040 1.0000 -0.0006
vn 0.3827 -0.0024 -0.9239
vn -0.9167 0.0042 0.3996
vn 0.9239 -0.0058 -0.3827
vn -0.3825 0.0024 0.9240
vn 0.9239 -0.0058 0.3827
vn 0.3827 -0.0024 0.9239
vn -0.0067 -1.0000 0.0000
vn -0.3827 0.0024 0.9239
vn -0.3879 0.0029 -0.9217
vn -0.9239 0.0058 0.3827
vn 0.0067 1.0000 0.0000
vn -0.9239 0.0058 -0.3827
vn -0.9230 0.0053 -0.3847
vn -0.3827 0.0024 -0.9239
vn 0.0250 0.9997 -0.0047
vn 0.3827 -0.0026 -0.9239
vn -0.9239 0.0062 0.3827
vn 0.9239 -0.0062 -0.3827
vn -0.3854 0.0024 0.9227
vn 0.9239 -0.0062 0.3827
vn 0.3575 -0.0046 0.9339
vn 0.3827 -0.0026 0.9239
vn 0.9200 -0.0080 0.3918
vn -0.3827 0.0026 0.9239
vn -0.3672 0.0036 -0.9301
vn 0.9258 -0.0018 -0.3780
vn 0.4191 0.0023 -0.9079
vn -0.9239 0.0062 -0.3827
vn -0.9238 0.0062 -0.3827
vn -0.3827 0.0026 -0.9239
usemtl basematerial
s off
f 1/1/1 3/2/1 4/3/1 2/4/1
f 5/5/2 7/6/2 8/7/2 6/8/2
f 9/9/3 11/10/3 12/11/3 10/12/3
f 13/13/4 15/14/4 16/15/4 14/16/4
f 17/17/5 19/18/5 20/19/5 18/20/5
f 21/21/6 23/22/6 24/23/6 22/24/6
f 25/25/7 27/26/7 28/27/7 26/28/7
f 29/29/8 31/30/8 32/31/8 30/32/8
f 33/33/9 35/34/9 36/35/9 34/36/9
f 38/37/10 39/38/10 40/39/10 37/40/10
f 41/41/11 43/42/11 44/43/11 42/44/11
f 45/45/12 47/46/12 48/47/12 46/48/12
f 49/49/13 51/50/13 52/51/13 50/52/13
f 53/53/14 55/54/14 56/55/14 54/56/14
f 57/57/15 59/58/15 60/59/15 58/60/15
f 61/61/16 63/62/16 64/63/16 62/64/16
f 65/65/17 67/66/17 68/67/17 66/68/17
f 69/69/18 71/70/18 72/71/18 70/72/18
f 15/14/19 13/13/19 49/49/19 50/52/19
f 26/28/20 28/27/20 64/63/20 63/62/20
f 13/13/21 14/16/21 51/50/21 49/49/21
f 3/2/22 1/1/22 38/37/22 37/40/22
f 28/27/23 27/26/23 62/64/23 64/63/23
f 14/16/24 16/15/24 52/51/24 51/50/24
f 1/1/25 2/4/25 39/38/25 38/37/25
f 31/30/26 29/29/26 65/65/26 66/68/26
f 16/15/27 15/14/27 50/52/27 52/51/27
f 2/4/28 4/3/28 40/39/28 39/38/28
f 29/29/29 30/32/29 67/66/29 65/65/29
f 19/18/30 17/17/30 53/53/30 54/56/30
f 4/3/31 3/2/31 37/40/31 40/39/31
f 30/32/32 32/31/32 68/67/32 67/66/32
f 17/17/33 18/20/33 55/54/33 53/53/33
f 7/6/34 5/5/34 41/41/34 42/44/34
f 32/31/35 31/30/35 66/68/35 68/67/35
f 18/20/36 20/19/36 56/55/36 55/54/36
f 5/5/37 6/8/37 43/42/37 41/41/37
f 35/34/38 33/33/38 69/69/38 70/72/38
f 20/19/39 19/18/39 54/56/39 56/55/39
f 6/8/40 8/7/40 44/43/40 43/42/40
f 33/33/41 34/36/41 71/70/41 69/69/41
f 23/22/42 21/21/42 57/57/42 58/60/42
f 8/7/43 7/6/43 42/44/43 44/43/43
f 34/36/44 36/35/44 72/71/44 71/70/44
f 21/21/45 22/24/45 59/58/45 57/57/45
f 11/10/46 9/9/46 45/45/46 46/48/46
f 36/35/47 35/34/47 70/72/47 72/71/47
f 22/24/48 24/23/48 60/59/48 59/58/48
f 9/9/49 10/12/49 47/46/49 45/45/49
f 24/23/50 23/22/50 58/60/50 60/59/50
f 10/12/51 12/11/51 48/47/51 47/46/51
f 27/26/52 25/25/52 61/61/52 62/64/52
f 12/11/53 11/10/53 46/48/53 48/47/53
f 25/25/54 26/28/54 63/62/54 61/61/54
f 73/73/55 75/74/55 76/75/55 74/76/55
f 77/77/56 79/78/56 80/79/56 78/80/56
f 75/74/57 73/73/57 77/77/57 78/80/57
f 73/73/58 74/76/58 79/78/58 77/77/58
f 74/76/59 76/75/59 80/79/59 79/78/59
f 76/75/60 75/74/60 78/80/60 80/79/60
f 100/81/61 81/82/61 112/83/61 110/84/61 108/85/61 106/86/61 104/87/61 102/88/61
f 83/89/62 84/90/62 86/91/62 85/92/62
f 107/93/63 108/94/63 110/95/63 109/96/63
f 85/92/64 86/91/64 88/97/64 87/98/64
f 105/99/65 106/100/65 108/94/65 107/93/65
f 87/98/66 88/97/66 90/101/66 89/102/66
f 103/103/67 104/104/67 106/100/67 105/99/67
f 89/102/67 90/101/67 92/105/67 91/106/67
f 82/107/68 99/108/68 101/109/68 103/110/68 105/111/68 107/112/68 109/113/68 111/114/68
f 101/115/66 102/116/66 104/104/66 103/103/66
f 91/106/69 92/105/69 94/117/69 93/118/69
f 111/119/70 112/120/70 81/121/70 82/122/70
f 99/123/64 100/124/64 102/116/64 101/115/64
f 93/118/71 94/117/71 96/125/71 95/126/71
f 86/127/72 84/128/72 98/129/72 96/130/72 94/131/72 92/132/72 90/133/72 88/134/72
f 82/135/62 81/136/62 100/124/62 99/123/62
f 95/126/73 96/125/73 98/137/73 97/138/73
f 109/96/74 110/95/74 112/120/74 111/119/74
f 97/138/75 98/137/75 84/139/75 83/140/75
f 83/141/68 85/142/68 87/143/68 89/144/68 91/145/68 93/146/68 95/147/68 97/148/68
f 132/149/76 113/150/76 144/151/76 142/152/76 140/153/76 138/154/76 136/155/76 134/156/76
f 115/157/77 116/158/77 118/159/77 117/160/77
f 139/161/78 140/162/78 142/163/78 141/164/78
f 117/160/79 118/159/79 120/165/79 119/166/79
f 137/167/80 138/168/80 140/162/80 139/161/80
f 119/166/81 120/165/81 122/169/81 121/170/81
f 135/171/82 136/172/82 138/168/82 137/167/82
f 121/170/83 122/169/83 124/173/83 123/174/83
f 114/175/68 131/176/68 133/177/68 135/178/68 137/179/68 139/180/68 141/181/68 143/182/68
f 133/183/84 134/184/84 136/172/84 135/171/84
f 123/174/85 124/173/85 126/185/85 125/186/85
f 143/187/86 144/188/86 113/189/86 114/190/86
f 131/191/87 132/192/87 134/184/87 133/183/87
f 125/186/78 126/185/78 128/193/78 127/194/78
f 118/195/72 116/196/72 130/197/72 128/198/72 126/199/72 124/200/72 122/201/72 120/202/72
f 114/203/88 113/204/88 132/192/88 131/191/88
f 127/194/89 128/193/89 130/205/89 129/206/89
f 141/164/90 142/163/90 144/188/90 143/187/90
f 129/206/91 130/205/91 116/207/91 115/208/91
f 115/209/68 117/210/68 119/211/68 121/212/68 123/213/68 125/214/68 127/215/68 129/216/68
