# Blender v2.81 (sub 16) OBJ File: 'assets.blend'
# www.blender.org
mtllib tree-type-02.mtl
o tree-type-02
v -1.493451 4.587544 -0.528147
v 0.009170 4.539963 0.000695
v -2.024861 4.561594 -1.998486
v -0.562438 4.722041 -1.468825
v -0.911317 4.671641 -0.116325
v -1.222955 4.872229 -1.836568
v -1.892172 4.775551 -1.160404
v -0.154847 4.780923 -0.880647
v -1.059832 4.875525 -0.998486
v 0.679659 5.056973 -1.359700
v 2.279750 5.164520 -1.611246
v 1.388051 5.311049 -0.262716
v 0.197215 4.883937 -0.856852
v 1.864291 5.396928 -0.816967
v 1.355095 5.214296 -1.605486
v 0.772800 5.090380 0.034474
v 0.958560 5.393941 -0.811208
v 1.333557 4.995942 0.763607
v 1.639963 4.845418 2.300833
v 0.262654 4.841236 1.537546
v 0.826026 4.922623 0.261027
v 0.820367 4.921805 2.003860
v 1.590138 5.033009 1.447549
v -0.044109 4.796921 0.889871
v 0.766217 5.139322 1.150577
v -0.883457 4.675666 1.313452
v -2.394017 4.262657 1.478492
v -1.566527 4.576987 0.176163
v -0.349192 4.752847 0.840002
v -2.068784 4.504430 0.702905
v -1.577789 4.575360 1.520395
v -0.904203 4.672668 -0.084072
v -1.256880 4.847059 0.744807
v -0.802957 4.352486 -1.327868
v -0.129491 3.943074 -2.547873
v 0.507937 4.521911 -1.478200
v -0.613393 4.470436 -0.645444
v 0.284166 4.207596 -2.128574
v -0.658113 4.085813 -2.020515
v 0.451740 4.608098 -0.767592
v -0.179126 4.656052 -1.432078
v 1.464859 4.627359 -0.573205
v 2.826891 4.419020 0.189074
v 1.371981 4.628419 0.753867
v 0.750818 4.635506 -0.498179
v 2.090375 4.620223 0.616656
v 2.157136 4.619461 -0.337251
v 0.675352 4.636367 0.580099
v 1.420965 4.850899 0.090331
v 0.432289 4.524352 1.510074
v -0.370002 3.769643 2.719756
v -0.868072 4.364420 1.279356
v 0.420798 4.608973 0.797152
v -0.768116 4.096715 1.980025
v 0.166591 4.211675 2.145866
v -0.635777 4.479024 0.609688
v -0.249553 4.663552 1.421239
v -1.448159 4.240769 0.490546
v -2.667253 3.700016 -0.346712
v -1.287483 4.285658 -0.829271
v -0.757444 4.433737 0.455504
v -1.985726 4.090587 -0.732383
v -2.101220 4.058321 0.216309
v -0.626891 4.470210 -0.616879
v -1.427830 4.478013 -0.169362
v -2.247543 4.371543 1.129195
v -2.156956 4.438884 0.913171
v -1.833137 4.555020 0.999053
v 0.347037 4.424026 1.714076
v 0.254924 4.315626 1.934493
v 0.049009 4.570555 1.518686
v 1.547955 5.339884 -0.448813
v 1.210447 5.370356 -0.653173
v 1.608151 4.965188 1.756040
v 1.620130 4.920090 1.961179
v 1.258910 4.947239 1.860045
v 0.534511 4.880509 1.764851
v 0.405482 4.861870 1.656968
v 0.585747 4.994398 1.425859
v 2.525673 4.501307 0.363945
v 2.367181 4.544604 0.455957
v 2.177070 4.601767 0.292605
v 1.677690 4.624931 0.695478
v 1.467137 4.627334 0.735693
v 1.304987 4.727974 0.437845
v 0.464300 4.460617 -1.605028
v 0.291663 4.590811 -1.213001
v -0.482620 4.038426 -2.195587
v -0.385482 4.012197 -2.292494
v -0.244757 4.284516 -1.884046
v 1.679918 5.196810 -1.607509
v 1.866895 5.186745 -1.608674
v 1.483470 5.298764 -1.238567
v -0.352167 4.752418 -1.165392
v -0.434755 4.740487 -1.284570
v -0.594667 4.792699 -1.118239
v -1.925734 4.721433 -1.372387
v -1.907513 4.750813 -1.257303
v -1.655441 4.808213 -1.323537
v -2.277999 3.923090 -0.566988
v -2.195967 3.970101 -0.613409
v -1.923957 4.146115 -0.389312
v -0.506080 4.730183 0.979032
v -0.637055 4.711262 1.095098
v -0.807412 4.762223 0.944378
v -0.277197 -0.005298 0.277197
v 0.277197 -0.005298 0.277197
v -0.277197 -0.005298 -0.277197
v 0.277197 -0.005298 -0.277197
v 0.092444 0.929066 0.194998
v 0.482441 0.929066 0.194998
v 0.092444 0.929066 -0.194998
v 0.482441 0.929066 -0.194998
v 0.447826 2.190104 0.145024
v 0.737874 2.190104 0.145024
v 0.447826 2.190104 -0.145024
v 0.737874 2.190104 -0.145024
v 0.232308 3.245009 0.144960
v 0.522228 3.245009 0.144960
v 0.232308 3.245009 -0.144960
v 0.522228 3.245009 -0.144960
v -0.082253 4.190787 0.136149
v 0.190044 4.190787 0.136149
v -0.082253 4.190787 -0.136149
v 0.190044 4.190787 -0.136149
v -0.201334 4.609241 0.096525
v -0.008284 4.609241 0.096525
v -0.201334 4.609241 -0.096525
v -0.008284 4.609241 -0.096525
vt 0.135704 0.490699
vt 0.143874 0.490699
vt 0.143874 0.494654
vt 0.140943 0.493240
vt 0.143874 0.496310
vt 0.143874 0.498869
vt 0.135704 0.498869
vt 0.127534 0.490699
vt 0.127534 0.498869
vt 0.127534 0.492765
vt 0.130292 0.492799
vt 0.127534 0.491643
vt 0.127534 0.482529
vt 0.135704 0.482529
vt 0.143874 0.482529
vt 0.135704 0.490699
vt 0.143874 0.490699
vt 0.143874 0.498869
vt 0.137645 0.493779
vt 0.141131 0.498869
vt 0.135704 0.498869
vt 0.127534 0.490699
vt 0.127534 0.498869
vt 0.127534 0.495221
vt 0.131345 0.493502
vt 0.127534 0.493569
vt 0.127534 0.482529
vt 0.135704 0.482529
vt 0.135704 0.490699
vt 0.143874 0.490699
vt 0.143874 0.498869
vt 0.141782 0.498869
vt 0.138309 0.494550
vt 0.139892 0.498869
vt 0.135704 0.498869
vt 0.127534 0.490699
vt 0.127534 0.498869
vt 0.127534 0.495617
vt 0.131147 0.495913
vt 0.127534 0.493653
vt 0.127534 0.482529
vt 0.135704 0.482529
vt 0.135704 0.490699
vt 0.143874 0.490699
vt 0.143874 0.498869
vt 0.135704 0.498869
vt 0.127534 0.490699
vt 0.133489 0.498869
vt 0.132768 0.495347
vt 0.131213 0.498869
vt 0.127534 0.498869
vt 0.127534 0.482529
vt 0.131302 0.482529
vt 0.133564 0.485480
vt 0.133305 0.482529
vt 0.135704 0.482529
vt 0.135704 0.490699
vt 0.143874 0.490699
vt 0.143874 0.498869
vt 0.141282 0.493356
vt 0.142281 0.498869
vt 0.135704 0.498869
vt 0.127534 0.490699
vt 0.127534 0.498869
vt 0.127534 0.494913
vt 0.132031 0.493182
vt 0.127534 0.493411
vt 0.127534 0.482529
vt 0.135704 0.482529
vt 0.135704 0.490699
vt 0.143874 0.490699
vt 0.143874 0.498869
vt 0.142792 0.498869
vt 0.139744 0.493697
vt 0.140397 0.498869
vt 0.135704 0.498869
vt 0.127534 0.490699
vt 0.132633 0.498869
vt 0.132514 0.496432
vt 0.130875 0.498869
vt 0.127534 0.498869
vt 0.127534 0.482529
vt 0.135704 0.482529
vt 0.135704 0.490699
vt 0.143874 0.490699
vt 0.143874 0.498869
vt 0.135704 0.498869
vt 0.127534 0.490699
vt 0.127534 0.498869
vt 0.127534 0.482529
vt 0.135704 0.482529
vt 0.127534 0.487983
vt 0.132492 0.488148
vt 0.127534 0.485150
vt 0.135704 0.490699
vt 0.143874 0.490699
vt 0.143874 0.498869
vt 0.135704 0.498869
vt 0.127534 0.490699
vt 0.133184 0.498869
vt 0.133546 0.495371
vt 0.132200 0.498869
vt 0.127534 0.498869
vt 0.127534 0.482529
vt 0.135704 0.482529
vt 0.080895 0.432457
vt 0.080895 0.426918
vt 0.075355 0.426918
vt 0.075355 0.432457
vt 0.075355 0.426918
vt 0.080895 0.426918
vt 0.080895 0.426918
vt 0.075355 0.426918
vt 0.075355 0.432457
vt 0.080895 0.432457
vt 0.075355 0.432457
vt 0.075355 0.426918
vt 0.075355 0.432457
vt 0.080895 0.432457
vt 0.080895 0.426918
vt 0.080895 0.426918
vt 0.075355 0.426918
vt 0.080895 0.432457
vt 0.080895 0.432457
vt 0.075355 0.432457
vt 0.075355 0.432457
vt 0.080895 0.432457
vt 0.075355 0.426918
vt 0.080895 0.426918
vn 0.1912 0.9747 -0.1158
vn -0.2258 0.9706 -0.0830
vn -0.2510 0.9112 0.3265
vn 0.0908 0.9693 0.2284
vn -0.1083 0.9669 0.2309
vn 0.0219 0.9706 -0.2398
vn -0.4359 0.8486 -0.2997
vn -0.5678 0.8031 0.1807
vn -0.3857 0.9022 0.1930
vn 0.0259 0.9728 0.2303
vn 0.1284 0.9764 -0.1735
vn -0.3213 0.9098 -0.2627
vn -0.3106 0.9130 -0.2645
vn -0.3765 0.9147 0.1471
vn 0.0133 0.9597 0.2806
vn 0.1382 0.9761 -0.1677
vn 0.1784 0.9395 -0.2925
vn -0.1642 0.8261 -0.5390
vn -0.4565 0.8606 -0.2259
vn -0.1168 0.9886 0.0954
vn -0.0024 0.9473 0.3204
vn 0.2929 0.9559 0.0197
vn 0.0470 0.9476 -0.3161
vn -0.2141 0.9767 -0.0158
vn -0.4631 0.8643 0.1964
vn -0.1968 0.8160 0.5435
vn 0.1556 0.9453 0.2868
vn -0.1031 0.9891 -0.1048
vn -0.2301 0.9201 -0.3171
vn -0.5280 0.8485 -0.0351
vn -0.3069 0.8986 0.3136
vn -0.0464 0.9985 0.0283
vn 0.0000 -1.0000 0.0000
vn 0.0000 0.0396 -0.9992
vn 0.0000 0.0876 -0.9962
vn 0.0000 0.0876 0.9962
vn 0.9767 -0.2145 0.0000
vn -0.9299 0.3679 0.0000
vn 0.9797 0.2003 0.0000
vn 0.0000 0.0396 0.9992
vn 0.9801 -0.1985 0.0000
vn -0.9625 0.2713 0.0000
vn 0.0000 0.0093 -1.0000
vn -0.9798 -0.2002 0.0000
vn 0.0000 0.0001 -1.0000
vn 0.0000 0.0001 1.0000
vn 0.0000 0.0943 0.9955
vn 0.0000 0.0093 1.0000
vn 0.9435 0.3314 0.0000
vn -0.9489 -0.3156 0.0000
vn 0.0000 1.0000 0.0000
vn 0.9036 0.4283 0.0000
vn -0.9618 -0.2737 0.0000
vn 0.0000 0.0943 -0.9955
usemtl basematerial
s off
f 9/1/1 8/2/1 94/3/1 96/4/1 95/5/1 4/6/1 6/7/1
f 7/8/2 9/1/2 6/7/2 3/9/2 97/10/2 99/11/2 98/12/2
f 1/13/3 5/14/3 9/1/3 7/8/3
f 5/14/4 2/15/4 8/2/4 9/1/4
f 17/16/5 16/17/5 12/18/5 73/19/5 72/20/5 14/21/5
f 15/22/6 17/16/6 14/21/6 11/23/6 92/24/6 93/25/6 91/26/6
f 10/27/7 13/28/7 17/16/7 15/22/7
f 13/28/8 2/15/8 16/17/8 17/16/8
f 25/29/9 24/30/9 20/31/9 78/32/9 79/33/9 77/34/9 22/35/9
f 23/36/10 25/29/10 22/35/10 19/37/10 75/38/10 76/39/10 74/40/10
f 18/41/11 21/42/11 25/29/11 23/36/11
f 21/42/12 2/15/12 24/30/12 25/29/12
f 33/43/13 32/44/13 28/45/13 30/46/13
f 31/47/14 33/43/14 30/46/14 67/48/14 68/49/14 66/50/14 27/51/14
f 26/52/15 104/53/15 105/54/15 103/55/15 29/56/15 33/43/15 31/47/15
f 29/56/16 2/15/16 32/44/16 33/43/16
f 41/57/17 40/58/17 36/59/17 87/60/17 86/61/17 38/62/17
f 39/63/18 41/57/18 38/62/18 35/64/18 89/65/18 90/66/18 88/67/18
f 34/68/19 37/69/19 41/57/19 39/63/19
f 37/69/20 2/15/20 40/58/20 41/57/20
f 49/70/21 48/71/21 44/72/21 84/73/21 85/74/21 83/75/21 46/76/21
f 47/77/22 49/70/22 46/76/22 81/78/22 82/79/22 80/80/22 43/81/22
f 42/82/23 45/83/23 49/70/23 47/77/23
f 45/83/24 2/15/24 48/71/24 49/70/24
f 57/84/25 56/85/25 52/86/25 54/87/25
f 55/88/26 57/84/26 54/87/26 51/89/26
f 50/90/27 53/91/27 57/84/27 55/88/27 70/92/27 71/93/27 69/94/27
f 53/91/28 2/15/28 56/85/28 57/84/28
f 65/95/29 64/96/29 60/97/29 62/98/29
f 63/99/30 65/95/30 62/98/30 101/100/30 102/101/30 100/102/30 59/103/30
f 58/104/31 61/105/31 65/95/31 63/99/31
f 61/105/32 2/15/32 64/96/32 65/95/32
f 106/106/33 108/107/33 109/108/33 107/109/33
f 113/110/34 112/111/34 116/112/34 117/113/34
f 109/108/35 108/107/35 112/111/35 113/110/35
f 106/106/36 107/109/36 111/114/36 110/115/36
f 107/109/37 109/108/37 113/110/37 111/114/37
f 108/107/38 106/106/38 110/115/38 112/111/38
f 115/116/39 117/113/39 121/117/39 119/118/39
f 110/115/40 111/114/40 115/116/40 114/119/40
f 111/114/41 113/110/41 117/113/41 115/116/41
f 112/111/42 110/115/42 114/119/42 116/112/42
f 121/117/43 120/120/43 124/121/43 125/122/43
f 116/112/44 114/119/44 118/123/44 120/120/44
f 117/113/45 116/112/45 120/120/45 121/117/45
f 114/119/46 115/116/46 119/118/46 118/123/46
f 122/124/47 123/125/47 127/126/47 126/127/47
f 118/123/48 119/118/48 123/125/48 122/124/48
f 119/118/49 121/117/49 125/122/49 123/125/49
f 120/120/50 118/123/50 122/124/50 124/121/50
f 126/127/51 127/126/51 129/128/51 128/129/51
f 123/125/52 125/122/52 129/128/52 127/126/52
f 124/121/53 122/124/53 126/127/53 128/129/53
f 125/122/54 124/121/54 128/129/54 129/128/54
