# Blender v2.81 (sub 16) OBJ File: 'assets.blend'
# www.blender.org
mtllib tree-type-01.mtl
o tree-type-01
v -0.833495 3.798841 -0.390200
v 0.036989 3.583843 0.001599
v -1.095815 3.856016 -1.335099
v -0.210844 3.733644 -0.942031
v -0.485841 3.758768 -0.107297
v -0.563844 3.882370 -1.197733
v -1.011409 3.929234 -0.801073
v 0.020078 3.705793 -0.555673
v -0.500305 3.863126 -0.664883
v 0.591890 3.712934 -0.819888
v 1.582171 3.549895 -0.912458
v 1.018297 3.728332 -0.099744
v 0.249404 3.703313 -0.525441
v 1.343018 3.702106 -0.427710
v 1.036515 3.691038 -0.945354
v 0.595869 3.715824 0.059694
v 0.798914 3.818621 -0.460447
v 0.884321 3.603741 0.538962
v 0.976110 3.501726 1.514833
v 0.180951 3.678523 0.980251
v 0.587202 3.638581 0.202183
v 0.511030 3.640179 1.296353
v 1.016616 3.586426 0.979152
v 0.015697 3.699342 0.560740
v 0.554501 3.738015 0.760839
v -0.527962 3.757826 0.791689
v -1.517660 3.780829 0.830054
v -0.908640 3.804396 0.049019
v -0.173417 3.720458 0.516691
v -1.245347 3.839581 0.358819
v -0.971713 3.806107 0.892654
v -0.482727 3.758297 -0.086747
v -0.696436 3.877994 0.421586
v -0.429627 3.609752 -0.867367
v -0.050838 3.349335 -1.611115
v 0.394452 3.510383 -0.907272
v -0.322447 3.635132 -0.429897
v 0.228950 3.406975 -1.328221
v -0.363402 3.478402 -1.299537
v 0.347136 3.554392 -0.462321
v 0.005302 3.656106 -0.904336
v 0.950340 3.430890 -0.299412
v 1.696908 3.166793 0.231507
v 0.839522 3.444331 0.530207
v 0.520404 3.527206 -0.280840
v 1.274652 3.347385 0.472760
v 1.354307 3.337723 -0.123574
v 0.430362 3.538127 0.393244
v 0.937873 3.530973 0.118036
v 0.225003 3.523314 0.966198
v -0.446824 3.311390 1.685056
v -0.575115 3.625038 0.767355
v 0.263533 3.559866 0.519023
v -0.594069 3.500055 1.208301
v -0.018940 3.426935 1.351230
v -0.386582 3.642519 0.357458
v -0.154451 3.670389 0.884656
v -0.913177 3.647967 0.247357
v -1.709994 3.578710 -0.333434
v -0.753460 3.645021 -0.574464
v -0.461550 3.639206 0.255245
v -1.212571 3.653919 -0.543842
v -1.327376 3.656037 0.046887
v -0.331776 3.636812 -0.412504
v -0.829424 3.744540 -0.163517
v -1.395020 3.807290 0.617826
v -1.319173 3.823653 0.486573
v -1.106938 3.830402 0.554809
v 0.146731 3.492390 1.089740
v 0.062161 3.458977 1.223224
v 0.003312 3.592566 0.956762
v 1.127327 3.719527 -0.209863
v 0.939045 3.776070 -0.351377
v 1.001972 3.555804 1.172819
v 0.992234 3.535442 1.301602
v 0.784809 3.593745 1.223919
v 0.341848 3.659832 1.134335
v 0.265483 3.668703 1.061204
v 0.407859 3.700783 0.924816
v 1.524215 3.240651 0.330174
v 1.433349 3.279512 0.382089
v 1.336732 3.328134 0.272540
v 1.024690 3.403076 0.505760
v 0.897158 3.431490 0.522597
v 0.830993 3.494649 0.330207
v 0.362178 3.490218 -0.989361
v 0.266462 3.567634 -0.748631
v -0.259637 3.435554 -1.402975
v -0.202201 3.411837 -1.460230
v -0.084233 3.508233 -1.195006
v 1.228198 3.641456 -0.933798
v 1.338538 3.612915 -0.927146
v 1.113918 3.710088 -0.708839
v -0.091715 3.719276 -0.742714
v -0.138505 3.724919 -0.820999
v -0.231664 3.767763 -0.722371
v -1.032758 3.910715 -0.936149
v -1.021168 3.920769 -0.862817
v -0.856541 3.912063 -0.893648
v -1.425891 3.621666 -0.453609
v -1.366019 3.630718 -0.478934
v -1.179502 3.669455 -0.325303
v -0.277530 3.731432 0.597444
v -0.364446 3.740592 0.664860
v -0.450891 3.784049 0.563964
v -0.208551 0.000000 0.208551
v 0.208551 0.000000 0.208551
v -0.208551 0.000000 -0.208551
v 0.208551 0.000000 -0.208551
v -0.083756 0.727856 0.146708
v 0.209660 0.727856 0.146708
v -0.083756 0.727856 -0.146708
v 0.209660 0.727856 -0.146708
v -0.164584 1.710185 0.109109
v 0.053635 1.710185 0.109109
v -0.164584 1.710185 -0.109109
v 0.053635 1.710185 -0.109109
v -0.142268 2.531942 0.109062
v 0.075855 2.531942 0.109062
v -0.142268 2.531942 -0.109062
v 0.075855 2.531942 -0.109062
v -0.061884 3.268689 0.102432
v 0.142981 3.268689 0.102432
v -0.061884 3.268689 -0.102432
v 0.142981 3.268689 -0.102432
v -0.020783 3.594659 0.072621
v 0.124459 3.594659 0.072621
v -0.020783 3.594659 -0.072621
v 0.124459 3.594659 -0.072621
vt 0.135704 0.490699
vt 0.143874 0.490699
vt 0.143874 0.494654
vt 0.140943 0.493240
vt 0.143874 0.496310
vt 0.143874 0.498869
vt 0.135704 0.498869
vt 0.127534 0.490699
vt 0.127534 0.498869
vt 0.127534 0.492765
vt 0.130292 0.492799
vt 0.127534 0.491643
vt 0.127534 0.482529
vt 0.135704 0.482529
vt 0.143874 0.482529
vt 0.135704 0.490699
vt 0.143874 0.490699
vt 0.143874 0.498869
vt 0.137645 0.493779
vt 0.141131 0.498869
vt 0.135704 0.498869
vt 0.127534 0.490699
vt 0.127534 0.498869
vt 0.127534 0.495221
vt 0.131345 0.493502
vt 0.127534 0.493569
vt 0.127534 0.482529
vt 0.135704 0.482529
vt 0.135704 0.490699
vt 0.143874 0.490699
vt 0.143874 0.498869
vt 0.141782 0.498869
vt 0.138309 0.494550
vt 0.139892 0.498869
vt 0.135704 0.498869
vt 0.127534 0.490699
vt 0.127534 0.498869
vt 0.127534 0.495617
vt 0.131147 0.495913
vt 0.127534 0.493653
vt 0.127534 0.482529
vt 0.135704 0.482529
vt 0.135704 0.490699
vt 0.143874 0.490699
vt 0.143874 0.498869
vt 0.135704 0.498869
vt 0.127534 0.490699
vt 0.133489 0.498869
vt 0.132768 0.495347
vt 0.131213 0.498869
vt 0.127534 0.498869
vt 0.127534 0.482529
vt 0.131302 0.482529
vt 0.133564 0.485480
vt 0.133305 0.482529
vt 0.135704 0.482529
vt 0.135704 0.490699
vt 0.143874 0.490699
vt 0.143874 0.498869
vt 0.141282 0.493356
vt 0.142281 0.498869
vt 0.135704 0.498869
vt 0.127534 0.490699
vt 0.127534 0.498869
vt 0.127534 0.494913
vt 0.132031 0.493182
vt 0.127534 0.493411
vt 0.127534 0.482529
vt 0.135704 0.482529
vt 0.135704 0.490699
vt 0.143874 0.490699
vt 0.143874 0.498869
vt 0.142792 0.498869
vt 0.139744 0.493697
vt 0.140397 0.498869
vt 0.135704 0.498869
vt 0.127534 0.490699
vt 0.132633 0.498869
vt 0.132514 0.496432
vt 0.130875 0.498869
vt 0.127534 0.498869
vt 0.127534 0.482529
vt 0.135704 0.482529
vt 0.135704 0.490699
vt 0.143874 0.490699
vt 0.143874 0.498869
vt 0.135704 0.498869
vt 0.127534 0.490699
vt 0.127534 0.498869
vt 0.127534 0.482529
vt 0.135704 0.482529
vt 0.127534 0.487983
vt 0.132492 0.488148
vt 0.127534 0.485150
vt 0.135704 0.490699
vt 0.143874 0.490699
vt 0.143874 0.498869
vt 0.135704 0.498869
vt 0.127534 0.490699
vt 0.133184 0.498869
vt 0.133546 0.495371
vt 0.132200 0.498869
vt 0.127534 0.498869
vt 0.127534 0.482529
vt 0.135704 0.482529
vt 0.080895 0.432457
vt 0.080895 0.426918
vt 0.075355 0.426918
vt 0.075355 0.432457
vt 0.075355 0.426918
vt 0.080895 0.426918
vt 0.080895 0.426918
vt 0.075355 0.426918
vt 0.075355 0.432457
vt 0.080895 0.432457
vt 0.075355 0.432457
vt 0.075355 0.426918
vt 0.075355 0.432457
vt 0.080895 0.432457
vt 0.080895 0.426918
vt 0.080895 0.426918
vt 0.075355 0.426918
vt 0.080895 0.432457
vt 0.080895 0.432457
vt 0.075355 0.432457
vt 0.075355 0.432457
vt 0.080895 0.432457
vt 0.075355 0.426918
vt 0.080895 0.426918
vn 0.3559 0.9323 -0.0639
vn 0.0538 0.9970 -0.0558
vn 0.0058 0.9721 0.2345
vn 0.2630 0.9469 0.1848
vn 0.1192 0.9778 0.1723
vn 0.2353 0.9586 -0.1604
vn -0.1047 0.9688 -0.2246
vn -0.2284 0.9668 0.1146
vn -0.0808 0.9882 0.1304
vn 0.2156 0.9595 0.1811
vn 0.3113 0.9441 -0.1087
vn -0.0145 0.9818 -0.1895
vn -0.0065 0.9817 -0.1902
vn -0.0695 0.9927 0.0981
vn 0.2026 0.9547 0.2178
vn 0.3183 0.9423 -0.1041
vn 0.3531 0.9141 -0.1994
vn 0.0934 0.9095 -0.4051
vn -0.1188 0.9781 -0.1707
vn 0.1229 0.9896 0.0746
vn 0.1877 0.9507 0.2469
vn 0.4275 0.9030 0.0425
vn 0.2552 0.9419 -0.2182
vn 0.0596 0.9982 -0.0082
vn -0.1420 0.9813 0.1297
vn 0.0131 0.9106 0.4132
vn 0.3069 0.9222 0.2354
vn 0.1420 0.9877 -0.0660
vn 0.0526 0.9727 -0.2259
vn -0.1781 0.9833 -0.0379
vn -0.0345 0.9744 0.2220
vn 0.1766 0.9838 0.0308
vn 0.0000 -1.0000 0.0000
vn 0.0000 0.0382 -0.9993
vn 0.0000 0.0847 -0.9964
vn 0.0000 0.0847 0.9964
vn 1.0000 -0.0015 0.0000
vn -0.9856 0.1690 0.0000
vn 0.9996 -0.0270 0.0000
vn 0.0000 0.0382 0.9993
vn 0.9876 0.1569 0.0000
vn -0.9966 -0.0820 0.0000
vn 0.0000 0.0090 -1.0000
vn -0.9996 0.0271 0.0000
vn 0.0000 0.0001 -1.0000
vn 0.0000 0.0001 1.0000
vn 0.0000 0.0911 0.9958
vn 0.0000 0.0090 1.0000
vn 0.9959 -0.0907 0.0000
vn -0.9941 0.1085 0.0000
vn 0.0000 1.0000 0.0000
vn 0.9984 0.0567 0.0000
vn -0.9921 0.1251 0.0000
vn 0.0000 0.0911 -0.9958
usemtl basematerial
s off
f 9/1/1 8/2/1 94/3/1 96/4/1 95/5/1 4/6/1 6/7/1
f 7/8/2 9/1/2 6/7/2 3/9/2 97/10/2 99/11/2 98/12/2
f 1/13/3 5/14/3 9/1/3 7/8/3
f 5/14/4 2/15/4 8/2/4 9/1/4
f 17/16/5 16/17/5 12/18/5 73/19/5 72/20/5 14/21/5
f 15/22/6 17/16/6 14/21/6 11/23/6 92/24/6 93/25/6 91/26/6
f 10/27/7 13/28/7 17/16/7 15/22/7
f 13/28/8 2/15/8 16/17/8 17/16/8
f 25/29/9 24/30/9 20/31/9 78/32/9 79/33/9 77/34/9 22/35/9
f 23/36/10 25/29/10 22/35/10 19/37/10 75/38/10 76/39/10 74/40/10
f 18/41/11 21/42/11 25/29/11 23/36/11
f 21/42/12 2/15/12 24/30/12 25/29/12
f 33/43/13 32/44/13 28/45/13 30/46/13
f 31/47/14 33/43/14 30/46/14 67/48/14 68/49/14 66/50/14 27/51/14
f 26/52/15 104/53/15 105/54/15 103/55/15 29/56/15 33/43/15 31/47/15
f 29/56/16 2/15/16 32/44/16 33/43/16
f 41/57/17 40/58/17 36/59/17 87/60/17 86/61/17 38/62/17
f 39/63/18 41/57/18 38/62/18 35/64/18 89/65/18 90/66/18 88/67/18
f 34/68/19 37/69/19 41/57/19 39/63/19
f 37/69/20 2/15/20 40/58/20 41/57/20
f 49/70/21 48/71/21 44/72/21 84/73/21 85/74/21 83/75/21 46/76/21
f 47/77/22 49/70/22 46/76/22 81/78/22 82/79/22 80/80/22 43/81/22
f 42/82/23 45/83/23 49/70/23 47/77/23
f 45/83/24 2/15/24 48/71/24 49/70/24
f 57/84/25 56/85/25 52/86/25 54/87/25
f 55/88/26 57/84/26 54/87/26 51/89/26
f 50/90/27 53/91/27 57/84/27 55/88/27 70/92/27 71/93/27 69/94/27
f 53/91/28 2/15/28 56/85/28 57/84/28
f 65/95/29 64/96/29 60/97/29 62/98/29
f 63/99/30 65/95/30 62/98/30 101/100/30 102/101/30 100/102/30 59/103/30
f 58/104/31 61/105/31 65/95/31 63/99/31
f 61/105/32 2/15/32 64/96/32 65/95/32
f 106/106/33 108/107/33 109/108/33 107/109/33
f 113/110/34 112/111/34 116/112/34 117/113/34
f 109/108/35 108/107/35 112/111/35 113/110/35
f 106/106/36 107/109/36 111/114/36 110/115/36
f 107/109/37 109/108/37 113/110/37 111/114/37
f 108/107/38 106/106/38 110/115/38 112/111/38
f 115/116/39 117/113/39 121/117/39 119/118/39
f 110/115/40 111/114/40 115/116/40 114/119/40
f 111/114/41 113/110/41 117/113/41 115/116/41
f 112/111/42 110/115/42 114/119/42 116/112/42
f 121/117/43 120/120/43 124/121/43 125/122/43
f 116/112/44 114/119/44 118/123/44 120/120/44
f 117/113/45 116/112/45 120/120/45 121/117/45
f 114/119/46 115/116/46 119/118/46 118/123/46
f 122/124/47 123/125/47 127/126/47 126/127/47
f 118/123/48 119/118/48 123/125/48 122/124/48
f 119/118/49 121/117/49 125/122/49 123/125/49
f 120/120/50 118/123/50 122/124/50 124/121/50
f 126/127/51 127/126/51 129/128/51 128/129/51
f 123/125/52 125/122/52 129/128/52 127/126/52
f 124/121/53 122/124/53 126/127/53 128/129/53
f 125/122/54 124/121/54 128/129/54 129/128/54
