# Blender v2.81 (sub 16) OBJ File: 'assets.blend'
# www.blender.org
mtllib wood-block-07.mtl
o wood-block-07
v 0.518482 0.169009 -0.220959
v 0.023735 0.166892 -0.196246
v -0.688710 0.106271 -0.177955
v 0.766064 0.235707 -0.199807
v -0.686408 0.042310 -0.148865
v 0.770491 0.143565 -0.158734
v -0.683705 0.018944 -0.053844
v 0.779303 0.087628 -0.060615
v -0.682249 0.045183 0.079007
v 0.785843 0.104467 0.036245
v -0.670767 0.235534 0.128917
v 0.787766 0.180440 0.075929
v -0.607839 0.358438 0.066967
v 0.785843 0.266203 0.036245
v -0.677836 0.331596 -0.061713
v 0.779304 0.316372 -0.060627
v -0.687253 0.211991 -0.146773
v 0.770491 0.305301 -0.158734
v 0.517447 0.056767 -0.165123
v 0.022538 0.064600 -0.152565
v 0.515960 0.001055 -0.052612
v 0.020646 0.006190 -0.046111
v 0.513886 0.020804 0.056664
v 0.020175 0.036415 0.060109
v 0.513070 0.112792 0.095289
v 0.021374 0.141391 0.151011
v 0.516101 0.255482 0.022535
v 0.027084 0.287238 0.056717
v 0.519622 0.343369 -0.109039
v 0.026784 0.322678 -0.048259
v 0.519663 0.291446 -0.199253
v 0.025060 0.269335 -0.152855
vt 0.317413 0.951256
vt 0.284445 0.951860
vt 0.283992 0.927134
vt 0.316960 0.926530
vt 0.363428 0.876210
vt 0.316054 0.877078
vt 0.315601 0.852352
vt 0.362975 0.851484
vt 0.284898 0.976586
vt 0.266337 0.976926
vt 0.265884 0.952200
vt 0.365240 0.975114
vt 0.317866 0.975982
vt 0.364787 0.950388
vt 0.282633 0.852956
vt 0.282180 0.828230
vt 0.315148 0.827626
vt 0.265431 0.927474
vt 0.283539 0.902408
vt 0.316507 0.901804
vt 0.362522 0.826758
vt 0.264978 0.902748
vt 0.364334 0.925662
vt 0.363881 0.900936
vt 0.281727 0.803504
vt 0.314695 0.802900
vt 0.264525 0.878022
vt 0.283086 0.877682
vt 0.362069 0.802032
vt 0.264072 0.853296
vt 0.281274 0.778778
vt 0.314242 0.778174
vt 0.263619 0.828570
vt 0.310250 0.741205
vt 0.281004 0.753319
vt 0.251758 0.741205
vt 0.239644 0.711958
vt 0.251758 0.682712
vt 0.281004 0.670598
vt 0.310250 0.682712
vt 0.322364 0.711958
vt 0.361616 0.777306
vt 0.263166 0.803844
vt 0.262713 0.779118
vt 0.387254 0.764407
vt 0.419956 0.750862
vt 0.433502 0.718159
vt 0.419956 0.685457
vt 0.387254 0.671911
vt 0.354552 0.685457
vt 0.341006 0.718159
vt 0.354552 0.750862
vn -0.0205 -0.8865 -0.4623
vn 0.0535 0.4916 0.8692
vn 0.1775 -0.4192 -0.8904
vn 0.0092 -0.4009 -0.9161
vn 0.0547 0.8851 0.4622
vn 0.2818 -0.8436 -0.4570
vn -0.0182 -0.9740 0.2257
vn 0.0596 0.9980 0.0188
vn 0.3069 -0.9382 0.1599
vn -0.0131 -0.9731 0.2299
vn -0.0893 0.8766 -0.4729
vn 0.1802 -0.4166 0.8910
vn 0.0255 -0.5493 0.8352
vn -0.0218 0.7394 -0.6729
vn -0.0542 0.4411 0.8958
vn -0.0337 -0.4290 0.9027
vn -0.0756 0.2780 -0.9576
vn -0.0344 0.8551 0.5172
vn 0.9969 -0.0000 -0.0785
vn -0.0440 0.3374 -0.9403
vn 0.0800 0.9442 -0.3196
vn 0.0073 -0.9266 -0.3761
vn 0.1095 0.4955 0.8617
vn 0.0676 0.3082 -0.9489
vn -0.9911 0.1032 0.0843
vn -0.0366 -0.4202 -0.9067
usemtl Material.014
s off
f 20/1/1 19/2/1 21/3/1 22/4/1
f 11/5/2 26/6/2 28/7/2 13/8/2
f 1/9/3 4/10/3 6/11/3 19/2/3
f 3/12/4 2/13/4 20/1/4 5/14/4
f 28/7/5 27/15/5 29/16/5 30/17/5
f 19/2/6 6/11/6 8/18/6 21/3/6
f 22/4/7 21/3/7 23/19/7 24/20/7
f 13/8/8 28/7/8 30/17/8 15/21/8
f 21/3/9 8/18/9 10/22/9 23/19/9
f 7/23/10 22/4/10 24/20/10 9/24/10
f 30/17/11 29/16/11 31/25/11 32/26/11
f 23/19/12 10/22/12 12/27/12 25/28/12
f 24/20/13 23/19/13 25/28/13 26/6/13
f 15/21/14 30/17/14 32/26/14 17/29/14
f 25/28/15 12/27/15 14/30/15 27/15/15
f 9/24/16 24/20/16 26/6/16 11/5/16
f 32/26/17 31/25/17 1/31/17 2/32/17
f 27/15/18 14/30/18 16/33/18 29/16/18
f 6/34/19 4/35/19 18/36/19 16/37/19 14/38/19 12/39/19 10/40/19 8/41/19
f 17/29/20 32/26/20 2/32/20 3/42/20
f 29/16/21 16/33/21 18/43/21 31/25/21
f 5/14/22 20/1/22 22/4/22 7/23/22
f 26/6/23 25/28/23 27/15/23 28/7/23
f 31/25/24 18/43/24 4/44/24 1/31/24
f 3/45/25 5/46/25 7/47/25 9/48/25 11/49/25 13/50/25 15/51/25 17/52/25
f 2/13/26 1/9/26 19/2/26 20/1/26
