# Blender v2.81 (sub 16) OBJ File: 'assets.blend'
# www.blender.org
mtllib wood-block-08.mtl
o wood-block-08
v 0.986996 0.164979 -0.198415
v -0.073746 0.165082 -0.165595
v -1.602325 0.106271 -0.202945
v 1.519437 0.235707 -0.224797
v -1.597386 0.042310 -0.173855
v 1.528937 0.143565 -0.183723
v -1.591586 0.018944 -0.078833
v 1.547846 0.087628 -0.085604
v -1.588460 0.045183 0.054017
v 1.561882 0.104467 0.011255
v -1.617938 0.241348 0.094010
v 1.566008 0.180440 0.050940
v -1.636434 0.380746 0.003923
v 1.561882 0.266203 0.011255
v -1.626730 0.336724 -0.095452
v 1.547848 0.316372 -0.085616
v -1.599200 0.211991 -0.171763
v 1.528937 0.305301 -0.183723
v 0.985481 0.088448 -0.160345
v -0.075394 0.099457 -0.137572
v 0.983305 0.050462 -0.083631
v -0.077999 0.061985 -0.069277
v 0.980271 0.063927 -0.009123
v -0.078647 0.081376 -0.001133
v 0.979076 0.126647 0.017213
v -0.076997 0.148722 0.057184
v 0.983512 0.223939 -0.032393
v -0.069136 0.242289 -0.003309
v 0.988664 0.283863 -0.122105
v -0.069549 0.265024 -0.070655
v 0.988723 0.248460 -0.183615
v -0.071922 0.230803 -0.137758
vt 0.197176 0.475632
vt 0.197295 0.508181
vt 0.172884 0.508271
vt 0.172764 0.475722
vt 0.123769 0.429129
vt 0.123941 0.475902
vt 0.099529 0.475992
vt 0.099357 0.429219
vt 0.221707 0.508091
vt 0.221774 0.526417
vt 0.197363 0.526507
vt 0.221415 0.428770
vt 0.221587 0.475543
vt 0.197003 0.428860
vt 0.099649 0.508540
vt 0.075237 0.508630
vt 0.075117 0.476081
vt 0.172951 0.526596
vt 0.148472 0.508361
vt 0.148352 0.475812
vt 0.074945 0.429309
vt 0.148539 0.526686
vt 0.172592 0.428950
vt 0.148180 0.429040
vt 0.050825 0.508720
vt 0.050706 0.476171
vt 0.124128 0.526776
vt 0.124060 0.508451
vt 0.050534 0.429399
vt 0.099716 0.526866
vt 0.026414 0.508810
vt 0.026294 0.476261
vt 0.075304 0.526956
vt 0.368092 0.450369
vt 0.316978 0.471541
vt 0.265865 0.450369
vt 0.244693 0.399256
vt 0.265865 0.348142
vt 0.316978 0.326970
vt 0.368092 0.348142
vt 0.389264 0.399256
vt 0.026122 0.429489
vt 0.050893 0.527045
vt 0.026481 0.527135
vt 0.178949 0.402075
vt 0.222779 0.383920
vt 0.240934 0.340090
vt 0.222779 0.296260
vt 0.178949 0.278105
vt 0.135119 0.296260
vt 0.116964 0.340090
vt 0.135119 0.383920
vn -0.0175 -0.8867 -0.4620
vn 0.0523 0.5438 0.8376
vn 0.0078 -0.4245 -0.9054
vn 0.0374 -0.4022 -0.9148
vn 0.0176 0.8846 0.4661
vn 0.0621 -0.8767 -0.4769
vn -0.0110 -0.9745 0.2242
vn 0.0673 0.9902 -0.1227
vn 0.0639 -0.9834 0.1698
vn 0.0289 -0.9749 0.2210
vn -0.0370 0.8791 -0.4752
vn -0.0071 -0.4297 0.9030
vn 0.0088 -0.5455 0.8381
vn 0.0256 0.6719 -0.7402
vn -0.0954 0.4365 0.8946
vn 0.0218 -0.3474 0.9375
vn -0.0379 0.2754 -0.9606
vn -0.0921 0.8557 0.5093
vn 0.9860 -0.0000 -0.1666
vn 0.0138 0.3251 -0.9456
vn -0.0690 0.9600 -0.2714
vn 0.0362 -0.9362 -0.3495
vn 0.0379 0.4975 0.8666
vn -0.0643 0.3463 -0.9359
vn -0.9937 -0.1110 -0.0161
vn -0.0260 -0.4210 -0.9067
usemtl Material.014
s off
f 20/1/1 19/2/1 21/3/1 22/4/1
f 11/5/2 26/6/2 28/7/2 13/8/2
f 1/9/3 4/10/3 6/11/3 19/2/3
f 3/12/4 2/13/4 20/1/4 5/14/4
f 28/7/5 27/15/5 29/16/5 30/17/5
f 19/2/6 6/11/6 8/18/6 21/3/6
f 22/4/7 21/3/7 23/19/7 24/20/7
f 13/8/8 28/7/8 30/17/8 15/21/8
f 21/3/9 8/18/9 10/22/9 23/19/9
f 7/23/10 22/4/10 24/20/10 9/24/10
f 30/17/11 29/16/11 31/25/11 32/26/11
f 23/19/12 10/22/12 12/27/12 25/28/12
f 24/20/13 23/19/13 25/28/13 26/6/13
f 15/21/14 30/17/14 32/26/14 17/29/14
f 25/28/15 12/27/15 14/30/15 27/15/15
f 9/24/16 24/20/16 26/6/16 11/5/16
f 32/26/17 31/25/17 1/31/17 2/32/17
f 27/15/18 14/30/18 16/33/18 29/16/18
f 6/34/19 4/35/19 18/36/19 16/37/19 14/38/19 12/39/19 10/40/19 8/41/19
f 17/29/20 32/26/20 2/32/20 3/42/20
f 29/16/21 16/33/21 18/43/21 31/25/21
f 5/14/22 20/1/22 22/4/22 7/23/22
f 26/6/23 25/28/23 27/15/23 28/7/23
f 31/25/24 18/43/24 4/44/24 1/31/24
f 3/45/25 5/46/25 7/47/25 9/48/25 11/49/25 13/50/25 15/51/25 17/52/25
f 2/13/26 1/9/26 19/2/26 20/1/26
