# Blender v2.81 (sub 16) OBJ File: 'assets.blend'
# www.blender.org
mtllib wood-block-06.mtl
o wood-block-06
v 0.457397 0.169009 -0.229899
v -0.037350 0.166892 -0.205186
v -0.749794 0.106271 -0.186895
v 0.697926 0.253666 -0.289672
v -0.747493 0.042310 -0.157805
v 0.704939 0.107703 -0.224608
v -0.744790 0.018944 -0.062783
v 0.718898 0.019093 -0.069177
v -0.743334 0.045183 0.070067
v 0.729259 0.045768 0.084260
v -0.731852 0.235534 0.119977
v 0.732305 0.166117 0.147124
v -0.728860 0.364040 0.042258
v 0.729259 0.301975 0.084260
v -0.738921 0.331596 -0.070653
v 0.718899 0.381449 -0.069196
v -0.748338 0.211991 -0.155713
v 0.704939 0.363911 -0.224608
v 0.456363 0.056767 -0.174063
v -0.038547 0.064600 -0.161505
v 0.454875 0.001055 -0.061552
v -0.040439 0.006190 -0.055050
v 0.452802 0.020804 0.047724
v -0.040910 0.036415 0.051169
v 0.451985 0.112792 0.086350
v -0.037302 0.162931 0.092829
v 0.455017 0.255482 0.013595
v -0.034001 0.287238 0.047778
v 0.458538 0.343369 -0.117979
v -0.034301 0.322678 -0.057199
v 0.458578 0.291446 -0.208193
v -0.036025 0.269335 -0.161795
vt 0.641894 0.059819
vt 0.641894 0.090968
vt 0.618532 0.090968
vt 0.618532 0.059819
vt 0.571807 0.015057
vt 0.571807 0.059819
vt 0.548445 0.059819
vt 0.548445 0.015057
vt 0.665256 0.090968
vt 0.665256 0.108506
vt 0.641894 0.108506
vt 0.665256 0.015057
vt 0.665256 0.059819
vt 0.641894 0.015057
vt 0.548445 0.090968
vt 0.525082 0.090968
vt 0.525082 0.059819
vt 0.618532 0.108506
vt 0.595169 0.090968
vt 0.595169 0.059819
vt 0.525082 0.015057
vt 0.595169 0.108506
vt 0.618532 0.015057
vt 0.595169 0.015057
vt 0.501720 0.090968
vt 0.501720 0.059819
vt 0.571807 0.108506
vt 0.571807 0.090968
vt 0.501720 0.015057
vt 0.548445 0.108506
vt 0.478358 0.090968
vt 0.478358 0.059819
vt 0.525082 0.108506
vt 0.466814 0.463713
vt 0.439124 0.475183
vt 0.411434 0.463713
vt 0.399965 0.436024
vt 0.411434 0.408334
vt 0.439124 0.396864
vt 0.466814 0.408334
vt 0.478283 0.436024
vt 0.478358 0.015057
vt 0.501720 0.108506
vt 0.478358 0.108506
vt 0.542274 0.481730
vt 0.572401 0.469251
vt 0.584880 0.439124
vt 0.572401 0.408997
vt 0.542274 0.396518
vt 0.512147 0.408997
vt 0.499668 0.439124
vt 0.512147 0.469251
vn -0.0205 -0.8865 -0.4623
vn 0.0607 0.4348 0.8985
vn -0.0858 -0.4241 -0.9015
vn 0.0092 -0.4009 -0.9161
vn 0.0547 0.8851 0.4622
vn 0.0641 -0.8773 -0.4756
vn -0.0182 -0.9740 0.2257
vn 0.0610 0.9981 0.0108
vn 0.0690 -0.9828 0.1715
vn -0.0131 -0.9731 0.2299
vn -0.0893 0.8766 -0.4729
vn -0.0968 -0.4284 0.8984
vn -0.0136 -0.3447 0.9386
vn -0.0218 0.7394 -0.6729
vn -0.2802 0.4202 0.8631
vn 0.0154 -0.2783 0.9604
vn -0.0756 0.2780 -0.9576
vn -0.2427 0.8340 0.4955
vn 0.9969 -0.0000 -0.0785
vn -0.0440 0.3374 -0.9403
vn -0.1903 0.9475 -0.2571
vn 0.0073 -0.9266 -0.3761
vn 0.0715 0.4012 0.9132
vn -0.2530 0.3459 -0.9035
vn -0.9985 0.0282 0.0468
vn -0.0366 -0.4202 -0.9067
usemtl Material.014
s off
f 20/1/1 19/2/1 21/3/1 22/4/1
f 11/5/2 26/6/2 28/7/2 13/8/2
f 1/9/3 4/10/3 6/11/3 19/2/3
f 3/12/4 2/13/4 20/1/4 5/14/4
f 28/7/5 27/15/5 29/16/5 30/17/5
f 19/2/6 6/11/6 8/18/6 21/3/6
f 22/4/7 21/3/7 23/19/7 24/20/7
f 13/8/8 28/7/8 30/17/8 15/21/8
f 21/3/9 8/18/9 10/22/9 23/19/9
f 7/23/10 22/4/10 24/20/10 9/24/10
f 30/17/11 29/16/11 31/25/11 32/26/11
f 23/19/12 10/22/12 12/27/12 25/28/12
f 24/20/13 23/19/13 25/28/13 26/6/13
f 15/21/14 30/17/14 32/26/14 17/29/14
f 25/28/15 12/27/15 14/30/15 27/15/15
f 9/24/16 24/20/16 26/6/16 11/5/16
f 32/26/17 31/25/17 1/31/17 2/32/17
f 27/15/18 14/30/18 16/33/18 29/16/18
f 6/34/19 4/35/19 18/36/19 16/37/19 14/38/19 12/39/19 10/40/19 8/41/19
f 17/29/20 32/26/20 2/32/20 3/42/20
f 29/16/21 16/33/21 18/43/21 31/25/21
f 5/14/22 20/1/22 22/4/22 7/23/22
f 26/6/23 25/28/23 27/15/23 28/7/23
f 31/25/24 18/43/24 4/44/24 1/31/24
f 3/45/25 5/46/25 7/47/25 9/48/25 11/49/25 13/50/25 15/51/25 17/52/25
f 2/13/26 1/9/26 19/2/26 20/1/26
