# Blender v2.81 (sub 16) OBJ File: 'assets.blend'
# www.blender.org
mtllib wood-block-10.mtl
o wood-block-10
v 1.019705 0.189039 -0.279518
v -0.063789 0.163783 -0.126625
v -1.598522 0.105903 -0.297661
v 1.556158 0.232921 -0.151283
v -1.597386 0.042310 -0.269517
v 1.555363 0.141582 -0.152975
v -1.591586 0.018944 -0.174496
v 1.554785 0.087193 -0.130162
v -1.588460 0.045183 -0.041645
v 1.564366 0.104467 -0.033620
v -1.600584 0.239669 0.002666
v 1.570518 0.180440 0.047505
v -1.569233 0.374245 -0.075015
v 1.567898 0.266203 0.038606
v -1.528076 0.327180 -0.166563
v 1.555850 0.316071 -0.080658
v -1.551896 0.207415 -0.255653
v 1.557890 0.303180 -0.130208
v 1.010529 0.122841 -0.252283
v -0.066189 0.115108 -0.120702
v 0.996342 0.072294 -0.186008
v -0.071068 0.087523 -0.081398
v 0.985568 0.071973 -0.110757
v -0.074701 0.102247 -0.026716
v 0.985025 0.132492 -0.086392
v -0.076051 0.152588 0.035706
v 1.005594 0.227922 -0.149213
v -0.070735 0.222285 0.029020
v 1.020891 0.273591 -0.225243
v -0.068851 0.238909 -0.029382
v 1.023317 0.250791 -0.271587
v -0.064999 0.212903 -0.089789
v 1.177417 0.265288 -0.230750
v 1.200352 0.090557 -0.087757
v 1.177156 0.207834 -0.240016
v 1.177796 0.282502 -0.187315
v 1.191635 0.088406 -0.170546
v 1.190822 0.241179 -0.094778
v 1.183394 0.139025 -0.221031
v 1.202504 0.153437 -0.042101
v 1.076853 0.423906 -0.429486
v 1.085132 0.405235 -0.472717
v 1.066679 0.344073 -0.472989
v 1.208805 0.361656 -0.439012
v 1.227288 0.418325 -0.435473
v 1.216311 0.430669 -0.394696
v 1.404370 0.621870 -0.636692
v 1.444931 0.581958 -0.627962
v 1.396102 0.563636 -0.685495
v 1.324760 0.619128 -0.658454
v 1.326982 0.556914 -0.701363
v 1.308049 0.568816 -0.663837
v 1.400706 0.607152 -0.672695
v 1.442662 0.596015 -0.591270
v 1.327508 0.599812 -0.688963
v 1.308667 0.588928 -0.624114
v 1.328941 0.580695 -0.697555
v 1.275354 0.507326 -0.675481
v 1.401475 0.589354 -0.677813
v 1.429838 0.526178 -0.638144
vt 0.372266 0.574632
vt 0.372266 0.626824
vt 0.347294 0.626824
vt 0.347294 0.574632
vt 0.279349 0.501773
vt 0.279349 0.574632
vt 0.242484 0.574632
vt 0.242484 0.501773
vt 0.396688 0.633955
vt 0.396688 0.652411
vt 0.372266 0.652411
vt 0.372266 0.633955
vt 0.396688 0.501773
vt 0.396688 0.574632
vt 0.372266 0.501773
vt 0.471445 0.574632
vt 0.471445 0.626824
vt 0.437374 0.626824
vt 0.437374 0.574632
vt 0.347294 0.652411
vt 0.347294 0.633955
vt 0.316231 0.626824
vt 0.316231 0.574632
vt 0.471445 0.501773
vt 0.437374 0.501773
vt 0.316231 0.652411
vt 0.316231 0.633955
vt 0.347294 0.501773
vt 0.316231 0.501773
vt 0.417994 0.626824
vt 0.417994 0.574632
vt 0.279349 0.652411
vt 0.279349 0.633955
vt 0.279349 0.626824
vt 0.417994 0.501773
vt 0.508310 0.633955
vt 0.508310 0.652411
vt 0.471445 0.652411
vt 0.471445 0.633955
vt 0.396688 0.626824
vt 0.437374 0.652411
vt 0.437374 0.633955
vt 0.820041 0.323827
vt 0.775673 0.342205
vt 0.731306 0.323827
vt 0.712928 0.279460
vt 0.731306 0.235092
vt 0.775673 0.216714
vt 0.820041 0.235092
vt 0.838419 0.279460
vt 0.417994 0.652411
vt 0.417994 0.633955
vt 0.242484 0.626824
vt 0.767586 0.494110
vt 0.814820 0.474546
vt 0.834384 0.427312
vt 0.814820 0.380078
vt 0.767586 0.360513
vt 0.720352 0.380078
vt 0.700787 0.427312
vt 0.720352 0.474546
vt 0.485540 0.626824
vt 0.485540 0.623857
vt 0.602312 0.623857
vt 0.602312 0.626824
vt 0.485540 0.633955
vt 0.602312 0.633955
vt 0.362616 0.621158
vt 0.362616 0.614027
vt 0.396688 0.614027
vt 0.396688 0.621158
vt 0.242484 0.633955
vt 0.485540 0.639621
vt 0.485540 0.636922
vt 0.602312 0.636922
vt 0.602312 0.639621
vt 0.649040 0.626824
vt 0.649040 0.633955
vt 0.627734 0.633955
vt 0.627734 0.626824
vt 0.396688 0.623857
vt 0.485540 0.621158
vt 0.485540 0.614027
vt 0.602312 0.614027
vt 0.602312 0.621158
vt 0.675276 0.633955
vt 0.417994 0.633955
vt 0.675276 0.626824
vt 0.417994 0.626824
vt 0.625740 0.614027
vt 0.625740 0.621158
vt 0.627734 0.623857
vt 0.625740 0.623857
vt 0.627734 0.636922
vt 0.625740 0.636922
vt 0.625740 0.639621
vt 0.676942 0.621158
vt 0.676942 0.623857
vt 0.396688 0.636922
vt 0.396688 0.639621
vn -0.0690 -0.7959 -0.6015
vn -0.0116 0.3835 0.9235
vn 0.2068 -0.0981 -0.9734
vn 0.1115 -0.2897 -0.9506
vn 0.0567 0.9031 0.4257
vn 0.1217 -0.5621 -0.8180
vn -0.0116 -0.9940 0.1089
vn 0.0937 0.9806 -0.1722
vn 0.0034 -0.9942 0.1073
vn 0.0328 -0.9764 0.2134
vn -0.1026 0.9024 -0.4186
vn -0.1075 -0.6669 0.7374
vn 0.0618 -0.6146 0.7864
vn 0.0920 0.7068 -0.7014
vn -0.2927 0.2983 0.9085
vn -0.0184 -0.4004 0.9161
vn -0.1519 0.3729 -0.9154
vn -0.1986 0.8914 0.4073
vn 0.9977 0.0107 -0.0676
vn 0.0904 0.4403 -0.8933
vn -0.0055 0.9513 -0.3081
vn 0.0713 -0.9325 -0.3542
vn 0.1319 0.3669 0.9208
vn 0.2184 0.2223 -0.9502
vn -0.9822 0.1403 -0.1252
vn -0.1220 -0.2639 -0.9568
vn -0.7632 0.3698 -0.5299
vn 0.2175 -0.8572 -0.4668
vn -0.1780 0.8754 0.4494
vn -0.2444 0.5257 0.8148
vn -0.0901 -0.4906 0.8667
vn 0.0831 -0.9965 0.0126
vn 0.1475 -0.7512 -0.6434
vn 0.2307 -0.3196 -0.9190
vn 0.7311 -0.5979 0.3287
vn -0.2200 -0.1895 0.9569
vn -0.9741 0.1371 -0.1799
vn 0.7498 -0.2961 0.5918
vn -0.1694 0.8418 0.5125
vn -0.7243 0.5965 -0.3458
vn 0.5972 0.4637 -0.6545
vn -0.8011 0.3202 -0.5057
vn 0.1619 0.5927 -0.7890
vn -0.1073 0.9805 0.1646
vn -0.7314 0.6432 -0.2265
vn -0.7393 0.6382 0.2148
vn 0.2688 -0.4376 -0.8580
vn 0.7280 -0.1804 -0.6614
vn -0.0354 0.8554 0.5167
vn -0.0547 -0.8886 0.4554
vn -0.1782 0.8156 0.5505
vn 0.9831 -0.1693 0.0698
vn 0.9850 -0.0807 0.1523
vn 0.2356 -0.7861 -0.5714
vn -0.9751 0.1834 -0.1250
usemtl Material.014
s off
f 20/1/1 19/2/1 21/3/1 22/4/1
f 11/5/2 26/6/2 28/7/2 13/8/2
f 35/9/3 4/10/3 6/11/3 39/12/3
f 3/13/4 2/14/4 20/1/4 5/15/4
f 28/16/5 27/17/5 29/18/5 30/19/5
f 39/12/6 6/11/6 8/20/6 37/21/6
f 22/4/7 21/3/7 23/22/7 24/23/7
f 13/24/8 28/16/8 30/19/8 15/25/8
f 37/21/9 8/20/9 10/26/9 34/27/9
f 7/28/10 22/4/10 24/23/10 9/29/10
f 30/19/11 29/18/11 31/30/11 32/31/11
f 34/27/12 10/26/12 12/32/12 40/33/12
f 24/23/13 23/22/13 25/34/13 26/6/13
f 15/25/14 30/19/14 32/31/14 17/35/14
f 40/36/15 12/37/15 14/38/15 38/39/15
f 9/29/16 24/23/16 26/6/16 11/5/16
f 32/31/17 31/30/17 1/40/17 2/14/17
f 38/39/18 14/38/18 16/41/18 36/42/18
f 6/43/19 4/44/19 18/45/19 16/46/19 14/47/19 12/48/19 10/49/19 8/50/19
f 17/35/20 32/31/20 2/14/20 3/13/20
f 36/42/21 16/41/21 18/51/21 33/52/21
f 5/15/22 20/1/22 22/4/22 7/28/22
f 26/6/23 25/34/23 27/53/23 28/7/23
f 33/52/24 18/51/24 4/10/24 35/9/24
f 3/54/25 5/55/25 7/56/25 9/57/25 11/58/25 13/59/25 15/60/25 17/61/25
f 2/14/26 1/40/26 19/2/26 20/1/26
f 43/62/27 42/63/27 52/64/27 58/65/27
f 44/66/28 43/62/28 58/65/28 60/67/28
f 27/68/29 38/69/29 36/70/29 29/71/29
f 25/34/30 40/33/30 38/72/30 27/53/30
f 23/22/31 34/27/31 40/33/31 25/34/31
f 21/3/32 37/21/32 34/27/32 23/22/32
f 19/2/33 39/12/33 37/21/33 21/3/33
f 1/40/34 35/9/34 39/12/34 19/2/34
f 46/73/35 45/74/35 48/75/35 54/76/35
f 51/77/36 49/78/36 59/79/36 57/80/36
f 31/81/37 29/71/37 41/82/37 42/63/37
f 45/74/38 44/66/38 60/67/38 48/75/38
f 41/82/39 46/83/39 54/84/39 56/85/39
f 42/63/40 41/82/40 56/85/40 52/64/40
f 47/86/41 48/87/41 49/78/41
f 50/88/42 51/77/42 52/89/42
f 49/78/43 51/77/43 50/88/43 47/86/43
f 53/90/44 55/91/44 56/85/44 54/84/44
f 51/92/45 57/80/45 58/65/45 52/64/45
f 55/91/46 50/93/46 52/64/46 56/85/46
f 57/80/47 59/79/47 60/67/47 58/65/47
f 48/75/48 60/67/48 59/79/48 49/94/48
f 54/76/49 48/75/49 47/95/49 53/96/49
f 55/91/50 53/97/50 47/98/50 50/93/50
f 29/71/51 36/70/51 46/83/51 41/82/51
f 33/99/52 35/9/52 44/66/52 45/74/52
f 36/100/53 33/99/53 45/74/53 46/73/53
f 35/9/54 1/40/54 43/62/54 44/66/54
f 1/40/55 31/81/55 42/63/55 43/62/55
