# Blender v2.81 (sub 16) OBJ File: 'assets.blend'
# www.blender.org
mtllib axe-typ-02.mtl
o axe-typ-02
v 0.002576 0.000000 -0.251906
v 0.019488 0.000000 -0.251926
v -0.015225 0.000000 -0.253589
v 0.002576 0.015782 -0.251906
v 0.019488 0.015782 -0.251926
v -0.015225 0.015782 -0.253589
v 0.019488 0.007891 -0.251926
v -0.015225 0.007891 -0.253589
v -0.015225 0.000000 -0.005164
v 0.002576 0.000000 -0.003481
v 0.019488 0.000000 -0.003502
v -0.015225 0.015782 -0.005164
v 0.002576 0.015782 -0.003481
v 0.019488 0.015782 -0.003502
v 0.019488 0.007891 -0.003502
v 0.002576 0.007891 -0.003481
v -0.015225 0.007891 -0.005164
v -0.015225 0.015782 -0.052879
v 0.002576 0.015782 -0.051196
v 0.019488 0.007891 -0.051216
v 0.019488 0.015782 -0.051216
v 0.019488 0.000000 -0.051216
v -0.015225 0.007891 -0.052879
v -0.015225 0.000000 -0.052879
v 0.002576 0.000000 -0.051196
v -0.019051 0.020395 -0.058331
v -0.019051 0.020395 -0.000169
v 0.002649 0.020395 -0.056280
v 0.002649 0.020395 0.001883
v 0.023265 0.020395 -0.056305
v 0.023265 0.020395 0.001858
v -0.019051 -0.004613 -0.000169
v 0.002649 -0.004613 0.001883
v 0.023265 -0.004613 0.001858
v 0.023265 0.007891 0.001858
v -0.019051 0.007891 -0.000169
v -0.019051 0.007891 -0.058331
v -0.019051 -0.004613 -0.058331
v 0.023265 0.007891 -0.056305
v 0.023265 -0.004613 -0.056305
v 0.002649 -0.004613 -0.056280
v -0.108694 -0.000706 -0.233225
v -0.088881 -0.000706 -0.188256
v -0.012082 -0.000706 -0.251110
v 0.007312 -0.000706 -0.249277
v 0.009726 -0.000706 -0.296383
v 0.007312 -0.000706 -0.308679
v -0.086776 -0.000706 -0.309882
v -0.114087 -0.000706 -0.315952
v -0.067881 -0.000706 -0.219158
v -0.045564 -0.000706 -0.247921
v -0.030839 -0.000706 -0.268726
v -0.011927 -0.000706 -0.308075
v -0.035705 -0.000706 -0.299420
v -0.060127 -0.000706 -0.302378
v -0.062573 -0.000706 -0.287289
v -0.034150 -0.000706 -0.290599
v -0.117207 -0.000706 -0.284696
v 0.009726 -0.000706 -0.263248
v -0.058087 -0.000706 -0.260167
v -0.032002 -0.000706 -0.277611
v -0.082743 -0.000706 -0.249486
v -0.089378 -0.000706 -0.286466
v -0.010649 -0.000706 -0.262574
v -0.010649 -0.000706 -0.297449
v 0.028150 -0.000706 -0.296371
v 0.025737 -0.000706 -0.308658
v 0.025737 -0.000706 -0.249299
v 0.028150 -0.000706 -0.263260
v -0.108694 0.016488 -0.233225
v -0.088881 0.016488 -0.188256
v -0.012082 0.016488 -0.251110
v 0.007312 0.016488 -0.249277
v 0.009726 0.016488 -0.296383
v 0.007312 0.016488 -0.308679
v -0.086776 0.016488 -0.309882
v -0.114087 0.016488 -0.315952
v -0.064934 0.016488 -0.219645
v -0.045564 0.016488 -0.247921
v -0.030839 0.016488 -0.268726
v -0.011927 0.016488 -0.308075
v -0.035705 0.016488 -0.299420
v -0.060127 0.016488 -0.302378
v -0.062573 0.016488 -0.287289
v -0.034150 0.016488 -0.290599
v -0.117207 0.016488 -0.284696
v 0.009726 0.016488 -0.263248
v -0.058087 0.016488 -0.260167
v -0.032002 0.016488 -0.277611
v -0.082743 0.016488 -0.249486
v -0.089378 0.016488 -0.286466
v -0.010649 0.016488 -0.262574
v -0.010649 0.016488 -0.297449
v 0.028150 0.016488 -0.296371
v 0.025737 0.016488 -0.308658
v 0.025737 0.016488 -0.249299
v 0.028150 0.016488 -0.263260
v -0.035705 0.007891 -0.299420
v -0.011927 0.007891 -0.308075
v 0.025737 0.007891 -0.249299
v -0.060127 0.007891 -0.302378
v 0.007312 0.007891 -0.308679
v 0.025737 0.007891 -0.308658
v -0.101657 0.007891 -0.186143
v -0.121469 0.007891 -0.231112
v -0.012082 0.007891 -0.251110
v -0.030839 0.007891 -0.268726
v 0.028150 0.007891 -0.296371
v -0.086776 0.007891 -0.309882
v 0.028150 0.007891 -0.263260
v -0.129983 0.007891 -0.282582
v -0.128381 0.007891 -0.323020
v -0.071873 0.007891 -0.218497
v -0.045564 0.007891 -0.247921
v -0.087928 0.007891 -0.184955
vt 0.412464 0.617191
vt 0.420792 0.620737
vt 0.419244 0.623849
vt 0.409092 0.619526
vt 0.420933 0.599496
vt 0.420743 0.600738
vt 0.419586 0.600586
vt 0.420181 0.598349
vt 0.495748 0.961958
vt 0.493884 0.961958
vt 0.493884 0.961958
vt 0.495748 0.961958
vt 0.423977 0.618152
vt 0.423977 0.610735
vt 0.429933 0.610735
vt 0.429933 0.622487
vt 0.495748 0.961958
vt 0.495748 0.961958
vt 0.493884 0.961958
vt 0.493884 0.961958
vt 0.493884 0.961958
vt 0.493884 0.961958
vt 0.495748 0.961958
vt 0.495748 0.961958
vt 0.426738 0.600095
vt 0.423901 0.599644
vt 0.424105 0.598311
vt 0.427816 0.599133
vt 0.495748 0.961958
vt 0.495748 0.961958
vt 0.495748 0.961958
vt 0.495748 0.961958
vt 0.022299 0.426163
vt 0.011478 0.426163
vt 0.011478 0.421114
vt 0.022299 0.421114
vt 0.033738 0.426163
vt 0.033738 0.421114
vt 0.033738 0.431211
vt 0.022299 0.431211
vt 0.011478 0.431211
vt 0.420792 0.605655
vt 0.412464 0.609201
vt 0.409092 0.606866
vt 0.419244 0.602543
vt 0.426616 0.601385
vt 0.427846 0.601538
vt 0.428413 0.601753
vt 0.428534 0.597787
vt 0.023906 0.423358
vt 0.024175 0.423602
vt 0.024118 0.434457
vt 0.023977 0.434271
vt 0.024368 0.423632
vt 0.024182 0.434366
vt 0.024148 0.423114
vt 0.024149 0.434247
vt 0.024368 0.422818
vt 0.024329 0.434165
vt 0.024084 0.423568
vt 0.023808 0.423449
vt 0.023933 0.434262
vt 0.024018 0.434282
vt 0.024035 0.423239
vt 0.024102 0.434222
vt 0.482568 0.587969
vt 0.486379 0.589429
vt 0.481270 0.595708
vt 0.481226 0.595762
vt 0.488801 0.600739
vt 0.480059 0.603972
vt 0.481476 0.595794
vt 0.481402 0.595732
vt 0.488801 0.592143
vt 0.481329 0.595677
vt 0.476120 0.602500
vt 0.481431 0.595858
vt 0.473558 0.599686
vt 0.481368 0.595893
vt 0.474481 0.590055
vt 0.481301 0.595828
vt 0.420599 0.601981
vt 0.423584 0.602503
vt 0.423482 0.603850
vt 0.419586 0.602927
vt 0.428413 0.624639
vt 0.428534 0.628605
vt 0.426409 0.602658
vt 0.427233 0.603834
vt 0.412464 0.613196
vt 0.409092 0.613196
vt 0.423977 0.603319
vt 0.429933 0.598984
vt 0.493884 0.969412
vt 0.493884 0.973140
vt 0.495748 0.973140
vt 0.495748 0.969412
vt 0.486430 0.969412
vt 0.486430 0.973140
vt 0.488293 0.973140
vt 0.488293 0.969412
vt 0.492021 0.973140
vt 0.492021 0.969412
vt 0.488293 0.961958
vt 0.488293 0.965685
vt 0.492021 0.965685
vt 0.492021 0.961958
vt 0.486430 0.961958
vt 0.486430 0.965685
vt 0.493884 0.965685
vt 0.495748 0.965685
vt 0.484566 0.965685
vt 0.484566 0.969412
vt 0.484566 0.961958
vt 0.484566 0.973140
vt 0.495748 0.969412
vt 0.495748 0.965685
vt 0.495748 0.973140
vt 0.493884 0.969412
vt 0.495748 0.969412
vt 0.495748 0.973140
vt 0.493884 0.973140
vt 0.486430 0.969412
vt 0.488293 0.969412
vt 0.488293 0.973140
vt 0.486430 0.973140
vt 0.492021 0.969412
vt 0.492021 0.973140
vt 0.488293 0.961958
vt 0.492021 0.961958
vt 0.492021 0.965685
vt 0.488293 0.965685
vt 0.486430 0.961958
vt 0.486430 0.965685
vt 0.495748 0.965685
vt 0.493884 0.965685
vt 0.484566 0.965685
vt 0.484566 0.969412
vt 0.484566 0.961958
vt 0.484566 0.973140
vt 0.495748 0.965685
vt 0.495748 0.969412
vt 0.495748 0.973140
vt 0.493884 0.973140
vt 0.492021 0.973140
vt 0.488293 0.973140
vt 0.495748 0.973140
vt 0.495748 0.973140
vt 0.538703 0.717146
vt 0.538703 0.713419
vt 0.538703 0.713419
vt 0.538703 0.717146
vt 0.492021 0.961958
vt 0.495748 0.969412
vt 0.486430 0.973140
vt 0.495748 0.965685
vt 0.538703 0.724601
vt 0.538703 0.720873
vt 0.538703 0.720873
vt 0.538703 0.724601
vt 0.485248 0.961958
vt 0.486430 0.961958
vt 0.484566 0.973140
vt 0.488293 0.961958
vt 0.538703 0.720873
vt 0.538703 0.717146
vt 0.538703 0.724601
vt 0.538703 0.713419
vt 0.539385 0.713419
vn 0.0634 0.7396 -0.6701
vn 0.7940 0.0000 0.6080
vn -0.0291 0.9510 0.3077
vn -0.8030 0.0000 -0.5959
vn 0.0003 0.9659 0.2588
vn 0.6191 0.0000 -0.7853
vn -0.3876 0.0000 0.9218
vn 0.0008 0.7582 0.6520
vn -0.0291 -0.9510 0.3077
vn 0.0003 -0.9659 0.2588
vn 0.0012 0.0000 1.0000
vn -0.0941 0.0000 0.9956
vn 0.0634 -0.7396 -0.6701
vn -0.0616 0.7564 0.6512
vn -0.8175 0.0000 0.5760
vn -0.0008 -0.7406 -0.6719
vn 0.0000 -1.0000 0.0000
vn -1.0000 0.0000 0.0000
vn 1.0000 0.0000 0.0000
vn 0.0000 1.0000 0.0000
vn -0.0616 -0.7564 0.6512
vn -0.0008 0.7406 -0.6719
vn 0.0008 -0.7582 0.6520
vn 0.8187 0.0000 -0.5743
vn -0.3420 0.0000 -0.9397
vn 0.1203 0.0000 -0.9927
vn 0.0012 0.0000 -1.0000
vn -0.5174 0.8249 0.2279
vn -0.6846 0.0000 0.7290
vn 0.9813 0.0000 -0.1926
vn 0.2710 0.0000 -0.9626
vn -0.0314 0.0000 -0.9995
vn 0.9854 0.0000 0.1703
vn -0.5313 0.8465 -0.0350
vn 0.8406 -0.1587 0.5179
vn 0.2646 0.1702 -0.9492
vn -0.5457 0.8331 0.0903
vn 0.7560 -0.2651 0.5985
vn 0.8162 0.0000 0.5777
vn 0.7584 0.1518 0.6338
vn -0.5457 -0.8331 0.0903
vn 0.2646 -0.1702 -0.9492
vn 0.8663 0.0383 0.4981
vn -0.5313 -0.8465 -0.0350
vn -0.5174 -0.8249 0.2279
vn -0.0808 0.3495 0.9334
vn -0.0808 -0.3495 0.9334
usemtl basematerial
s off
f 24/1/1 25/2/1 41/3/1 38/4/1
f 9/5/2 17/6/2 36/7/2 32/8/2
f 1/9/3 3/10/3 44/11/3 45/12/3
f 22/13/4 20/14/4 39/15/4 40/16/4
f 2/17/5 1/9/5 45/12/5 68/18/5
f 3/10/6 8/19/6 106/20/6 44/11/6
f 8/19/6 6/21/6 72/22/6 106/20/6
f 7/23/7 2/17/7 68/18/7 100/24/7
f 11/25/8 10/26/8 33/27/8 34/28/8
f 6/21/9 4/29/9 73/30/9 72/22/9
f 4/29/10 5/31/10 96/32/10 73/30/10
f 5/31/7 7/23/7 100/24/7 96/32/7
f 16/33/11 15/34/11 14/35/11 13/36/11
f 17/37/12 16/33/12 13/36/12 12/38/12
f 9/39/12 10/40/12 16/33/12 17/37/12
f 10/40/11 11/41/11 15/34/11 16/33/11
f 19/42/13 18/43/13 26/44/13 28/45/13
f 10/26/14 9/5/14 32/8/14 33/27/14
f 15/46/15 11/25/15 34/28/15 35/47/15
f 21/48/16 19/42/16 28/45/16 30/49/16
f 3/50/17 1/51/17 25/52/17 24/53/17
f 1/51/17 2/54/17 22/55/17 25/52/17
f 8/56/18 3/50/18 24/53/18 23/57/18
f 6/58/18 8/56/18 23/57/18 18/59/18
f 7/60/19 5/61/19 21/62/19 20/63/19
f 5/61/20 4/64/20 19/65/20 21/62/20
f 4/64/20 6/58/20 18/59/20 19/65/20
f 2/54/19 7/60/19 20/63/19 22/55/19
f 40/66/19 39/67/19 35/68/19 34/69/19
f 28/70/20 26/71/20 27/72/20 29/73/20
f 30/74/20 28/70/20 29/73/20 31/75/20
f 39/67/19 30/74/19 31/75/19 35/68/19
f 26/71/18 37/76/18 36/77/18 27/72/18
f 37/76/18 38/78/18 32/79/18 36/77/18
f 41/80/17 40/66/17 34/69/17 33/81/17
f 38/78/17 41/80/17 33/81/17 32/79/17
f 12/82/21 13/83/21 29/84/21 27/85/21
f 25/2/22 22/86/22 40/87/22 41/3/22
f 13/83/23 14/88/23 31/89/23 29/84/23
f 23/90/24 24/1/24 38/4/24 37/91/24
f 14/88/15 15/46/15 35/47/15 31/89/15
f 18/43/24 23/90/24 37/91/24 26/44/24
f 20/14/4 21/92/4 30/93/4 39/15/4
f 17/6/2 12/82/2 27/85/2 36/7/2
f 65/94/17 53/95/17 47/96/17 46/97/17
f 63/98/17 48/99/17 55/100/17 56/101/17
f 56/101/17 55/100/17 54/102/17 57/103/17
f 51/104/17 60/105/17 61/106/17 52/107/17
f 60/105/17 56/101/17 57/103/17 61/106/17
f 50/108/17 62/109/17 60/105/17 51/104/17
f 62/109/17 63/98/17 56/101/17 60/105/17
f 44/11/17 64/110/17 59/111/17 45/12/17
f 64/110/17 65/94/17 46/97/17 59/111/17
f 42/112/17 58/113/17 63/98/17 62/109/17
f 43/114/17 42/112/17 62/109/17 50/108/17
f 58/113/17 49/115/17 48/99/17 63/98/17
f 46/97/17 66/116/17 69/117/17 59/111/17
f 59/111/17 69/117/17 68/18/17 45/12/17
f 47/96/17 67/118/17 66/116/17 46/97/17
f 61/106/17 57/103/17 65/94/17 64/110/17
f 52/107/17 61/106/17 64/110/17 44/11/17
f 57/103/17 54/102/17 53/95/17 65/94/17
f 93/119/20 74/120/20 75/121/20 81/122/20
f 91/123/20 84/124/20 83/125/20 76/126/20
f 84/124/20 85/127/20 82/128/20 83/125/20
f 79/129/20 80/130/20 89/131/20 88/132/20
f 88/132/20 89/131/20 85/127/20 84/124/20
f 78/133/20 79/129/20 88/132/20 90/134/20
f 90/134/20 88/132/20 84/124/20 91/123/20
f 72/22/20 73/30/20 87/135/20 92/136/20
f 92/136/20 87/135/20 74/120/20 93/119/20
f 70/137/20 90/134/20 91/123/20 86/138/20
f 71/139/20 78/133/20 90/134/20 70/137/20
f 86/138/20 91/123/20 76/126/20 77/140/20
f 74/120/20 87/135/20 97/141/20 94/142/20
f 87/135/20 73/30/20 96/32/20 97/141/20
f 75/121/20 74/120/20 94/142/20 95/143/20
f 89/131/20 92/136/20 93/119/20 85/127/20
f 80/130/20 72/22/20 92/136/20 89/131/20
f 85/127/20 93/119/20 81/122/20 82/128/20
f 99/144/25 98/145/25 82/128/25 81/122/25
f 98/145/26 101/146/26 83/125/26 82/128/26
f 103/147/27 102/148/27 75/121/27 95/143/27
f 105/149/28 104/150/28 71/151/28 70/152/28
f 107/153/29 106/20/29 72/22/29 80/130/29
f 108/154/30 103/147/30 95/143/30 94/142/30
f 101/146/31 109/155/31 76/126/31 83/125/31
f 102/148/32 99/144/32 81/122/32 75/121/32
f 100/24/33 110/156/33 97/141/33 96/32/33
f 112/157/34 111/158/34 86/159/34 77/160/34
f 115/161/35 113/162/35 78/133/35 71/139/35
f 109/155/36 112/163/36 77/140/36 76/126/36
f 110/156/19 108/154/19 94/142/19 97/141/19
f 111/158/37 105/149/37 70/152/37 86/159/37
f 113/162/38 114/164/38 79/129/38 78/133/38
f 114/164/39 107/153/39 80/130/39 79/129/39
f 51/104/39 52/107/39 107/153/39 114/164/39
f 50/108/40 51/104/40 114/164/40 113/162/40
f 58/165/41 42/166/41 105/149/41 111/158/41
f 69/117/19 66/116/19 108/154/19 110/156/19
f 48/99/42 49/115/42 112/163/42 109/155/42
f 43/114/43 50/108/43 113/162/43 115/161/43
f 49/167/44 58/165/44 111/158/44 112/157/44
f 68/18/33 69/117/33 110/156/33 100/24/33
f 47/96/32 53/95/32 99/144/32 102/148/32
f 55/100/31 48/99/31 109/155/31 101/146/31
f 66/116/30 67/118/30 103/147/30 108/154/30
f 52/107/29 44/11/29 106/20/29 107/153/29
f 42/166/45 43/168/45 104/150/45 105/149/45
f 67/118/27 47/96/27 102/148/27 103/147/27
f 54/102/26 55/100/26 101/146/26 98/145/26
f 53/95/25 54/102/25 98/145/25 99/144/25
f 104/150/46 115/169/46 71/151/46
f 104/150/47 43/168/47 115/169/47
