# Blender v2.81 (sub 16) OBJ File: 'assets.blend'
# www.blender.org
mtllib axe-type-01.mtl
o axe-type-01
v 0.236061 0.660656 -0.030069
v 0.208866 0.452376 -0.011658
v -0.031871 0.678184 0.007162
v -0.031527 0.453260 0.028091
v 0.018277 0.667650 -0.023207
v 0.114229 0.672196 -0.020710
v 0.125612 0.460770 -0.004742
v 0.021676 0.466339 -0.006668
v 0.249396 0.601677 -0.025290
v 0.247528 0.528190 -0.019228
v -0.063800 0.525453 0.018325
v -0.065629 0.608531 0.012994
v 0.130247 0.536244 -0.008758
v 0.128774 0.603639 -0.013114
v 0.021684 0.533735 -0.010968
v 0.020210 0.601096 -0.015300
v 0.238231 0.658575 -0.038092
v 0.209497 0.452431 -0.019980
v -0.049124 0.671830 -0.076145
v -0.032482 0.447862 -0.069309
v 0.020220 0.660743 -0.058141
v 0.106727 0.666452 -0.054080
v 0.126904 0.459363 -0.037974
v 0.022479 0.463967 -0.043824
v 0.249611 0.601122 -0.032379
v 0.247826 0.527915 -0.026359
v -0.061600 0.518985 -0.083534
v -0.063431 0.602196 -0.088894
v 0.131101 0.533906 -0.045735
v 0.129618 0.601268 -0.050049
v 0.022349 0.531360 -0.048128
v 0.020872 0.598721 -0.052459
v 0.018277 0.667650 -0.023207
v 0.114229 0.672196 -0.020710
v 0.125612 0.460770 -0.004742
v 0.021676 0.466339 -0.006668
v 0.130247 0.536244 -0.008758
v 0.128774 0.603639 -0.013114
v 0.021684 0.533735 -0.010968
v 0.020210 0.601096 -0.015300
v 0.020220 0.660743 -0.058141
v 0.106727 0.666452 -0.054080
v 0.126904 0.459363 -0.037974
v 0.022479 0.463967 -0.043824
v 0.131101 0.533906 -0.045735
v 0.129618 0.601268 -0.050049
v 0.022349 0.531360 -0.048128
v 0.020872 0.598721 -0.052459
v 0.002236 0.131116 0.018448
v -0.005395 0.371529 0.001510
v -0.002608 0.719164 -0.023348
v -0.009449 0.013785 0.035804
v 0.012097 0.719214 -0.027651
v 0.010778 0.010268 0.027569
v 0.021289 0.718561 -0.041058
v 0.023519 0.002396 0.007057
v 0.017105 0.717312 -0.059196
v 0.020458 -0.004074 -0.013629
v -0.001890 0.716237 -0.068253
v 0.004236 -0.006489 -0.022459
v -0.021536 0.716259 -0.059209
v -0.014560 -0.004892 -0.014370
v -0.025663 0.717472 -0.041939
v -0.026004 0.001239 0.006009
v -0.017111 0.718538 -0.028168
v -0.024240 0.009450 0.026828
v 0.015898 0.131212 0.012524
v 0.007482 0.371637 -0.004053
v 0.023308 0.131054 -0.002304
v 0.012403 0.370660 -0.018085
v 0.020890 0.131044 -0.017309
v 0.006043 0.368992 -0.032390
v 0.009555 0.130984 -0.023728
v -0.008492 0.367357 -0.038620
v -0.005225 0.130434 -0.017862
v -0.022277 0.366881 -0.033104
v -0.013625 0.130191 -0.003085
v -0.026290 0.368226 -0.019025
v -0.010218 0.130602 0.011971
v -0.019127 0.370220 -0.004679
v 0.216195 0.718332 -0.030724
v 0.179270 0.393914 -0.002701
v 0.221570 0.622618 -0.020290
v 0.219295 0.509751 -0.011203
v 0.219341 0.715012 -0.047829
v 0.180373 0.393727 -0.020255
v 0.219405 0.622750 -0.039773
v 0.217244 0.510272 -0.030753
vt 0.189895 0.656855
vt 0.219586 0.656855
vt 0.219586 0.712238
vt 0.189895 0.712238
vt 0.129877 0.795794
vt 0.182535 0.795794
vt 0.182535 0.860586
vt 0.129877 0.860586
vt 0.129877 0.686408
vt 0.182535 0.686408
vt 0.182535 0.737661
vt 0.129877 0.737661
vt 0.189895 0.547017
vt 0.219586 0.547017
vt 0.219586 0.599806
vt 0.189895 0.599806
vt 0.189895 0.825604
vt 0.189895 0.770221
vt 0.219586 0.770221
vt 0.219586 0.825604
vt 0.129877 0.936908
vt 0.129877 0.872115
vt 0.182535 0.872115
vt 0.182535 0.936908
vt 0.129877 0.674880
vt 0.129877 0.623627
vt 0.182535 0.623627
vt 0.182535 0.674880
vt 0.129877 0.995041
vt 0.182535 0.995041
vt 0.189895 0.935442
vt 0.189895 0.882653
vt 0.219586 0.882653
vt 0.219586 0.935442
vt 0.103082 0.686408
vt 0.062671 0.686408
vt 0.062671 0.674880
vt 0.103082 0.674880
vt 0.219586 0.993425
vt 0.189895 0.993425
vt 0.006159 0.860586
vt 0.051995 0.860586
vt 0.051995 0.872115
vt 0.006159 0.872115
vt 0.103082 0.860586
vt 0.103082 0.872115
vt 0.248725 0.770221
vt 0.248725 0.825604
vt 0.248725 0.882653
vt 0.248725 0.935442
vt 0.017627 0.994193
vt 0.017627 0.944241
vt 0.030741 0.944241
vt 0.030741 0.994193
vt 0.081089 0.994193
vt 0.081089 0.944241
vt 0.093681 0.944241
vt 0.093681 0.994193
vt 0.005262 0.994193
vt 0.005262 0.944241
vt 0.050251 0.994193
vt 0.037197 0.994193
vt 0.037197 0.944241
vt 0.050251 0.944241
vt 0.074649 0.994193
vt 0.062612 0.994193
vt 0.062612 0.944241
vt 0.074649 0.944241
vt 0.040796 0.710590
vt 0.042136 0.617252
vt 0.048356 0.617341
vt 0.047016 0.710680
vt 0.009462 0.846332
vt 0.011417 0.710169
vt 0.017617 0.710258
vt 0.015662 0.846421
vt 0.036494 0.617170
vt 0.037215 0.566925
vt 0.042858 0.567006
vt 0.033199 0.846673
vt 0.035154 0.710509
vt 0.038842 0.846754
vt 0.018957 0.616919
vt 0.025220 0.617009
vt 0.023880 0.710348
vt 0.049077 0.567096
vt 0.054434 0.617428
vt 0.053094 0.710767
vt 0.021925 0.846511
vt 0.055155 0.567183
vt 0.045061 0.846843
vt 0.051139 0.846931
vt 0.031197 0.617094
vt 0.029857 0.710433
vt 0.006922 0.616746
vt 0.007643 0.566501
vt 0.013478 0.566585
vt 0.012757 0.616830
vt 0.005582 0.710085
vt 0.027902 0.846597
vt 0.019678 0.566674
vt 0.003627 0.846249
vt 0.025941 0.566764
vt 0.028138 0.939411
vt 0.021275 0.934324
vt 0.021801 0.927455
vt 0.028984 0.922600
vt 0.038315 0.922403
vt 0.044652 0.927165
vt 0.044652 0.934359
vt 0.037947 0.939508
vt 0.031918 0.566849
vt 0.002649 0.934621
vt 0.001784 0.928767
vt 0.005012 0.923377
vt 0.012068 0.921915
vt 0.018327 0.927116
vt 0.018327 0.935469
vt 0.012916 0.939707
vt 0.006689 0.938931
vt 0.103082 0.995041
vt 0.103082 0.936908
vt 0.103082 0.623627
vt 0.103082 0.737661
vt 0.103082 0.795794
vn 0.3893 0.1810 0.9032
vn 0.0395 0.0561 0.9976
vn 0.0492 0.1149 0.9922
vn 0.0557 0.0740 0.9957
vn 0.3961 0.0001 0.9182
vn 0.3176 0.0677 0.9458
vn 0.4074 -0.0360 -0.9125
vn 0.1493 -0.1258 -0.9808
vn 0.1023 -0.0613 -0.9929
vn 0.1408 -0.0737 -0.9873
vn 0.3353 0.0158 -0.9420
vn 0.3944 -0.0504 -0.9175
vn 0.9695 0.2162 0.1153
vn 0.9356 0.3293 0.1271
vn 0.1634 0.9778 -0.1308
vn 0.9991 -0.0218 0.0374
vn 0.8919 -0.4483 0.0600
vn -0.9201 -0.3912 0.0175
vn 0.2645 -0.9628 0.0553
vn -0.7763 -0.6302 -0.0168
vn -0.9995 -0.0233 -0.0201
vn -0.9447 0.3233 0.0546
vn -0.0186 0.0587 0.9981
vn -0.0266 0.1108 0.9935
vn -0.0217 0.0639 0.9977
vn 0.0377 -0.0857 -0.9956
vn 0.0360 -0.0695 -0.9969
vn 0.0235 -0.0635 -0.9977
vn -0.0506 -0.9974 0.0520
vn -0.0488 0.9828 -0.1781
vn 0.9186 0.0633 0.3900
vn -0.3976 -0.0689 -0.9150
vn 0.3920 0.0968 0.9149
vn 0.3358 0.0619 0.9399
vn -0.9166 -0.0831 -0.3911
vn 0.8713 0.0308 0.4898
vn 0.9569 0.0330 -0.2885
vn -0.9681 -0.0157 -0.2501
vn 0.9886 -0.0083 -0.1502
vn 0.9512 -0.0490 -0.3047
vn -0.9404 -0.0193 0.3396
vn 0.4858 -0.0261 -0.8737
vn 0.4405 -0.0262 -0.8974
vn -0.8740 0.0355 0.4846
vn -0.3837 0.0045 -0.9235
vn 0.4190 -0.0838 -0.9041
vn -0.4376 0.0477 0.8979
vn -0.8664 0.0475 -0.4970
vn 0.0150 -0.9432 0.3318
vn -0.3664 0.0670 0.9280
vn -0.9867 0.1151 0.1146
vn 0.8895 0.0133 0.4567
vn -0.3661 -0.0862 -0.9266
vn -0.5088 0.1689 0.8441
vn -0.0237 0.9975 -0.0662
vn 0.3955 0.0770 0.9152
vn 0.8941 -0.4435 0.0622
vn -0.4023 0.9065 -0.1281
vn 0.1844 -0.0832 -0.9793
vn 0.2243 -0.0722 -0.9719
vn 0.3482 -0.2165 -0.9121
vn 0.2288 0.0738 0.9707
vn 0.2990 0.1291 0.9455
vn 0.3713 -0.0748 0.9255
usemtl Material.014
s off
f 15/1/1 11/2/1 4/3/1 8/4/1
f 84/5/2 13/6/2 7/7/2 82/8/2
f 81/9/3 6/10/3 14/11/3 83/12/3
f 83/12/4 14/11/4 13/6/4 84/5/4
f 5/13/5 3/14/5 12/15/5 16/16/5
f 16/16/6 12/15/6 11/2/6 15/1/6
f 31/17/7 24/18/7 20/19/7 27/20/7
f 88/21/8 86/22/8 23/23/8 29/24/8
f 85/25/9 87/26/9 30/27/9 22/28/9
f 87/29/10 88/21/10 29/24/10 30/30/10
f 21/31/11 32/32/11 28/33/11 19/34/11
f 32/32/12 31/17/12 27/20/12 28/33/12
f 1/35/13 9/36/13 25/37/13 17/38/13
f 81/9/14 1/35/14 17/38/14 85/25/14
f 3/39/15 5/40/15 21/31/15 19/34/15
f 9/41/16 10/42/16 26/43/16 25/44/16
f 10/42/17 2/45/17 18/46/17 26/43/17
f 4/47/18 11/48/18 27/20/18 20/19/18
f 8/4/19 4/3/19 20/19/19 24/18/19
f 82/8/20 7/7/20 23/23/20 86/22/20
f 11/48/21 12/49/21 28/33/21 27/20/21
f 12/49/22 3/50/22 19/34/22 28/33/22
f 37/51/23 39/52/23 36/53/23 35/54/23
f 34/55/24 33/56/24 40/57/24 38/58/24
f 38/59/25 40/60/25 39/52/25 37/51/25
f 45/61/26 43/62/26 44/63/26 47/64/26
f 42/65/27 46/66/27 48/67/27 41/68/27
f 46/66/28 45/61/28 47/64/28 48/67/28
f 35/54/29 36/53/29 44/63/29 43/62/29
f 33/56/30 34/55/30 42/65/30 41/68/30
f 68/69/31 67/70/31 69/71/31 70/72/31
f 59/73/32 74/74/32 76/75/32 61/76/32
f 49/77/33 52/78/33 54/79/33 67/70/33
f 51/80/34 50/81/34 68/69/34 53/82/34
f 76/75/35 75/83/35 77/84/35 78/85/35
f 67/70/36 54/79/36 56/86/36 69/71/36
f 70/72/37 69/71/37 71/87/37 72/88/37
f 61/76/38 76/75/38 78/85/38 63/89/38
f 69/71/39 56/86/39 58/90/39 71/87/39
f 55/91/40 70/72/40 72/88/40 57/92/40
f 78/85/41 77/84/41 79/93/41 80/94/41
f 71/95/42 58/96/42 60/97/42 73/98/42
f 72/99/43 71/95/43 73/98/43 74/74/43
f 63/89/44 78/85/44 80/94/44 65/100/44
f 73/98/45 60/97/45 62/101/45 75/83/45
f 57/102/46 72/99/46 74/74/46 59/73/46
f 80/94/47 79/93/47 49/77/47 50/81/47
f 75/83/48 62/101/48 64/103/48 77/84/48
f 54/104/49 52/105/49 66/106/49 64/107/49 62/108/49 60/109/49 58/110/49 56/111/49
f 65/100/50 80/94/50 50/81/50 51/80/50
f 77/84/51 64/103/51 66/112/51 79/93/51
f 53/82/52 68/69/52 70/72/52 55/91/52
f 74/74/53 73/98/53 75/83/53 76/75/53
f 79/93/54 66/112/54 52/78/54 49/77/54
f 51/113/55 53/114/55 55/115/55 57/116/55 59/117/55 61/118/55 63/119/55 65/120/55
f 50/81/56 49/77/56 67/70/56 68/69/56
f 2/45/57 82/8/57 86/22/57 18/46/57
f 6/10/58 81/9/58 85/25/58 22/28/58
f 25/121/59 26/122/59 88/21/59 87/29/59
f 17/38/60 25/123/60 87/26/60 85/25/60
f 26/122/61 18/46/61 86/22/61 88/21/61
f 9/124/62 83/12/62 84/5/62 10/125/62
f 1/35/63 81/9/63 83/12/63 9/124/63
f 10/125/64 84/5/64 82/8/64 2/45/64
