# Blender v2.81 (sub 16) OBJ File: 'assets.blend'
# www.blender.org
mtllib bread-type-001.mtl
o bread-type-001
v -0.169005 0.009364 0.041915
v 0.168842 0.009364 0.035868
v -0.169005 0.009364 -0.040771
v 0.168842 0.009364 -0.034724
v -0.101436 0.009364 0.073367
v -0.033867 0.009364 0.084407
v 0.033703 0.009364 0.084407
v 0.101272 0.009364 0.074196
v 0.101272 0.009364 -0.073052
v 0.033703 0.009364 -0.083263
v -0.033867 0.009364 -0.083263
v -0.101436 0.009364 -0.072223
v -0.168397 0.030168 -0.040622
v -0.168397 0.030168 0.041766
v 0.109855 0.030168 0.080430
v 0.168234 0.030168 0.035741
v 0.168234 0.030168 -0.034597
v -0.110019 0.030168 -0.078388
v -0.110019 0.030168 0.079532
v -0.036728 0.030168 0.091507
v 0.036564 0.030168 0.091507
v 0.109855 0.030168 -0.079286
v 0.036564 0.030168 -0.090363
v -0.036728 0.030168 -0.090363
v -0.157468 0.054058 -0.037947
v -0.157468 0.054058 0.039091
v 0.094350 0.054058 0.069167
v 0.157304 0.054058 0.033458
v 0.157304 0.054058 -0.032314
v -0.094514 0.054058 -0.067251
v -0.094514 0.054058 0.068395
v -0.031559 0.054058 0.078681
v 0.031395 0.054058 0.078681
v 0.094350 0.054058 -0.068023
v 0.031395 0.054058 -0.077537
v -0.031559 0.054058 -0.077537
v -0.118368 0.067706 -0.028378
v -0.118368 0.067706 0.029522
v 0.070890 0.067706 0.052126
v 0.118204 0.067706 0.025288
v 0.118204 0.067706 -0.024144
v -0.071054 0.067706 -0.050402
v -0.071054 0.067706 0.051546
v -0.023739 0.067706 0.059276
v 0.023575 0.067706 0.059276
v 0.070890 0.067706 -0.050982
v 0.023575 0.067706 -0.058132
v -0.023739 0.067706 -0.058132
v -0.118274 0.072948 -0.020612
v -0.118274 0.072948 0.024435
v 0.071007 0.073632 0.035904
v 0.118204 0.070243 0.025288
v 0.118204 0.070243 -0.024144
v -0.071054 0.070243 -0.050402
v -0.071054 0.070243 0.051546
v -0.023604 0.074136 0.039193
v 0.023575 0.070243 0.059276
v 0.071007 0.073632 -0.031404
v 0.023575 0.070243 -0.058132
v -0.023604 0.074136 -0.034194
v -0.072768 0.073123 0.039706
v -0.023739 0.069840 0.059276
v 0.023710 0.073732 0.040660
v 0.070890 0.069840 0.052126
v 0.070890 0.069840 -0.050982
v 0.023710 0.073732 -0.035661
v -0.023739 0.069840 -0.058132
v -0.072768 0.073123 -0.035054
vt 0.598739 0.421563
vt 0.598739 0.430790
vt 0.600584 0.430790
vt 0.600584 0.421563
vt 0.591357 0.421563
vt 0.591357 0.430790
vt 0.593202 0.430790
vt 0.593202 0.421563
vt 0.595048 0.430790
vt 0.595048 0.421563
vt 0.596893 0.430790
vt 0.596893 0.421563
vt 0.591357 0.430790
vt 0.591357 0.421563
vt 0.591357 0.421563
vt 0.591357 0.430790
vt 0.596893 0.430790
vt 0.595048 0.430790
vt 0.595048 0.430790
vt 0.596893 0.430790
vt 0.593202 0.430790
vt 0.593202 0.430790
vt 0.595048 0.421563
vt 0.596893 0.421563
vt 0.596893 0.421563
vt 0.595048 0.421563
vt 0.598739 0.430790
vt 0.598739 0.430790
vt 0.600584 0.430790
vt 0.593202 0.421563
vt 0.600584 0.421563
vt 0.598739 0.421563
vt 0.591357 0.430790
vt 0.593202 0.430790
vt 0.596893 0.421563
vt 0.595048 0.421563
vt 0.596893 0.430790
vt 0.598739 0.430790
vt 0.600584 0.421563
vt 0.600584 0.430790
vt 0.600584 0.430790
vt 0.600584 0.421563
vt 0.593202 0.421563
vt 0.593202 0.421563
vt 0.598739 0.421563
vt 0.593202 0.430790
vt 0.593202 0.421563
vt 0.598739 0.421563
vt 0.598739 0.421563
vt 0.598739 0.430790
vt 0.598739 0.421563
vt 0.596893 0.421563
vt 0.600584 0.430790
vt 0.596893 0.430790
vt 0.598739 0.430790
vt 0.595048 0.430790
vt 0.591357 0.421563
vt 0.600584 0.421563
vt 0.591357 0.421563
vt 0.591357 0.430790
vt 0.595048 0.421563
vt 0.596893 0.421563
vt 0.596893 0.430790
vt 0.595048 0.430790
vt 0.653948 0.422733
vt 0.656309 0.422733
vt 0.656309 0.434541
vt 0.653948 0.434541
vt 0.658671 0.422733
vt 0.661032 0.422733
vt 0.661032 0.434541
vt 0.658671 0.434541
vt 0.595048 0.421563
vt 0.593202 0.421563
vt 0.593202 0.430790
vt 0.595048 0.430790
vn 0.0000 -1.0000 0.0000
vn -0.9094 0.4160 0.0000
vn 0.0000 0.4730 -0.8811
vn -0.4291 0.4618 -0.7763
vn 0.0000 0.4730 0.8811
vn 0.1302 0.4907 -0.8615
vn 0.5366 -0.2223 -0.8140
vn -0.1518 -0.3379 0.9289
vn 0.9996 0.0292 0.0000
vn 0.1407 -0.3370 -0.9309
vn 0.0000 -0.3230 0.9464
vn -0.4705 -0.2140 -0.8561
vn 0.0000 -0.3230 -0.9464
vn -0.9996 0.0292 0.0000
vn 0.1407 -0.3370 0.9309
vn -0.4705 -0.2140 0.8561
vn -0.1518 -0.3379 -0.9289
vn 0.5366 -0.2223 0.8140
vn -0.2011 0.8791 -0.4321
vn 0.0000 0.8180 0.5753
vn 0.0832 0.8306 -0.5506
vn 0.3296 0.9441 0.0000
vn -0.0896 0.8313 0.5486
vn 0.1302 0.4907 0.8615
vn -0.4291 0.4618 0.7763
vn -0.1404 0.4917 -0.8594
vn 0.4856 0.4765 0.7329
vn 0.4856 0.4765 -0.7329
vn -0.1404 0.4917 0.8594
vn 0.9094 0.4160 0.0000
vn 1.0000 0.0000 0.0000
vn -0.9998 0.0198 0.0000
vn 0.0194 0.9157 0.4015
vn 0.1737 0.9036 -0.3917
vn 0.0092 0.9399 -0.3414
vn 0.0000 0.8180 -0.5753
vn -0.3296 0.9441 0.0000
vn 0.0832 0.8306 0.5506
vn -0.2011 0.8791 0.4321
vn -0.0896 0.8313 -0.5486
vn 0.2266 0.8883 0.3995
vn 0.2266 0.8883 -0.3995
vn 0.0716 0.9974 0.0000
vn 0.0572 0.9984 0.0000
vn 0.0822 0.9966 0.0000
vn -0.0489 0.9121 0.4070
vn -0.9998 0.0210 0.0000
vn -0.3441 0.6654 -0.6625
vn -0.0502 0.9354 -0.3501
vn -0.9998 0.0179 0.0000
vn -0.3857 0.5081 0.7701
vn 0.2107 0.8660 0.4534
vn 0.0668 0.9978 0.0000
vn -0.1266 0.8279 0.5464
vn -0.9997 0.0224 0.0000
vn -0.9534 -0.3018 0.0000
vn -0.1133 0.8864 -0.4488
usemtl basematerial
s off
f 8/1/1 9/2/1 4/3/1 2/4/1
f 1/5/1 3/6/1 12/7/1 5/8/1
f 5/8/1 12/7/1 11/9/1 6/10/1
f 6/10/1 11/9/1 10/11/1 7/12/1
f 7/12/1 10/11/1 9/2/1 8/1/1
f 13/13/2 14/14/2 26/15/2 25/16/2
f 23/17/3 24/18/3 36/19/3 35/20/3
f 18/21/4 13/13/4 25/16/4 30/22/4
f 20/23/5 21/24/5 33/25/5 32/26/5
f 22/27/6 23/17/6 35/20/6 34/28/6
f 4/3/7 9/2/7 22/27/7 17/29/7
f 5/8/8 6/10/8 20/23/8 19/30/8
f 2/4/9 4/3/9 17/29/9 16/31/9
f 9/2/10 10/11/10 23/17/10 22/27/10
f 6/10/11 7/12/11 21/24/11 20/23/11
f 12/7/12 3/6/12 13/13/12 18/21/12
f 10/11/13 11/9/13 24/18/13 23/17/13
f 3/6/14 1/5/14 14/14/14 13/13/14
f 7/12/15 8/1/15 15/32/15 21/24/15
f 1/5/16 5/8/16 19/30/16 14/14/16
f 11/9/17 12/7/17 18/21/17 24/18/17
f 8/1/18 2/4/18 16/31/18 15/32/18
f 30/22/19 25/16/19 37/33/19 42/34/19
f 32/26/20 33/25/20 45/35/20 44/36/20
f 34/28/21 35/20/21 47/37/21 46/38/21
f 28/39/22 29/40/22 41/41/22 40/42/22
f 31/43/23 32/26/23 44/36/23 43/44/23
f 21/24/24 15/32/24 27/45/24 33/25/24
f 14/14/25 19/30/25 31/43/25 26/15/25
f 24/18/26 18/21/26 30/22/26 36/19/26
f 15/32/27 16/31/27 28/39/27 27/45/27
f 17/29/28 22/27/28 34/28/28 29/40/28
f 19/30/29 20/23/29 32/26/29 31/43/29
f 16/31/30 17/29/30 29/40/30 28/39/30
f 43/44/31 42/34/31 54/46/31 55/47/31
f 46/38/32 39/48/32 51/49/32 58/50/32
f 45/35/33 39/48/33 64/51/33 63/52/33
f 41/41/34 46/38/34 58/50/34 53/53/34
f 46/38/35 47/37/35 66/54/35 65/55/35
f 35/20/36 36/19/36 48/56/36 47/37/36
f 25/16/37 26/15/37 38/57/37 37/33/37
f 33/25/38 27/45/38 39/48/38 45/35/38
f 26/15/39 31/43/39 43/44/39 38/57/39
f 36/19/40 30/22/40 42/34/40 48/56/40
f 27/45/41 28/39/41 40/42/41 39/48/41
f 29/40/42 34/28/42 46/38/42 41/41/42
f 51/49/43 52/58/43 53/53/43 58/50/43
f 50/59/44 55/47/44 54/46/44 49/60/44
f 56/61/45 57/62/45 59/63/45 60/64/45
f 40/42/31 41/41/31 53/53/31 52/58/31
f 44/36/46 45/35/46 57/62/46 56/61/46
f 48/56/47 44/36/47 56/61/47 60/64/47
f 42/34/48 37/33/48 49/60/48 54/46/48
f 47/37/49 48/56/49 60/64/49 59/63/49
f 37/33/50 38/57/50 50/59/50 49/60/50
f 45/35/31 47/37/31 59/63/31 57/62/31
f 38/57/51 43/44/51 55/47/51 50/59/51
f 39/48/52 40/42/52 52/58/52 51/49/52
f 61/65/53 62/66/53 67/67/53 68/68/53
f 63/69/45 64/70/45 65/71/45 66/72/45
f 43/44/54 44/36/54 62/73/54 61/74/54
f 47/37/55 45/35/55 63/52/55 66/54/55
f 42/34/56 43/44/56 61/74/56 68/75/56
f 39/48/31 46/38/31 65/55/31 64/51/31
f 44/36/31 48/56/31 67/76/31 62/73/31
f 48/56/57 42/34/57 68/75/57 67/76/57
