# Blender v2.81 (sub 16) OBJ File: 'assets.blend'
# www.blender.org
mtllib glass-type-04.mtl
o glass-type-04
v 0.000646 0.015107 -0.047345
v 0.021791 0.008296 0.001833
v -0.005495 -0.001400 0.003452
v -0.023507 0.020505 0.000746
v -0.007354 0.043739 -0.002547
v 0.020642 0.036193 -0.001875
v -0.003272 0.001962 -0.043294
v 0.012766 0.007661 -0.044246
v 0.009260 -0.000896 -0.005797
v 0.024622 0.021201 -0.008928
v 0.012091 0.024058 -0.046426
v -0.013859 0.014837 -0.044885
v -0.017366 0.006280 -0.006436
v -0.004365 0.028493 -0.046821
v -0.018459 0.032812 -0.009962
v 0.007491 0.042034 -0.011503
v 0.028182 0.018100 0.029517
v 0.027507 0.034498 0.027337
v 0.002608 -0.000246 0.032270
v 0.018688 0.004444 0.031452
v -0.024394 0.016055 0.030418
v -0.013806 0.003179 0.032009
v -0.015574 0.046109 0.026303
v -0.025069 0.032452 0.028239
v 0.016919 0.047373 0.025746
v 0.000464 0.051808 0.025351
v 0.000693 0.015639 -0.043361
v 0.021350 0.011957 0.025725
v -0.006080 0.002560 0.027307
v -0.022612 0.020776 0.002512
v -0.006505 0.030356 -0.029934
v 0.017823 0.031551 -0.009542
v -0.003092 0.002889 -0.039970
v 0.012379 0.008387 -0.040889
v 0.009426 0.005273 0.032949
v 0.023816 0.021448 -0.006819
v 0.011727 0.024204 -0.042991
v -0.013305 0.015309 -0.041505
v -0.016423 0.010012 0.017749
v -0.004146 0.028482 -0.043372
v -0.016102 0.028617 -0.016559
v 0.007285 0.033025 -0.028981
v 0.027271 0.018452 0.030380
v 0.026617 0.034311 0.028272
v 0.003286 0.000564 0.033163
v 0.018119 0.005289 0.032246
v -0.023494 0.016504 0.031247
v -0.013253 0.004051 0.032786
v -0.014961 0.045518 0.027274
v -0.024145 0.032309 0.029146
v 0.016413 0.046721 0.026738
v 0.000497 0.051011 0.026356
v -0.007835 0.000967 0.063035
v 0.008007 0.000967 0.067126
v -0.007474 0.004102 0.031430
v 0.004734 0.004162 0.031430
v -0.004667 0.000967 0.064680
v -0.001498 0.000967 0.068354
v 0.001670 0.000967 0.069586
v 0.004838 0.000967 0.068606
v 0.011191 0.010586 0.029853
v -0.010564 0.009860 0.029853
v -0.011822 0.000967 0.041010
v -0.016399 0.000967 0.050397
v -0.013747 0.000967 0.058639
v 0.013919 0.000967 0.058639
v 0.013895 0.000967 0.050397
v 0.011993 0.000967 0.041010
v 0.002601 0.010289 0.026019
v 0.000924 0.008893 0.026019
v -0.001039 0.008893 0.026019
v -0.003447 0.008893 0.026019
v 0.009319 0.007647 0.033025
v -0.006187 0.004934 0.027383
v 0.023709 0.023822 -0.006744
v 0.021243 0.014331 0.025801
v -0.016530 0.012386 0.017825
v -0.022719 0.023150 0.002588
v -0.016209 0.030991 -0.016483
v -0.006612 0.032730 -0.029858
v 0.007178 0.035399 -0.028905
v 0.017716 0.033925 -0.009466
v -0.013763 0.003313 0.059027
v -0.007851 0.003313 0.063422
v 0.004822 0.003313 0.068993
v 0.007991 0.003313 0.067514
v 0.011977 0.003313 0.041398
v 0.004718 0.006508 0.031818
v -0.010580 0.012206 0.030241
v -0.007490 0.006447 0.031818
v -0.004683 0.003313 0.065068
v -0.001514 0.003313 0.068742
v 0.001654 0.003313 0.069974
v 0.011175 0.012931 0.030241
v 0.002012 0.009158 0.030241
v -0.004289 0.009156 0.030241
v -0.007075 0.003313 0.041398
v -0.002312 0.003313 0.041398
v 0.002451 0.003313 0.041398
v 0.007215 0.003313 0.041398
v -0.011838 0.003313 0.041398
v -0.016415 0.003313 0.050784
v 0.013903 0.003313 0.059027
v 0.013879 0.003313 0.050784
v -0.008230 0.003313 0.059027
v -0.009821 0.003313 0.050784
v -0.002697 0.003313 0.059027
v -0.003227 0.003313 0.050784
v 0.002836 0.003313 0.059027
v 0.003367 0.003313 0.050784
v 0.008370 0.003313 0.059027
v 0.009793 0.003313 0.050784
v 0.002585 0.012634 0.026407
v 0.000908 0.011239 0.026407
v -0.001055 0.011239 0.026407
v -0.003462 0.011239 0.026407
vt 0.000000 0.000000
vt 0.000000 0.000000
vt 0.000000 0.000000
vt 0.000000 0.000000
vt 0.000000 0.000000
vt 0.000000 0.000000
vt 0.000000 0.000000
vt 0.000000 0.000000
vt 0.000000 0.000000
vt 0.000000 0.000000
vt 0.000000 0.000000
vt 0.000000 0.000000
vt 0.000000 0.000000
vt 0.000000 0.000000
vt 0.000000 0.000000
vt 0.000000 0.000000
vt 0.000000 0.000000
vt 0.000000 0.000000
vt 0.000000 0.000000
vt 0.000000 0.000000
vt 0.000000 0.000000
vt 0.000000 0.000000
vt 0.000000 0.000000
vt 0.000000 0.000000
vt 0.000000 0.000000
vt 0.000000 0.000000
vt 0.000000 0.000000
vt 0.000000 0.000000
vt 0.000000 0.000000
vt 0.000000 0.000000
vt 0.000000 0.000000
vt 0.000000 0.000000
vt 0.000000 0.000000
vt 0.000000 0.000000
vt 0.000000 0.000000
vt 0.000000 0.000000
vt 0.000000 0.000000
vt 0.000000 0.000000
vt 0.612685 0.304951
vt 0.612685 0.304951
vt 0.612685 0.304951
vt 0.612685 0.304951
vt 0.612685 0.304951
vt 0.612685 0.304951
vt 0.612685 0.304951
vt 0.612685 0.304951
vt 0.612685 0.304951
vt 0.612685 0.304951
vt 0.629470 0.309264
vt 0.630661 0.309264
vt 0.630661 0.310752
vt 0.629470 0.310752
vt 0.624709 0.309264
vt 0.625899 0.309264
vt 0.625899 0.310752
vt 0.624709 0.310752
vt 0.627090 0.309264
vt 0.627090 0.310752
vt 0.628280 0.309264
vt 0.628280 0.310752
vt 0.628280 0.304800
vt 0.629470 0.304800
vt 0.629470 0.306288
vt 0.628280 0.306288
vt 0.629470 0.307776
vt 0.628280 0.307776
vt 0.627090 0.304800
vt 0.627090 0.306288
vt 0.627090 0.307776
vt 0.625899 0.304800
vt 0.625899 0.306288
vt 0.625899 0.307776
vt 0.624709 0.304800
vt 0.624709 0.306288
vt 0.624709 0.307776
vt 0.630661 0.304800
vt 0.630661 0.306288
vt 0.630661 0.307776
vt 0.627090 0.310752
vt 0.625899 0.310752
vt 0.628280 0.310752
vt 0.629470 0.310752
vt 0.000000 0.000000
vt 0.000000 0.000000
vt 0.428605 0.416566
vt 0.428067 0.417498
vt 0.429144 0.417498
vt 0.427528 0.418431
vt 0.426990 0.417498
vt 0.426451 0.418431
vt 0.419988 0.416566
vt 0.419449 0.417498
vt 0.420526 0.417498
vt 0.422142 0.416566
vt 0.421604 0.417498
vt 0.422681 0.417498
vt 0.424297 0.416566
vt 0.423758 0.417498
vt 0.424835 0.417498
vt 0.426990 0.419364
vt 0.429683 0.418431
vt 0.428605 0.418431
vt 0.429144 0.419364
vt 0.421065 0.418431
vt 0.419988 0.418431
vt 0.420526 0.419364
vt 0.423219 0.418431
vt 0.422142 0.418431
vt 0.422681 0.419364
vt 0.425374 0.418431
vt 0.424297 0.418431
vt 0.424835 0.419364
vt 0.428067 0.419364
vt 0.430221 0.419364
vt 0.421604 0.419364
vt 0.423758 0.419364
vt 0.425912 0.419364
vt 0.419449 0.419364
vt 0.418911 0.418431
vt 0.425912 0.417498
vt 0.426451 0.416566
vt 0.428605 0.416566
vt 0.428067 0.417498
vt 0.429144 0.417498
vt 0.427528 0.418431
vt 0.426990 0.417498
vt 0.426451 0.418431
vt 0.419988 0.416566
vt 0.419449 0.417498
vt 0.420526 0.417498
vt 0.422142 0.416566
vt 0.421604 0.417498
vt 0.422681 0.417498
vt 0.424297 0.416566
vt 0.423758 0.417498
vt 0.424835 0.417498
vt 0.426990 0.419364
vt 0.429683 0.418431
vt 0.429144 0.419364
vt 0.428605 0.418431
vt 0.421065 0.418431
vt 0.420526 0.419364
vt 0.419988 0.418431
vt 0.423219 0.418431
vt 0.422681 0.419364
vt 0.422142 0.418431
vt 0.425374 0.418431
vt 0.424835 0.419364
vt 0.424297 0.418431
vt 0.428067 0.419364
vt 0.430221 0.419364
vt 0.421604 0.419364
vt 0.423758 0.419364
vt 0.425912 0.419364
vt 0.419449 0.419364
vt 0.418911 0.418431
vt 0.425912 0.417498
vt 0.426451 0.416566
vt 0.426451 0.418431
vt 0.425374 0.418431
vt 0.428605 0.418431
vt 0.427528 0.418431
vt 0.429683 0.418431
vt 0.424297 0.418431
vt 0.423219 0.418431
vt 0.422142 0.418431
vt 0.421065 0.418431
vt 0.419988 0.418431
vt 0.418911 0.418431
vn 0.0000 0.1631 -0.9866
vn -0.1338 0.1608 -0.9779
vn 0.3720 -0.1489 0.9162
vn 0.9793 0.0394 -0.1984
vn 0.2920 -0.1541 0.9439
vn 1.0000 0.0072 -0.0028
vn -0.3580 -0.1547 0.9208
vn 0.8173 -0.0886 0.5693
vn -0.7525 -0.1124 0.6490
vn -0.9504 -0.0570 0.3058
vn -0.4558 -0.1482 0.8776
vn -0.8969 0.0662 -0.4373
vn -0.6328 -0.1305 0.7633
vn -0.9162 0.0593 -0.3964
vn 0.8089 0.1012 -0.5792
vn 0.3984 0.1522 -0.9045
vn 0.4186 -0.1454 0.8964
vn -0.0667 0.8953 0.4404
vn 0.8868 -0.3165 -0.3366
vn -0.9393 0.3120 0.1428
vn 0.2309 0.8370 0.4960
vn -0.0001 0.8858 0.4640
vn -0.2215 0.8175 0.5316
vn 0.0000 1.0000 0.0000
vn 0.2857 0.8149 0.5043
vn -0.0002 0.8788 0.4772
vn -0.3436 0.7207 0.6021
vn -0.4543 0.1423 -0.8794
vn -0.5912 -0.1354 0.7951
vn -0.0118 -0.1322 -0.9911
vn 0.6010 -0.4989 -0.6244
vn -0.2035 -0.7927 -0.5746
vn 0.8129 -0.5749 -0.0926
vn 0.9769 0.0119 -0.2134
vn -0.7421 -0.1183 -0.6597
vn -0.2608 0.5962 -0.7592
vn 0.5654 0.3656 -0.7393
vn 0.9106 -0.2116 0.3550
vn -0.2506 -0.9680 -0.0142
vn 0.3307 -0.9413 -0.0676
vn 0.0153 -0.9042 0.4268
vn -0.9881 -0.0595 -0.1415
vn -0.7643 -0.6364 -0.1039
vn -0.8759 -0.2886 0.3866
vn -0.3379 0.9007 -0.2730
vn -0.8121 0.5234 -0.2580
vn -0.5760 0.7821 0.2378
vn 0.7647 0.5947 -0.2481
vn 0.2559 0.9125 -0.3192
vn 0.5148 0.8290 0.2185
vn 0.5606 -0.7306 0.3897
vn -0.4944 -0.7537 0.4330
vn -0.9004 0.3077 0.3074
vn -0.0307 0.9785 0.2036
vn 0.8866 0.3698 0.2777
vn 0.5950 -0.5376 -0.5974
vn -0.2027 -0.8223 -0.5317
vn -0.9642 0.1605 -0.2109
vn -0.4069 -0.9098 0.0814
vn -0.7497 -0.1443 -0.6459
vn -0.2719 0.6135 -0.7414
vn 0.5656 0.3525 -0.7454
vn -0.1109 0.2113 0.9711
vn 0.7302 0.3236 -0.6016
vn -0.0625 -0.1594 0.9852
vn 0.3977 -0.8139 0.4234
vn 0.9447 -0.3267 -0.0279
vn 0.1423 0.2196 0.9651
vn 0.8915 0.0872 -0.4444
vn 0.1513 0.6110 0.7770
vn 0.0964 0.0100 0.9953
vn 0.7713 -0.3604 0.5246
vn -0.6957 -0.3223 0.6419
vn -0.0706 0.0025 0.9975
vn -0.1050 0.4334 0.8950
vn 0.2537 -0.0310 0.9668
vn 0.0617 0.1863 0.9805
vn 0.1713 0.0630 0.9832
vn 0.0236 -0.0124 0.9996
vn -0.1399 0.0603 0.9883
vn -0.6182 0.3677 0.6947
vn -0.5506 0.5236 0.6501
vn -0.2296 0.6957 -0.6806
vn -0.7975 0.6008 -0.0551
vn 0.5153 0.6461 -0.5630
vn -0.4038 0.4551 0.7936
vn 0.2380 0.4550 0.8581
vn 0.5379 0.5908 0.6013
vn 0.6872 0.6251 0.3702
vn 0.6958 0.7140 -0.0777
usemtl basematerial
s off
f 71/1/1 115/2/1 114/3/1 70/4/1
f 70/4/2 114/3/2 113/5/2 69/6/2
f 61/7/3 94/8/3 88/9/3 56/10/3
f 68/11/4 87/12/4 104/13/4 67/14/4
f 60/15/5 85/16/5 93/17/5 59/18/5
f 67/14/6 104/13/6 103/19/6 66/20/6
f 59/18/7 93/17/7 92/21/7 58/22/7
f 66/20/8 103/19/8 86/23/8 54/24/8
f 58/22/9 92/21/9 91/25/9 57/26/9
f 65/27/10 83/28/10 102/29/10 64/30/10
f 57/26/11 91/25/11 84/31/11 53/32/11
f 64/30/12 102/29/12 101/33/12 63/34/12
f 55/35/13 90/36/13 89/37/13 62/38/13
f 63/34/14 101/33/14 90/36/14 55/35/14
f 56/10/15 88/9/15 87/12/15 68/11/15
f 69/6/16 113/5/16 94/8/16 61/7/16
f 54/24/17 86/23/17 85/16/17 60/15/17
f 76/39/18 75/40/18 82/41/18 81/42/18 80/43/18 79/44/18 78/45/18 77/46/18 74/47/18 73/48/18
f 100/49/19 87/50/19 88/51/19 94/52/19
f 101/53/20 97/54/20 89/55/20 90/56/20
f 97/54/21 98/57/21 96/58/21 89/55/21
f 98/57/22 99/59/22 95/60/22 96/58/22
f 99/59/23 100/49/23 94/52/23 95/60/23
f 93/61/24 85/62/24 111/63/24 109/64/24
f 109/64/24 111/63/24 112/65/24 110/66/24
f 110/66/24 112/65/24 100/49/24 99/59/24
f 92/67/24 93/61/24 109/64/24 107/68/24
f 107/68/24 109/64/24 110/66/24 108/69/24
f 108/69/24 110/66/24 99/59/24 98/57/24
f 91/70/24 92/67/24 107/68/24 105/71/24
f 105/71/24 107/68/24 108/69/24 106/72/24
f 106/72/24 108/69/24 98/57/24 97/54/24
f 84/73/24 91/70/24 105/71/24 83/74/24
f 83/74/24 105/71/24 106/72/24 102/75/24
f 102/75/24 106/72/24 97/54/24 101/53/24
f 85/62/24 86/76/24 103/77/24 111/63/24
f 111/63/24 103/77/24 104/78/24 112/65/24
f 112/65/24 104/78/24 87/50/24 100/49/24
f 89/55/25 96/58/25 115/79/25 116/80/25
f 96/58/26 95/60/26 114/81/26 115/79/26
f 95/60/27 94/52/27 113/82/27 114/81/27
f 72/83/1 116/84/1 115/2/1 71/1/1
f 62/38/28 89/37/28 116/84/28 72/83/28
f 53/32/29 84/31/29 83/28/29 65/27/29
s 1
f 1/85/30 8/86/31 7/87/32
f 2/88/33 8/89/31 10/90/34
f 1/91/30 7/92/32 12/93/35
f 1/94/30 12/95/35 14/96/36
f 1/97/30 14/98/36 11/99/37
f 2/88/33 10/90/34 17/100/38
f 3/101/39 9/102/40 19/103/41
f 4/104/42 13/105/43 21/106/44
f 5/107/45 15/108/46 23/109/47
f 6/110/48 16/111/49 25/112/50
f 2/88/33 17/100/38 20/113/51
f 3/101/39 19/103/41 22/114/52
f 4/104/42 21/106/44 24/115/53
f 5/107/45 23/109/47 26/116/54
f 6/110/48 25/112/50 18/117/55
f 25/112/50 16/111/49 26/116/54
f 16/111/49 5/107/45 26/116/54
f 23/109/47 15/108/46 24/115/53
f 15/108/46 4/104/42 24/115/53
f 21/106/44 13/105/43 22/118/52
f 13/105/43 3/119/39 22/118/52
f 19/103/41 9/102/40 20/113/51
f 9/102/40 2/88/33 20/113/51
f 17/100/38 10/90/34 18/117/55
f 10/90/34 6/110/48 18/117/55
f 11/99/37 16/111/49 6/110/48
f 11/99/37 14/98/36 16/111/49
f 14/98/36 5/107/45 16/111/49
f 14/96/36 15/108/46 5/107/45
f 14/96/36 12/95/35 15/108/46
f 12/95/35 4/104/42 15/108/46
f 12/93/35 13/105/43 4/104/42
f 12/93/35 7/92/32 13/105/43
f 7/92/32 3/119/39 13/105/43
f 10/90/34 11/120/37 6/110/48
f 10/90/34 8/89/31 11/120/37
f 8/89/31 1/121/30 11/120/37
f 7/87/32 9/102/40 3/101/39
f 7/87/32 8/86/31 9/102/40
f 8/86/31 2/88/33 9/102/40
f 27/122/30 34/123/56 33/124/57
f 28/125/58 34/126/56 36/127/59
f 27/128/30 33/129/57 38/130/60
f 27/131/30 38/132/60 40/133/61
f 27/134/30 40/135/61 37/136/62
f 28/125/58 43/137/63 36/127/59
f 29/138/64 45/139/65 35/140/66
f 30/141/67 47/142/68 39/143/69
f 31/144/70 49/145/71 41/146/72
f 32/147/73 51/148/74 42/149/75
f 28/125/58 46/150/76 43/137/63
f 29/138/64 48/151/77 45/139/65
f 30/141/67 50/152/78 47/142/68
f 31/144/70 52/153/79 49/145/71
f 32/147/73 44/154/80 51/148/74
f 51/148/74 52/153/79 42/149/75
f 42/149/75 52/153/79 31/144/70
f 49/145/71 50/152/78 41/146/72
f 41/146/72 50/152/78 30/141/67
f 47/142/68 48/155/77 39/143/69
f 39/143/69 48/155/77 29/156/64
f 45/139/65 46/150/76 35/140/66
f 35/140/66 46/150/76 28/125/58
f 43/137/63 44/154/80 36/127/59
f 36/127/59 44/154/80 32/147/73
f 37/136/62 42/149/75 32/147/73
f 37/136/62 40/135/61 42/149/75
f 40/135/61 31/144/70 42/149/75
f 40/133/61 41/146/72 31/144/70
f 40/133/61 38/132/60 41/146/72
f 38/132/60 30/141/67 41/146/72
f 38/130/60 39/143/69 30/141/67
f 38/130/60 33/129/57 39/143/69
f 33/129/57 29/156/64 39/143/69
f 36/127/59 37/157/62 32/147/73
f 36/127/59 34/126/56 37/157/62
f 34/126/56 27/158/30 37/157/62
f 33/124/57 35/140/66 29/138/64
f 33/124/57 34/123/56 35/140/66
f 34/123/56 28/125/58 35/140/66
f 18/117/55 25/112/50 51/148/74 44/154/80
f 26/116/54 23/109/47 49/145/71 52/153/79
f 24/115/53 21/106/44 47/142/68 50/152/78
f 22/114/52 19/103/41 45/139/65 48/151/77
f 20/113/51 17/100/38 43/137/63 46/150/76
f 25/112/50 26/116/54 52/153/79 51/148/74
f 23/109/47 24/115/53 50/152/78 49/145/71
f 21/106/44 22/118/52 48/155/77 47/142/68
f 19/103/41 20/113/51 46/150/76 45/139/65
f 17/100/38 18/117/55 44/154/80 43/137/63
f 32/147/73 36/127/59 75/159/81 82/160/82
f 28/125/58 35/140/66 73/161/83 76/162/84
f 36/127/59 28/125/58 76/162/84 75/159/81
f 35/140/66 29/138/64 74/163/85 73/161/83
f 31/144/70 42/149/75 81/164/86 80/165/87
f 30/141/67 41/146/72 79/166/88 78/167/89
f 42/149/75 32/147/73 82/160/82 81/164/86
f 39/143/69 30/141/67 78/167/89 77/168/90
f 29/156/64 39/143/69 77/168/90 74/169/85
f 41/146/72 31/144/70 80/165/87 79/166/88
