# Blender v2.81 (sub 16) OBJ File: 'assets.blend'
# www.blender.org
mtllib glass-type-01.mtl
o glass-type-01
v 0.001397 0.001641 -0.000000
v 0.020072 0.031604 0.013137
v -0.005736 0.031604 0.021257
v -0.021687 0.031604 -0.000000
v -0.005736 0.031604 -0.021257
v 0.020072 0.031604 -0.013137
v -0.002796 0.003030 0.012494
v 0.012373 0.003031 0.007722
v 0.008181 0.026043 0.020216
v 0.023350 0.026043 -0.000000
v 0.012373 0.003031 -0.007722
v -0.012171 0.003031 -0.000000
v -0.016364 0.026043 0.012494
v -0.002796 0.003030 -0.012494
v -0.016364 0.026043 -0.012494
v 0.008181 0.026043 -0.020216
v 0.025942 0.049555 0.007722
v 0.025942 0.049555 -0.007722
v 0.001397 0.049555 0.024989
v 0.016566 0.049555 0.020216
v -0.023148 0.049555 0.007722
v -0.013773 0.049555 0.020216
v -0.013773 0.049555 -0.020216
v -0.023148 0.049555 -0.007722
v 0.016566 0.049555 -0.020216
v 0.001397 0.049555 -0.024989
v 0.001397 0.004145 -0.000000
v 0.019411 0.032724 0.012673
v -0.005484 0.032724 0.020505
v -0.020871 0.032724 -0.000000
v -0.005484 0.032724 -0.020505
v 0.019411 0.032724 -0.012673
v -0.002648 0.005161 0.012053
v 0.011985 0.005161 0.007449
v 0.007941 0.027360 0.019502
v 0.022574 0.027360 -0.000000
v 0.011985 0.005161 -0.007449
v -0.011692 0.005161 -0.000000
v -0.015736 0.027360 0.012053
v -0.002648 0.005161 -0.012053
v -0.015736 0.027360 -0.012053
v 0.007941 0.027360 -0.019502
v 0.025091 0.050110 0.007469
v 0.025091 0.050110 -0.007469
v 0.001383 0.050110 0.024127
v 0.016055 0.050110 0.019512
v -0.022307 0.050110 0.007443
v -0.013239 0.050110 0.019528
v -0.013239 0.050110 -0.019528
v -0.022307 0.050110 -0.007443
v 0.016055 0.050110 -0.019512
v 0.001383 0.050110 -0.024127
vt 0.433867 0.431235
vt 0.433867 0.431235
vt 0.433867 0.431235
vt 0.433867 0.431235
vt 0.433867 0.431235
vt 0.433867 0.431235
vt 0.433867 0.431235
vt 0.433867 0.431235
vt 0.433867 0.431235
vt 0.433867 0.431235
vt 0.433867 0.431235
vt 0.433867 0.431235
vt 0.433867 0.431235
vt 0.433867 0.431235
vt 0.433867 0.431235
vt 0.433867 0.431235
vt 0.433867 0.431235
vt 0.433867 0.431235
vt 0.433867 0.431235
vt 0.433867 0.431235
vt 0.433867 0.431235
vt 0.433867 0.431235
vt 0.433867 0.431235
vt 0.433867 0.431235
vt 0.433867 0.431235
vt 0.433867 0.431235
vt 0.433867 0.431235
vt 0.433867 0.431235
vt 0.433867 0.431235
vt 0.433867 0.431235
vt 0.433867 0.431235
vt 0.433867 0.431235
vt 0.433867 0.431235
vt 0.433867 0.431235
vt 0.433867 0.431235
vt 0.433867 0.431235
vt 0.433867 0.431235
vt 0.433867 0.431235
vt 0.433867 0.431235
vt 0.433867 0.431235
vt 0.433867 0.431235
vt 0.433867 0.431235
vt 0.433867 0.431235
vt 0.433867 0.431235
vt 0.433867 0.431235
vt 0.433867 0.431235
vt 0.433867 0.431235
vt 0.433867 0.431235
vt 0.433867 0.431235
vt 0.433867 0.431235
vt 0.433867 0.431235
vt 0.433867 0.431235
vn 0.0000 -1.0000 0.0000
vn 0.5438 -0.7364 0.4024
vn -0.2060 -0.7351 0.6459
vn 0.7797 -0.2313 0.5818
vn 0.9593 -0.2821 0.0000
vn -0.6756 -0.7372 0.0000
vn -0.2060 -0.7351 -0.6459
vn 0.5438 -0.7364 -0.4024
vn 0.8749 0.3913 0.2851
vn -0.2937 -0.2275 0.9284
vn 0.2905 -0.2747 0.9166
vn 0.0053 0.3893 0.9211
vn -0.9723 -0.2337 0.0000
vn -0.7702 -0.2793 0.5734
vn -0.8715 0.3914 0.2954
vn -0.2937 -0.2275 -0.9284
vn -0.7702 -0.2793 -0.5734
vn -0.5374 0.3901 -0.7476
vn 0.7797 -0.2313 -0.5818
vn 0.2905 -0.2747 -0.9166
vn 0.5286 0.3901 -0.7538
vn 0.5286 0.3901 0.7538
vn -0.5374 0.3901 0.7476
vn -0.8715 0.3914 -0.2954
vn 0.0053 0.3893 -0.9211
vn 0.8749 0.3913 -0.2851
vn 0.0000 1.0000 0.0000
vn 0.2040 0.7408 -0.6399
vn -0.5388 0.7420 -0.3989
vn -0.7797 0.2317 -0.5817
vn -0.9593 0.2823 0.0000
vn 0.6696 0.7427 0.0000
vn 0.2040 0.7408 0.6399
vn -0.5388 0.7420 0.3989
vn -0.2606 0.9624 -0.0760
vn 0.2936 0.2279 -0.9283
vn -0.0080 0.9615 -0.2747
vn -0.2905 0.2749 -0.9165
vn 0.9722 0.2341 0.0000
vn 0.2557 0.9624 -0.0913
vn 0.7701 0.2794 -0.5734
vn 0.2936 0.2279 0.9283
vn 0.1674 0.9618 0.2164
vn 0.7701 0.2794 0.5734
vn -0.7797 0.2317 0.5817
vn -0.1545 0.9618 0.2258
vn -0.2905 0.2749 0.9165
vn -0.1545 0.9618 -0.2258
vn 0.1674 0.9618 -0.2164
vn 0.2557 0.9624 0.0913
vn -0.0080 0.9615 0.2747
vn -0.2606 0.9624 0.0760
usemtl basematerial
s 1
f 1/1/1 8/2/2 7/3/3
f 2/4/4 8/2/2 10/5/5
f 1/1/1 7/3/3 12/6/6
f 1/1/1 12/6/6 14/7/7
f 1/1/1 14/7/7 11/8/8
f 2/4/4 10/5/5 17/9/9
f 3/10/10 9/11/11 19/12/12
f 4/13/13 13/14/14 21/15/15
f 5/16/16 15/17/17 23/18/18
f 6/19/19 16/20/20 25/21/21
f 2/4/4 17/9/9 20/22/22
f 3/10/10 19/12/12 22/23/23
f 4/13/13 21/15/15 24/24/24
f 5/16/16 23/18/18 26/25/25
f 6/19/19 25/21/21 18/26/26
f 25/21/21 16/20/20 26/25/25
f 16/20/20 5/16/16 26/25/25
f 23/18/18 15/17/17 24/24/24
f 15/17/17 4/13/13 24/24/24
f 21/15/15 13/14/14 22/23/23
f 13/14/14 3/10/10 22/23/23
f 19/12/12 9/11/11 20/22/22
f 9/11/11 2/4/4 20/22/22
f 17/9/9 10/5/5 18/26/26
f 10/5/5 6/19/19 18/26/26
f 11/8/8 16/20/20 6/19/19
f 11/8/8 14/7/7 16/20/20
f 14/7/7 5/16/16 16/20/20
f 14/7/7 15/17/17 5/16/16
f 14/7/7 12/6/6 15/17/17
f 12/6/6 4/13/13 15/17/17
f 12/6/6 13/14/14 4/13/13
f 12/6/6 7/3/3 13/14/14
f 7/3/3 3/10/10 13/14/14
f 10/5/5 11/8/8 6/19/19
f 10/5/5 8/2/2 11/8/8
f 8/2/2 1/1/1 11/8/8
f 7/3/3 9/11/11 3/10/10
f 7/3/3 8/2/2 9/11/11
f 8/2/2 2/4/4 9/11/11
f 27/27/27 33/28/28 34/29/29
f 28/30/30 36/31/31 34/29/29
f 27/27/27 38/32/32 33/28/28
f 27/27/27 40/33/33 38/32/32
f 27/27/27 37/34/34 40/33/33
f 28/30/30 43/35/35 36/31/31
f 29/36/36 45/37/37 35/38/38
f 30/39/39 47/40/40 39/41/41
f 31/42/42 49/43/43 41/44/44
f 32/45/45 51/46/46 42/47/47
f 28/30/30 46/48/48 43/35/35
f 29/36/36 48/49/49 45/37/37
f 30/39/39 50/50/50 47/40/40
f 31/42/42 52/51/51 49/43/43
f 32/45/45 44/52/52 51/46/46
f 51/46/46 52/51/51 42/47/47
f 42/47/47 52/51/51 31/42/42
f 49/43/43 50/50/50 41/44/44
f 41/44/44 50/50/50 30/39/39
f 47/40/40 48/49/49 39/41/41
f 39/41/41 48/49/49 29/36/36
f 45/37/37 46/48/48 35/38/38
f 35/38/38 46/48/48 28/30/30
f 43/35/35 44/52/52 36/31/31
f 36/31/31 44/52/52 32/45/45
f 37/34/34 32/45/45 42/47/47
f 37/34/34 42/47/47 40/33/33
f 40/33/33 42/47/47 31/42/42
f 40/33/33 31/42/42 41/44/44
f 40/33/33 41/44/44 38/32/32
f 38/32/32 41/44/44 30/39/39
f 38/32/32 30/39/39 39/41/41
f 38/32/32 39/41/41 33/28/28
f 33/28/28 39/41/41 29/36/36
f 36/31/31 32/45/45 37/34/34
f 36/31/31 37/34/34 34/29/29
f 34/29/29 37/34/34 27/27/27
f 33/28/28 29/36/36 35/38/38
f 33/28/28 35/38/38 34/29/29
f 34/29/29 35/38/38 28/30/30
f 18/26/26 25/21/21 51/46/46 44/52/52
f 26/25/25 23/18/18 49/43/43 52/51/51
f 24/24/24 21/15/15 47/40/40 50/50/50
f 22/23/23 19/12/12 45/37/37 48/49/49
f 20/22/22 17/9/9 43/35/35 46/48/48
f 25/21/21 26/25/25 52/51/51 51/46/46
f 23/18/18 24/24/24 50/50/50 49/43/43
f 21/15/15 22/23/23 48/49/49 47/40/40
f 19/12/12 20/22/22 46/48/48 45/37/37
f 17/9/9 18/26/26 44/52/52 43/35/35
