# Blender v2.81 (sub 16) OBJ File: 'assets.blend'
# www.blender.org
mtllib knife.mtl
o knife
v -0.007045 0.002519 -0.061140
v 0.008454 0.002519 -0.061140
v 0.004202 0.002519 -0.153113
v 0.008454 0.002519 -0.159296
v -0.003051 0.002519 -0.141366
v -0.010419 0.002519 -0.118373
v -0.009281 0.002519 -0.085022
v 0.008454 0.002519 -0.070257
v 0.008454 0.002519 -0.107127
v 0.008454 0.002519 -0.130120
v -0.008110 0.002414 -0.054420
v 0.009520 0.002414 -0.054420
v -0.009281 0.003698 -0.085022
v -0.007045 0.003698 -0.061140
v 0.008454 0.003698 -0.061140
v 0.008454 0.003698 -0.130120
v 0.008454 0.003698 -0.159296
v 0.004202 0.003698 -0.153113
v -0.003051 0.003698 -0.141366
v -0.010419 0.003698 -0.118373
v 0.008454 0.003698 -0.070257
v 0.008454 0.003698 -0.107127
v -0.007045 0.004623 -0.061140
v 0.008454 0.004623 -0.061140
v -0.008110 0.004807 -0.054420
v 0.009520 0.004807 -0.054420
v -0.008110 0.005502 -0.054420
v 0.009520 0.005502 -0.054420
v -0.007045 0.000748 -0.061140
v 0.008454 0.000748 -0.061140
v -0.008110 0.000400 -0.054420
v 0.009520 0.000400 -0.054420
v -0.005978 0.002562 -0.037750
v -0.007664 0.002494 -0.021079
v -0.005690 0.002574 -0.004409
v 0.007099 0.002574 -0.004409
v 0.009073 0.002494 -0.021079
v 0.007388 0.002562 -0.037750
v -0.005978 0.004903 -0.037750
v -0.007664 0.005425 -0.021079
v -0.005690 0.004814 -0.004409
v 0.007099 0.004814 -0.004409
v 0.009073 0.005425 -0.021079
v 0.007388 0.004903 -0.037750
v -0.005978 0.001035 -0.037750
v -0.007664 0.000582 -0.021079
v -0.005690 0.001113 -0.004409
v 0.007099 0.001113 -0.004409
v 0.009073 0.000582 -0.021079
v 0.007388 0.001035 -0.037750
v -0.010492 0.002519 -0.116410
v 0.008454 0.002519 -0.105164
v -0.010492 0.003698 -0.116410
v 0.008454 0.003698 -0.105164
v -0.010694 0.002519 -0.111007
v -0.010694 0.003698 -0.111007
v 0.008454 0.002519 -0.099761
v 0.008454 0.003698 -0.099761
v -0.010780 0.002519 -0.108690
v -0.010780 0.003698 -0.108690
v 0.008454 0.002519 -0.097444
v 0.008454 0.003698 -0.097444
v -0.004961 0.002604 0.005711
v 0.006370 0.002604 0.005711
v -0.006428 0.002544 -0.004962
v -0.004961 0.004588 0.005711
v 0.006370 0.004588 0.005711
v -0.006428 0.005042 -0.004962
v -0.004961 0.001309 0.005711
v 0.006370 0.001309 0.005711
v -0.006428 0.000914 -0.004962
v 0.007838 0.002544 -0.004962
v 0.007838 0.005042 -0.004962
v 0.007838 0.000914 -0.004962
vt 0.000000 0.000000
vt 1.000000 0.000000
vt 1.000000 0.000000
vt 0.000000 0.000000
vt 0.556886 0.722614
vt 0.556886 0.722614
vt 0.556886 0.722614
vt 0.556886 0.722614
vt 0.487696 0.716549
vt 0.487696 0.716549
vt 0.487696 0.716549
vt 0.487696 0.716549
vt 0.556886 0.722614
vt 0.556886 0.722614
vt 0.556886 0.722614
vt 0.556886 0.722614
vt 0.022687 0.973588
vt 0.022336 0.971302
vt 0.023589 0.971386
vt 0.022979 0.973558
vt 0.080468 0.970010
vt 0.080468 0.970010
vt 0.080468 0.970010
vt 0.080468 0.970010
vt 0.487696 0.716549
vt 0.487696 0.716549
vt 0.487696 0.716549
vt 0.487696 0.716549
vt 0.487696 0.716549
vt 0.487696 0.716549
vt 0.556886 0.717627
vt 0.546467 0.717627
vt 0.546467 0.717405
vt 0.556886 0.717405
vt 0.487696 0.716549
vt 0.487696 0.716549
vt 0.487696 0.716549
vt 0.487696 0.716549
vt 0.487696 0.716549
vt 0.556886 0.722614
vt 0.556886 0.722614
vt 0.487696 0.716549
vt 0.487696 0.716549
vt 0.556886 0.722614
vt 0.556886 0.722614
vt 0.556886 0.722614
vt 0.556886 0.722614
vt 0.023078 0.975109
vt 0.024956 0.977801
vt 0.000000 0.000000
vt 1.000000 0.000000
vt 0.023029 0.978561
vt 0.022824 0.975155
vt 0.000000 0.000000
vt 1.000000 0.000000
vt 1.000000 0.000000
vt 0.000000 0.000000
vt 0.080468 0.970010
vt 0.080468 0.970010
vt 0.080468 0.970010
vt 0.080468 0.970010
vt 0.000000 0.000000
vt 1.000000 0.000000
vt 0.080468 0.970010
vt 0.080468 0.970010
vt 0.080468 0.970010
vt 0.080468 0.970010
vt 0.487696 0.716549
vt 0.487696 0.716549
vt 0.487696 0.716549
vt 0.487696 0.716549
vt 0.080468 0.970010
vt 0.080468 0.970010
vt 0.080468 0.970010
vt 0.080468 0.970010
vt 0.021334 0.971602
vt 0.022394 0.973632
vt 0.022602 0.975167
vt 0.021334 0.978253
vt 1.000000 0.000000
vt 0.000000 0.000000
vt 0.080468 0.970010
vt 0.080468 0.970010
vt 0.080468 0.970010
vt 0.080468 0.970010
vt 0.080468 0.970010
vt 0.080468 0.970010
vt 0.080468 0.970010
vt 0.080468 0.970010
vt 0.080468 0.970010
vt 0.080468 0.970010
vt 0.080468 0.970010
vt 0.080468 0.970010
vt 0.080468 0.970010
vt 0.080468 0.970010
vt 0.487696 0.716549
vt 0.487696 0.716549
vt 0.556886 0.722614
vt 0.556886 0.722614
vt 0.487696 0.716549
vt 0.487696 0.716549
vt 0.487696 0.716549
vt 0.556886 0.718502
vt 0.546467 0.718502
vt 0.546467 0.718239
vt 0.556886 0.718239
vt 0.487696 0.716549
vt 0.487696 0.716549
vt 0.487696 0.716549
vt 0.556886 0.722614
vt 0.556886 0.722614
vt 0.487696 0.716549
vt 0.487696 0.716549
vt 0.487696 0.716549
vt 0.023870 0.974931
vt 0.023870 0.974931
vt 0.023870 0.974931
vt 0.023870 0.974931
vt 0.023870 0.974931
vt 0.023870 0.974931
vt 0.023870 0.974931
vt 0.023870 0.974931
vt 0.023869 0.974931
vt 0.023870 0.974931
vt 0.023870 0.974931
vt 0.023870 0.974931
vn 0.0000 0.0000 1.0000
vn -0.8509 0.0000 -0.5253
vn 1.0000 0.0000 0.0000
vn -0.9956 0.0000 0.0933
vn -0.9877 0.0000 -0.1566
vn 0.9919 0.0000 0.1269
vn 0.0000 1.0000 0.0000
vn -0.9523 0.0000 -0.3051
vn -0.9980 0.0000 0.0632
vn -0.8239 0.0000 -0.5667
vn 0.0000 0.9996 -0.0275
vn 0.0000 0.0000 -1.0000
vn 0.9877 0.0000 -0.1566
vn -0.5990 0.0000 -0.8007
vn 0.0000 0.9410 -0.3385
vn 0.0000 -1.0000 0.0000
vn 0.0000 -0.9993 0.0381
vn 0.0000 -0.9987 -0.0518
vn -0.9919 0.0000 0.1269
vn 0.0000 -0.9240 -0.3825
vn -0.9931 0.0000 0.1176
vn -0.9949 0.0000 -0.1006
vn 0.5990 0.0000 -0.8007
vn 0.0000 -0.9995 0.0319
vn 0.0000 -0.9996 -0.0272
vn 0.9949 0.0000 -0.1006
vn 0.9931 0.0000 0.1176
vn 0.0000 0.9994 0.0359
vn 0.0000 0.9995 -0.0313
vn 0.0000 0.9993 0.0367
vn -0.9993 0.0000 -0.0373
vn 0.0000 0.9991 0.0425
vn -0.9907 0.0000 0.1362
vn 0.9907 0.0000 0.1362
vn 0.0000 -0.9993 0.0370
usemtl basematerial
s off
f 1/1/1 2/2/1 15/3/1 14/4/1
f 3/5/2 5/6/2 19/7/2 18/8/2
f 2/9/3 8/10/3 21/11/3 15/12/3
f 7/13/4 1/14/4 14/15/4 13/16/4
f 1/17/5 11/18/5 25/19/5 23/20/5
f 38/21/6 12/22/6 28/23/6 44/24/6
f 19/25/7 16/26/7 17/27/7 18/28/7
f 14/29/7 15/12/7 21/11/7 13/30/7
f 53/31/7 54/32/7 22/33/7 20/34/7
f 20/35/7 22/36/7 16/26/7 19/25/7
f 52/37/3 9/38/3 22/36/3 54/39/3
f 5/6/8 6/40/8 20/41/8 19/7/8
f 10/42/3 4/43/3 17/27/3 16/26/3
f 9/38/3 10/42/3 16/26/3 22/36/3
f 59/44/9 7/13/9 13/16/9 60/45/9
f 4/46/10 3/5/10 18/8/10 17/47/10
f 24/48/11 23/20/11 25/19/11 26/49/11
f 2/2/12 1/1/12 23/50/12 24/51/12
f 12/52/13 2/53/13 24/48/13 26/49/13
f 11/54/1 12/55/1 26/56/1 25/57/1
f 36/58/14 42/59/14 73/60/14 72/61/14
f 12/55/12 11/54/12 27/62/12 28/63/12
f 48/64/14 36/58/14 72/61/14 74/65/14
f 47/66/15 48/64/15 74/65/15 71/67/15
f 51/68/16 6/69/16 5/70/16 3/71/16 4/43/16 10/42/16 9/38/16 52/37/16
f 45/72/17 31/73/17 32/74/17 50/75/17
f 31/76/18 29/77/18 30/78/18 32/79/18
f 11/18/5 1/17/5 29/77/5 31/76/5
f 1/1/12 2/2/12 30/80/12 29/81/12
f 33/82/19 11/83/19 31/73/19 45/72/19
f 2/53/13 12/52/13 32/79/13 30/78/13
f 42/59/20 41/84/20 68/85/20 73/60/20
f 35/86/21 34/87/21 46/88/21 47/66/21
f 34/87/22 33/82/22 45/72/22 46/88/22
f 41/84/23 35/86/23 65/89/23 68/85/23
f 47/66/24 46/88/24 49/90/24 48/64/24
f 46/88/25 45/72/25 50/75/25 49/90/25
f 12/22/6 38/21/6 50/75/6 32/74/6
f 38/21/26 37/91/26 49/90/26 50/75/26
f 37/91/27 36/58/27 48/64/27 49/90/27
f 11/83/19 33/82/19 39/92/19 27/93/19
f 33/82/22 34/87/22 40/94/22 39/92/22
f 34/87/21 35/86/21 41/84/21 40/94/21
f 28/23/28 27/93/28 39/92/28 44/24/28
f 44/24/29 39/92/29 40/94/29 43/95/29
f 43/95/30 40/94/30 41/84/30 42/59/30
f 35/86/23 47/66/23 71/67/23 65/89/23
f 36/58/27 37/91/27 43/95/27 42/59/27
f 37/91/26 38/21/26 44/24/26 43/95/26
f 55/96/16 51/68/16 52/37/16 57/97/16
f 6/40/31 51/98/31 53/99/31 20/41/31
f 57/97/3 52/37/3 54/39/3 58/100/3
f 56/101/7 58/100/7 54/39/7 53/102/7
f 60/103/7 62/104/7 58/105/7 56/106/7
f 61/107/3 57/97/3 58/100/3 62/108/3
f 59/109/16 55/96/16 57/97/16 61/107/16
f 51/98/31 55/110/31 56/111/31 53/99/31
f 7/112/16 59/109/16 61/107/16 8/10/16 2/9/16 1/113/16
f 8/10/3 61/107/3 62/108/3 21/11/3
f 13/30/7 21/11/7 62/108/7 60/114/7
f 55/110/31 59/44/31 60/45/31 56/111/31
f 73/115/32 68/116/32 66/117/32 67/118/32
f 63/119/1 64/120/1 67/118/1 66/117/1
f 65/121/33 63/119/33 66/117/33 68/116/33
f 64/120/1 63/119/1 69/122/1 70/123/1
f 72/124/34 64/120/34 70/123/34 74/125/34
f 63/119/33 65/121/33 71/126/33 69/122/33
f 69/122/35 71/126/35 74/125/35 70/123/35
f 64/120/34 72/124/34 73/115/34 67/118/34
