# Blender v2.81 (sub 16) OBJ File: 'assets.blend'
# www.blender.org
mtllib plants-type-001.mtl
o plants-type-001
v 0.000000 0.005102 -0.206497
v 0.000000 0.418096 -0.170070
v 0.178832 0.005102 -0.103248
v 0.147285 0.418096 -0.085035
v 0.178832 0.005102 0.103248
v 0.147285 0.418096 0.085035
v -0.000000 0.005102 0.206497
v -0.000000 0.418096 0.170070
v -0.178832 0.005102 0.103248
v -0.147285 0.418096 0.085035
v -0.178832 0.005102 -0.103248
v -0.147285 0.418096 -0.085035
v 0.178832 0.418096 -0.103248
v 0.000000 0.418096 -0.206497
v 0.178832 0.418096 0.103248
v -0.000000 0.418096 0.206497
v -0.178832 0.418096 0.103248
v -0.178832 0.418096 -0.103248
v 0.147285 0.360847 -0.085035
v 0.000000 0.360847 -0.170070
v 0.147285 0.360847 0.085035
v -0.000000 0.360847 0.170070
v -0.147285 0.360847 0.085035
v -0.147285 0.360847 -0.085035
v 0.041295 0.444311 0.118132
v -0.108113 0.444311 0.073009
v -0.108113 0.444311 -0.073009
v 0.041295 0.444311 -0.118132
v 0.133634 0.444310 -0.000000
v -0.000000 0.552657 -0.000000
v 0.142096 0.356654 0.042914
v 0.142096 0.356654 -0.042914
v -0.000000 0.356654 0.138873
v 0.087820 0.356654 0.112351
v -0.142096 0.356654 0.042914
v -0.087820 0.356654 0.112351
v -0.087820 0.356654 -0.112351
v -0.142096 0.356654 -0.042914
v 0.087820 0.356654 -0.112351
v -0.000000 0.356654 -0.138873
v 0.102821 0.459700 0.069436
v -0.039275 0.459700 0.112350
v -0.127094 0.459700 -0.000000
v -0.039275 0.459700 -0.112350
v 0.102821 0.459700 -0.069436
v 0.024272 0.523385 0.069436
v 0.078548 0.523384 -0.000000
v -0.063547 0.523385 0.042913
v -0.063547 0.523385 -0.042913
v 0.024272 0.523385 -0.069436
v 0.045985 0.598973 -0.042396
v 0.048726 0.597952 -0.042396
v 0.116804 0.547975 0.059741
v 0.119627 0.547975 0.056130
v -0.074121 0.615314 -0.032018
v -0.078910 0.613108 -0.028784
v 0.063410 0.583357 0.046697
v 0.062514 0.584437 0.044135
v -0.045005 0.576195 0.097126
v -0.049957 0.576195 0.095630
v -0.041732 0.594516 -0.051986
v -0.040653 0.593214 -0.055075
v 0.103644 0.530514 -0.086487
v 0.098215 0.530514 -0.093433
v 0.168535 0.507730 -0.043127
v 0.164664 0.513287 -0.043127
v 0.154163 0.498539 0.036354
v 0.153032 0.501505 0.033120
v 0.052742 0.485374 0.114822
v 0.046340 0.490565 0.114822
v -0.067629 0.547160 0.145623
v -0.062449 0.552351 0.142124
v -0.108232 0.542136 0.039778
v -0.101707 0.548675 0.044185
v -0.062860 0.562072 -0.004851
v -0.072256 0.557744 -0.011196
v 0.000149 0.510321 -0.150340
v 0.002604 0.512781 -0.148682
v -0.120628 0.529235 -0.079920
v -0.113169 0.542469 -0.074884
v -0.082956 0.539140 -0.073284
v -0.067258 0.539140 -0.078025
v 0.108983 0.452588 -0.157392
v 0.115966 0.454334 -0.151865
v 0.060201 0.504105 -0.128117
v 0.053368 0.509646 -0.128117
v 0.113617 0.485423 -0.050806
v 0.110198 0.494394 -0.041025
v -0.130445 0.448247 -0.117754
v -0.115429 0.451604 -0.126335
v -0.095910 0.482309 0.108746
v -0.094176 0.485386 0.107575
v -0.106626 0.400761 0.102995
v -0.104801 0.392879 0.106533
v 0.038846 0.445032 0.154031
v 0.024553 0.447762 0.153006
v 0.193691 0.432061 0.014489
v 0.187011 0.435398 0.029542
v -0.190506 0.421600 0.014106
v -0.194062 0.424483 0.000430
vt 0.548856 0.723964
vt 0.548856 0.728526
vt 0.547335 0.728526
vt 0.547335 0.723964
vt 0.545815 0.728526
vt 0.545815 0.723964
vt 0.544294 0.728526
vt 0.544294 0.723964
vt 0.542773 0.728526
vt 0.542773 0.723964
vt 0.542013 0.723487
vt 0.540451 0.722585
vt 0.540451 0.722585
vt 0.542013 0.723487
vt 0.541253 0.728526
vt 0.541253 0.723964
vt 0.539732 0.728526
vt 0.539732 0.723964
vt 0.546575 0.723873
vt 0.548471 0.722778
vt 0.548471 0.720588
vt 0.546575 0.719493
vt 0.544679 0.720588
vt 0.544679 0.722778
vt 0.543575 0.722585
vt 0.543909 0.722778
vt 0.542013 0.723873
vt 0.543575 0.720781
vt 0.543909 0.720588
vt 0.542013 0.719880
vt 0.542013 0.719493
vt 0.540451 0.720781
vt 0.540117 0.720588
vt 0.540117 0.722778
vt 0.542013 0.719880
vt 0.540451 0.720781
vt 0.543575 0.722585
vt 0.543575 0.720781
vt 0.322499 0.493688
vt 0.320506 0.493688
vt 0.321502 0.495414
vt 0.326484 0.493688
vt 0.324492 0.493688
vt 0.325488 0.495414
vt 0.310541 0.493688
vt 0.308548 0.493688
vt 0.309544 0.495414
vt 0.314527 0.493688
vt 0.312534 0.493688
vt 0.313530 0.495414
vt 0.318513 0.493688
vt 0.316520 0.493688
vt 0.317516 0.495414
vt 0.315523 0.495414
vt 0.316520 0.497140
vt 0.311537 0.495414
vt 0.312534 0.497140
vt 0.307552 0.495414
vt 0.308548 0.497140
vt 0.306555 0.493688
vt 0.323495 0.495414
vt 0.324492 0.497140
vt 0.319509 0.495414
vt 0.320506 0.497140
vt 0.317516 0.491962
vt 0.315523 0.491962
vt 0.313530 0.491962
vt 0.311537 0.491962
vt 0.309544 0.491962
vt 0.307552 0.491962
vt 0.325488 0.491962
vt 0.323495 0.491962
vt 0.321502 0.491962
vt 0.319509 0.491962
vt 0.305559 0.491962
vt 0.317516 0.495414
vt 0.316520 0.497140
vt 0.319509 0.495414
vt 0.321502 0.495414
vt 0.308548 0.497140
vt 0.307552 0.495414
vt 0.324492 0.497140
vt 0.323495 0.495414
vt 0.323495 0.495414
vt 0.325488 0.495414
vt 0.316520 0.497140
vt 0.315523 0.495414
vt 0.315523 0.495414
vt 0.317516 0.495414
vt 0.318513 0.493688
vt 0.317516 0.495414
vt 0.319509 0.495414
vt 0.320506 0.493688
vt 0.321502 0.495414
vt 0.320506 0.493688
vt 0.323495 0.495414
vt 0.324492 0.493688
vt 0.307552 0.495414
vt 0.308548 0.493688
vt 0.312534 0.497140
vt 0.311537 0.495414
vt 0.313530 0.495414
vt 0.312534 0.493688
vt 0.310541 0.493688
vt 0.309544 0.495414
vt 0.311537 0.495414
vt 0.313530 0.495414
vt 0.314527 0.493688
vt 0.316520 0.493688
vt 0.315523 0.495414
vt 0.316520 0.493688
vt 0.317516 0.495414
vt 0.316520 0.493688
vt 0.310541 0.493688
vt 0.312534 0.493688
vt 0.326484 0.493688
vt 0.325488 0.495414
vt 0.325488 0.491962
vt 0.326484 0.493688
vt 0.322499 0.493688
vt 0.324492 0.493688
vt 0.318513 0.493688
vt 0.320506 0.493688
vt 0.306555 0.493688
vt 0.308548 0.493688
vn 0.5000 0.0000 -0.8660
vn 1.0000 0.0000 0.0000
vn 0.5000 0.0000 0.8660
vn -0.5000 0.0000 0.8660
vn -1.0000 0.0000 0.0000
vn -0.5000 0.0000 -0.8660
vn 0.0000 -1.0000 0.0000
vn 0.0000 1.0000 0.0000
vn 0.4362 0.5381 0.7212
vn -0.5053 0.5407 0.6726
vn -0.7696 0.5544 -0.3169
vn 0.0405 0.5303 -0.8469
vn 0.7983 0.5561 -0.2310
vn 0.3369 0.9040 -0.2633
vn 0.5650 0.6969 -0.4417
vn 0.4362 0.5381 -0.7212
vn -0.1277 0.8972 -0.4229
vn -0.2113 0.6824 -0.6998
vn -0.5053 0.5407 -0.6726
vn -0.4184 0.9083 0.0000
vn -0.7079 0.7063 0.0000
vn -0.7696 0.5544 0.3169
vn -0.1277 0.8972 0.4229
vn -0.2113 0.6824 0.6998
vn 0.0405 0.5303 0.8469
vn 0.3369 0.9040 0.2633
vn 0.5650 0.6969 0.4417
vn 0.7983 0.5561 0.2310
vn 0.9034 0.2557 -0.3442
vn 0.7801 0.1404 -0.6097
vn 0.5628 0.2467 -0.7890
vn -0.0237 0.2407 -0.9703
vn -0.2865 0.1350 -0.9485
vn -0.5218 0.2458 -0.8169
vn -0.9210 0.2563 -0.2935
vn -0.9896 0.1441 0.0000
vn -0.9210 0.2563 0.2935
vn -0.5218 0.2458 0.8169
vn -0.2865 0.1350 0.9485
vn -0.0237 0.2407 0.9703
vn 0.5628 0.2467 0.7890
vn 0.7801 0.1404 0.6097
vn 0.9034 0.2557 0.3442
vn 0.2879 0.0899 -0.9534
vn -0.7844 0.0936 -0.6131
vn -0.7844 0.0936 0.6131
vn 0.2879 0.0899 0.9534
vn 0.9954 0.0961 0.0000
vn 0.2027 0.5440 0.8142
vn 0.2717 -0.9387 0.2124
vn 0.2122 0.6320 0.7454
vn 0.6420 -0.6000 -0.4774
vn -0.2169 -0.6611 0.7182
vn -0.7285 -0.6843 0.0338
vn 0.0765 -0.9953 -0.0598
vn 0.4542 0.3164 0.8328
vn 0.0968 -0.7164 -0.6909
vn 0.6102 0.7526 0.2475
vn 0.6207 -0.0949 0.7783
vn -0.2231 -0.3818 0.8969
vn -0.1579 -0.6911 0.7053
vn -0.7406 0.6622 0.1139
vn 0.5448 0.0121 -0.8385
vn -0.1196 -0.9105 -0.3959
vn 0.1729 -0.9807 0.0914
vn -0.6245 -0.7703 -0.1293
vn -0.3194 0.6401 -0.6987
vn 0.1321 -0.9795 -0.1521
vn -0.8848 0.4368 -0.1624
vn -0.7003 -0.4209 -0.5765
vn -0.1881 -0.9821 0.0069
vn -0.2250 -0.9676 0.1146
vn 0.4434 -0.8468 -0.2938
usemtl basematerial
s off
f 1/1/1 14/2/1 13/3/1 3/4/1
f 3/4/2 13/3/2 15/5/2 5/6/2
f 5/6/3 15/5/3 16/7/3 7/8/3
f 7/8/4 16/7/4 17/9/4 9/10/4
f 2/11/3 12/12/3 24/13/3 20/14/3
f 9/10/5 17/9/5 18/15/5 11/16/5
f 11/16/6 18/15/6 14/17/6 1/18/6
f 1/19/7 3/20/7 5/21/7 7/22/7 9/23/7 11/24/7
f 2/11/8 4/25/8 13/26/8 14/27/8
f 4/25/8 6/28/8 15/29/8 13/26/8
f 6/28/8 8/30/8 16/31/8 15/29/8
f 8/30/8 10/32/8 17/33/8 16/31/8
f 10/32/8 12/12/8 18/34/8 17/33/8
f 12/12/8 2/11/8 14/27/8 18/34/8
f 10/32/1 8/30/1 22/35/1 23/36/1
f 6/28/5 4/25/5 19/37/5 21/38/5
f 12/12/2 10/32/2 23/36/2 24/13/2
f 8/30/6 6/28/6 21/38/6 22/35/6
f 4/25/4 2/11/4 20/14/4 19/37/4
f 25/39/9 41/40/9 46/41/9
f 26/42/10 42/43/10 48/44/10
f 27/45/11 43/46/11 49/47/11
f 28/48/12 44/49/12 50/50/12
f 29/51/13 45/52/13 47/53/13
f 47/53/14 50/54/14 30/55/14
f 47/53/15 45/52/15 50/54/15
f 45/52/16 28/48/16 50/54/16
f 50/50/17 49/56/17 30/57/17
f 50/50/18 44/49/18 49/56/18
f 44/49/19 27/45/19 49/56/19
f 49/47/20 48/58/20 30/59/20
f 49/47/21 43/46/21 48/58/21
f 43/46/22 26/60/22 48/58/22
f 48/44/23 46/61/23 30/62/23
f 48/44/24 42/43/24 46/61/24
f 42/43/25 25/39/25 46/61/25
f 46/41/26 47/63/26 30/64/26
f 46/41/27 41/40/27 47/63/27
f 41/40/28 29/51/28 47/63/28
f 32/65/29 45/52/29 29/51/29
f 32/65/30 39/66/30 45/52/30
f 39/66/31 28/48/31 45/52/31
f 40/67/32 44/49/32 28/48/32
f 40/67/33 37/68/33 44/49/33
f 37/68/34 27/45/34 44/49/34
f 38/69/35 43/46/35 27/45/35
f 38/69/36 35/70/36 43/46/36
f 35/70/37 26/60/37 43/46/37
f 36/71/38 42/43/38 26/42/38
f 36/71/39 33/72/39 42/43/39
f 33/72/40 25/39/40 42/43/40
f 34/73/41 41/40/41 25/39/41
f 34/73/42 31/74/42 41/40/42
f 31/74/43 29/51/43 41/40/43
f 39/66/44 40/67/44 28/48/44
f 37/68/45 38/69/45 27/45/45
f 35/70/46 36/75/46 26/60/46
f 33/72/47 34/73/47 25/39/47
f 31/74/48 32/65/48 29/51/48
f 19/37/8 20/14/8 24/13/8 23/36/8 22/35/8 21/38/8
f 30/55/49 47/53/49 52/76/49 51/77/49
f 46/41/50 47/63/50 54/78/50 53/79/50
f 48/58/51 30/59/51 55/80/51 56/81/51
f 46/61/52 30/62/52 57/82/52 58/83/52
f 48/44/53 46/61/53 59/84/53 60/85/53
f 50/54/54 30/55/54 61/86/54 62/87/54
f 47/53/55 50/54/55 64/88/55 63/89/55
f 47/53/56 29/51/56 65/90/56 66/91/56
f 41/40/57 47/63/57 68/92/57 67/93/57
f 41/40/58 46/41/58 70/94/58 69/95/58
f 42/43/59 46/61/59 72/96/59 71/97/59
f 43/46/60 48/58/60 74/98/60 73/99/60
f 49/56/61 30/57/61 75/100/61 76/101/61
f 44/49/62 50/50/62 78/102/62 77/103/62
f 49/47/63 27/45/63 79/104/63 80/105/63
f 50/50/64 49/56/64 81/106/64 82/107/64
f 45/52/65 28/48/65 83/108/65 84/109/65
f 45/52/66 50/54/66 86/110/66 85/111/66
f 45/52/67 47/53/67 88/112/67 87/113/67
f 44/49/68 27/45/68 89/114/68 90/115/68
f 48/44/69 26/42/69 91/116/69 92/117/69
f 26/42/70 36/71/70 94/118/70 93/119/70
f 42/43/71 25/39/71 95/120/71 96/121/71
f 41/40/72 29/51/72 97/122/72 98/123/72
f 43/46/73 26/60/73 99/124/73 100/125/73
