# Blender v2.81 (sub 16) OBJ File: 'assets.blend'
# www.blender.org
mtllib stone-type-002.mtl
o stone-type-002
v -0.110134 -0.002974 -0.123456
v -0.113602 -0.003942 -0.117391
v -0.116966 -0.003942 -0.120755
v -0.112278 0.081489 -0.100974
v -0.103303 -0.002006 -0.126157
v -0.105736 -0.002974 -0.129575
v -0.112278 0.104381 -0.120362
v 0.095285 -0.002974 0.159627
v 0.090533 -0.003942 0.154505
v 0.094749 -0.003942 0.152301
v 0.074471 0.081489 0.150862
v 0.095821 -0.002006 0.166954
v 0.100036 -0.002006 0.164749
v 0.092973 0.104381 0.101391
v -0.101337 -0.002974 -0.135694
v -0.108169 -0.003942 -0.132993
v -0.103481 0.060659 -0.143462
v 0.107986 0.000000 0.176207
v 0.180385 0.000000 -0.172932
v -0.158335 0.000000 0.110785
v -0.080588 0.000000 -0.218262
v 0.117877 0.000000 0.105210
v 0.147667 0.000000 0.001235
v 0.180639 0.000000 -0.100046
v -0.093679 0.000000 -0.141650
v -0.205921 0.000000 -0.101178
v -0.184882 0.000000 0.019180
v -0.114715 0.000000 0.158738
v -0.078148 0.000000 0.185600
v 0.038656 0.000000 0.191059
v 0.140486 0.000000 -0.208474
v 0.072164 0.000000 -0.252269
v -0.000342 0.000000 -0.239269
v 0.059638 0.000000 0.102306
v -0.053027 0.000000 0.069808
v -0.116897 0.000000 0.056532
v 0.080541 0.000000 -0.027307
v -0.014582 0.000000 -0.047221
v -0.118227 0.000000 -0.069045
v 0.114702 0.000000 -0.132989
v 0.034232 0.000000 -0.157032
v -0.032470 0.000000 -0.148361
v 0.112290 0.000000 0.151212
v 0.075043 0.000000 0.154082
v -0.120416 0.000000 -0.129404
v -0.110383 0.000000 -0.107008
v 0.038594 0.020260 0.191309
v 0.107586 0.020260 0.176510
v 0.179473 0.020260 -0.100481
v 0.179485 0.020260 -0.173254
v -0.000250 0.020260 -0.238229
v -0.080463 0.020260 -0.216857
v -0.183784 0.020260 0.019506
v -0.156764 0.020260 0.110896
v 0.111834 0.020260 0.151446
v 0.117365 0.020260 0.105339
v 0.146864 0.020260 0.001038
v -0.093594 0.020260 -0.140297
v -0.120346 0.020260 -0.128154
v -0.206926 0.020260 -0.100316
v -0.115758 0.020260 0.056587
v -0.117942 0.020260 -0.068174
v -0.032392 0.020260 -0.147234
v -0.113636 0.020260 0.158864
v -0.077635 0.020260 0.185527
v 0.139959 0.020260 -0.208389
v 0.072221 0.020260 -0.251631
v 0.059537 0.020260 0.102547
v -0.052527 0.020260 0.069845
v 0.080037 0.020260 -0.027243
v -0.014581 0.020260 -0.046809
v 0.113957 0.020260 -0.133142
v 0.034228 0.020260 -0.156457
v 0.074874 0.020260 0.154388
v -0.110324 0.020260 -0.105841
vt 0.148626 0.484429
vt 0.148626 0.490234
vt 0.142820 0.490234
vt 0.148626 0.496040
vt 0.154431 0.490234
vt 0.136531 0.484429
vt 0.130725 0.490234
vt 0.136531 0.496040
vt 0.148626 0.484429
vt 0.148626 0.490234
vt 0.142820 0.490234
vt 0.148626 0.496040
vt 0.154431 0.490234
vt 0.136531 0.484429
vt 0.136531 0.496040
vt 0.142336 0.490234
vt 0.148626 0.484429
vt 0.148626 0.490234
vt 0.142820 0.490234
vt 0.148626 0.496040
vt 0.154431 0.490234
vt 0.136531 0.484429
vt 0.130725 0.490234
vt 0.136531 0.496040
vt 0.148626 0.484429
vt 0.148626 0.490234
vt 0.142820 0.490234
vt 0.148626 0.496040
vt 0.154431 0.490234
vt 0.136531 0.484429
vt 0.136531 0.496040
vt 0.142336 0.490234
vt 0.148626 0.484429
vt 0.148626 0.490234
vt 0.142820 0.490234
vt 0.148626 0.496040
vt 0.154431 0.490234
vt 0.136531 0.484429
vt 0.130725 0.490234
vt 0.136531 0.496040
vt 0.551162 0.726943
vt 0.551162 0.725370
vt 0.549589 0.725370
vt 0.549589 0.726943
vt 0.555880 0.726943
vt 0.555880 0.725370
vt 0.554307 0.725370
vt 0.554307 0.726943
vt 0.552734 0.725370
vt 0.552734 0.726943
vt 0.551579 0.725370
vt 0.552004 0.726246
vt 0.552734 0.731661
vt 0.552734 0.730088
vt 0.551162 0.730088
vt 0.551162 0.731661
vt 0.552734 0.728516
vt 0.551162 0.728516
vt 0.554307 0.731661
vt 0.554307 0.730088
vt 0.554307 0.728516
vt 0.555880 0.726943
vt 0.554307 0.726943
vt 0.554307 0.725370
vt 0.555880 0.725370
vt 0.555880 0.730088
vt 0.555880 0.728516
vt 0.549589 0.730088
vt 0.549589 0.731661
vt 0.549589 0.728516
vt 0.551162 0.726943
vt 0.549589 0.726943
vt 0.549589 0.725370
vt 0.551162 0.725370
vt 0.555292 0.730671
vt 0.555880 0.731661
vt 0.555284 0.731661
vt 0.552734 0.726943
vt 0.552734 0.725370
vt 0.552004 0.726246
vt 0.551579 0.725370
vt 0.552734 0.731661
vt 0.551162 0.731661
vt 0.551162 0.730088
vt 0.552734 0.730088
vt 0.551162 0.728516
vt 0.552734 0.728516
vt 0.554307 0.731661
vt 0.554307 0.730088
vt 0.554307 0.728516
vt 0.555880 0.730088
vt 0.555880 0.728516
vt 0.549589 0.731661
vt 0.549589 0.730088
vt 0.549589 0.728516
vt 0.555292 0.730671
vt 0.555284 0.731661
vt 0.555880 0.731661
vn 0.8704 -0.1059 0.4808
vn -0.7017 -0.1240 0.7017
vn -0.3858 0.2282 -0.8939
vn 0.1005 -0.9898 -0.1005
vn 0.3700 -0.0194 0.9288
vn -0.8120 0.0006 -0.5837
vn 0.7971 0.0997 -0.5956
vn 0.1923 -0.9716 0.1382
vn -0.7189 -0.1059 0.6870
vn -0.4599 -0.1240 -0.8793
vn 0.9684 0.2282 -0.1010
vn 0.0659 -0.9898 0.1259
vn -0.9974 0.0169 0.0707
vn 0.7245 -0.3165 -0.6123
vn 0.4046 0.4876 0.7736
vn 0.8081 0.0981 0.5809
vn -0.8250 0.1482 0.5453
vn -0.3494 -0.1251 -0.9286
vn 0.0000 -1.0000 0.0000
vn 0.0000 1.0000 0.0000
vn -0.9835 -0.0030 0.1809
vn -0.2549 0.0596 -0.9651
vn 0.5387 0.0213 -0.8422
vn -0.9580 0.0601 0.2804
vn -0.1790 0.0414 -0.9830
vn 0.5588 0.0203 -0.8291
vn 0.9925 0.0226 0.1198
vn 0.0781 -0.0121 0.9969
vn 0.9613 0.0317 0.2737
vn -0.7409 0.0445 0.6701
vn -0.8997 0.0303 -0.4354
vn 0.9503 0.0510 0.3073
vn -0.5934 0.0223 0.8046
vn 0.9122 0.0215 -0.4092
vn -0.9855 0.0166 -0.1687
vn 0.2096 -0.0110 0.9777
vn -0.0482 -0.0038 0.9988
vn -0.3095 0.0424 -0.9500
vn 0.9987 0.0509 -0.0017
vn 0.6646 0.0191 -0.7469
usemtl basematerial
s off
f 1/1/1 4/2/1 2/3/1
f 2/3/2 4/2/2 3/4/2
f 3/4/3 4/2/3 1/5/3
f 1/6/4 2/7/4 3/8/4
f 5/9/5 7/10/5 1/11/5
f 1/12/6 7/10/6 6/13/6
f 6/13/7 7/10/7 5/9/7
f 5/14/8 1/15/8 6/16/8
f 8/17/9 11/18/9 9/19/9
f 9/19/10 11/18/10 10/20/10
f 10/20/11 11/18/11 8/21/11
f 8/22/12 9/23/12 10/24/12
f 12/25/13 14/26/13 8/27/13
f 8/28/14 14/26/14 13/29/14
f 13/29/15 14/26/15 12/25/15
f 12/30/12 8/31/12 13/32/12
f 15/33/16 17/34/16 6/35/16
f 6/35/17 17/34/17 16/36/17
f 16/36/18 17/34/18 15/37/18
f 15/38/8 6/39/8 16/40/8
f 42/41/19 25/42/19 21/43/19 33/44/19
f 28/45/19 20/46/19 27/47/19 36/48/19
f 36/48/19 27/47/19 26/49/19 39/50/19
f 39/50/19 26/49/19 45/51/19 46/52/19 25/42/19 42/41/19
f 23/53/19 37/54/19 40/55/19 24/56/19
f 37/54/19 38/57/19 41/58/19 40/55/19
f 38/57/19 39/50/19 42/41/19 41/58/19
f 22/59/19 34/60/19 37/54/19 23/53/19
f 34/60/19 35/61/19 38/57/19 37/54/19
f 35/61/19 36/48/19 39/50/19 38/57/19
f 64/62/20 61/63/20 53/64/20 54/65/20
f 30/66/19 29/67/19 35/61/19 34/60/19
f 29/67/19 28/45/19 36/48/19 35/61/19
f 24/56/19 40/55/19 31/68/19 19/69/19
f 40/55/19 41/58/19 32/70/19 31/68/19
f 41/58/19 42/41/19 33/44/19 32/70/19
f 63/71/20 51/72/20 52/73/20 58/74/20
f 44/75/19 18/76/19 30/66/19 34/60/19 22/59/19 43/77/19
f 61/63/20 62/78/20 60/79/20 53/64/20
f 62/78/20 63/71/20 58/74/20 75/80/20 59/81/20 60/79/20
f 57/82/20 49/83/20 72/84/20 70/85/20
f 70/85/20 72/84/20 73/86/20 71/87/20
f 71/87/20 73/86/20 63/71/20 62/78/20
f 56/88/20 57/82/20 70/85/20 68/89/20
f 68/89/20 70/85/20 71/87/20 69/90/20
f 69/90/20 71/87/20 62/78/20 61/63/20
f 47/91/20 68/89/20 69/90/20 65/92/20
f 65/92/20 69/90/20 61/63/20 64/62/20
f 49/83/20 50/93/20 66/94/20 72/84/20
f 72/84/20 66/94/20 67/95/20 73/86/20
f 73/86/20 67/95/20 51/72/20 63/71/20
f 74/96/20 55/97/20 56/88/20 68/89/20 47/91/20 48/98/20
f 26/49/21 27/47/21 53/64/21 60/79/21
f 33/44/22 21/43/22 52/73/22 51/72/22
f 31/68/23 32/70/23 67/95/23 66/94/23
f 27/47/24 20/46/24 54/65/24 53/64/24
f 32/70/25 33/44/25 51/72/25 67/95/25
f 18/76/26 44/75/26 74/96/26 48/98/26
f 43/77/27 22/59/27 56/88/27 55/97/27
f 44/75/28 43/77/28 55/97/28 74/96/28
f 22/59/29 23/53/29 57/82/29 56/88/29
f 20/46/30 28/45/30 64/62/30 54/65/30
f 25/42/31 46/52/31 75/80/31 58/74/31
f 23/53/32 24/56/32 49/83/32 57/82/32
f 28/45/33 29/67/33 65/92/33 64/62/33
f 46/52/34 45/51/34 59/81/34 75/80/34
f 21/43/35 25/42/35 58/74/35 52/73/35
f 30/66/36 18/76/36 48/98/36 47/91/36
f 29/67/37 30/66/37 47/91/37 65/92/37
f 45/51/38 26/49/38 60/79/38 59/81/38
f 24/56/39 19/69/39 50/93/39 49/83/39
f 19/69/40 31/68/40 66/94/40 50/93/40
