# Blender v2.81 (sub 16) OBJ File: 'assets.blend'
# www.blender.org
mtllib stone-type-005.mtl
o stone-type-004-rndm.001
v -0.305529 0.201139 0.109229
v -0.180273 -0.001342 -0.070269
v -0.123637 0.038699 0.198566
v -0.032882 0.255904 0.195794
v -0.134150 0.408737 -0.027724
v -0.195813 0.218838 -0.208477
v 0.049422 -0.025071 0.076620
v 0.221637 -0.001698 0.216543
v 0.236998 0.255033 -0.016244
v 0.068396 0.316804 -0.192993
v 0.080581 0.081506 -0.215697
v 0.274780 0.050338 0.074734
vt 0.480813 0.970402
vt 0.479264 0.973084
vt 0.482362 0.973084
vt 0.477716 0.970402
vt 0.476167 0.973084
vt 0.468422 0.970402
vt 0.466873 0.973084
vt 0.469971 0.973084
vt 0.471520 0.970402
vt 0.473069 0.973084
vt 0.474618 0.970402
vt 0.477716 0.975767
vt 0.480813 0.975767
vt 0.468422 0.975767
vt 0.471520 0.975767
vt 0.474618 0.975767
vt 0.483911 0.975767
vt 0.479264 0.978450
vt 0.482362 0.978450
vt 0.469971 0.978450
vt 0.473069 0.978450
vt 0.476167 0.978450
vn -0.7102 -0.6590 0.2478
vn -0.9055 -0.2696 -0.3277
vn -0.3262 0.1482 0.9336
vn -0.3404 0.6972 0.6309
vn -0.8215 0.5098 -0.2553
vn -0.2815 -0.5243 -0.8036
vn -0.2196 -0.9571 0.1888
vn -0.0481 0.0329 0.9983
vn 0.3354 0.8415 0.4234
vn -0.2237 0.7091 -0.6687
vn 0.1139 -0.9372 -0.3296
vn -0.1264 -0.9414 0.3128
vn 0.5132 0.5595 0.6509
vn 0.3834 0.9226 -0.0433
vn 0.0223 0.0972 -0.9950
vn 0.3006 -0.9059 -0.2982
vn 0.3076 -0.9248 -0.2241
vn 0.8289 0.3478 0.4382
vn 0.6759 -0.1916 -0.7117
vn 0.8322 0.0958 -0.5462
usemtl basematerial
s off
f 1/1/1 2/2/1 3/3/1
f 2/2/2 1/4/2 6/5/2
f 1/6/3 3/7/3 4/8/3
f 1/9/4 4/8/4 5/10/4
f 1/11/5 5/10/5 6/5/5
f 2/2/6 6/5/6 11/12/6
f 3/3/7 2/2/7 7/13/7
f 4/8/8 3/7/8 8/14/8
f 5/10/9 4/8/9 9/15/9
f 6/5/10 5/10/10 10/16/10
f 2/2/11 11/12/11 7/13/11
f 3/3/12 7/13/12 8/17/12
f 4/8/13 8/14/13 9/15/13
f 5/10/14 9/15/14 10/16/14
f 6/5/15 10/16/15 11/12/15
f 7/13/16 11/12/16 12/18/16
f 8/17/17 7/13/17 12/19/17
f 9/15/18 8/14/18 12/20/18
f 10/16/19 9/15/19 12/21/19
f 11/12/20 10/16/20 12/22/20
