# Blender v2.81 (sub 16) OBJ File: 'assets.blend'
# www.blender.org
mtllib stone-type-003.mtl
o stone-type-003
v 0.179713 0.000000 0.092026
v 0.025136 0.000000 -0.180486
v -0.025641 0.000000 0.235813
v -0.155795 0.000000 -0.037794
v 0.136360 0.000000 0.051799
v 0.092577 0.000000 -0.026676
v 0.060286 0.000000 -0.124546
v -0.142876 0.000000 0.026408
v -0.132169 0.000000 0.128084
v -0.053617 0.000000 0.204239
v -0.009554 0.000000 0.233998
v 0.023163 0.000000 0.231851
v 0.129264 0.000000 0.165918
v -0.009215 0.000000 -0.201697
v -0.069281 0.000000 -0.232646
v -0.109431 0.000000 -0.165667
v 0.082939 0.000000 0.094559
v -0.011686 0.000000 0.137399
v -0.033661 0.000000 0.171673
v 0.024811 0.000000 0.003749
v -0.050100 0.000000 0.047993
v -0.082802 0.000000 0.101008
v -0.012672 0.000000 -0.106278
v -0.087582 0.000000 -0.083093
v -0.112640 0.000000 -0.007799
v 0.164922 0.000000 0.080408
v 0.131888 0.000000 0.116814
v -0.152028 0.000000 0.049862
v -0.119828 0.000000 0.064150
v 0.128857 0.020854 0.164710
v 0.179426 0.020854 0.090926
v 0.059065 0.020854 -0.123981
v 0.027100 0.020854 -0.178285
v -0.104460 0.020854 -0.169543
v -0.156393 0.020854 -0.038081
v -0.050532 0.020854 0.203164
v -0.023478 0.020854 0.234012
v 0.164534 0.020854 0.080209
v 0.135828 0.020854 0.051792
v 0.091786 0.020854 -0.026310
v -0.143333 0.020854 0.026207
v -0.151824 0.020854 0.049432
v -0.130061 0.020854 0.127412
v -0.032182 0.020854 0.170448
v -0.081210 0.020854 0.100604
v -0.112760 0.020854 -0.007761
v -0.008509 0.020854 0.232523
v 0.023307 0.020854 0.230821
v -0.004950 0.020854 -0.193770
v -0.071391 0.020854 -0.224996
v 0.082564 0.020854 0.094322
v -0.010951 0.020854 0.136687
v 0.024256 0.020854 0.003923
v -0.049360 0.020854 0.048002
v -0.012059 0.020854 -0.103478
v -0.086661 0.020854 -0.084066
v 0.131582 0.020854 0.116238
v -0.118936 0.020854 0.063684
v -0.124617 -0.004503 0.059278
v -0.126209 -0.004502 0.060866
v -0.128732 -0.005537 0.057235
v -0.114905 0.055178 0.062129
v -0.112328 0.056283 0.059856
v -0.112478 0.055189 0.065173
v -0.103050 0.058616 0.058547
v -0.103310 0.056713 0.067795
v -0.114519 0.053533 0.062002
v -0.096931 0.057137 0.063238
v -0.107647 0.057758 0.057703
v -0.107936 0.055643 0.067983
v -0.108112 0.058135 0.063129
v -0.105636 0.056086 0.068338
v -0.102756 0.058688 0.063393
v -0.105336 0.058279 0.057676
v -0.109975 0.057113 0.058330
v -0.110220 0.055324 0.067027
v -0.111473 0.056538 0.062706
v -0.114459 0.054187 0.062375
v -0.097590 0.057613 0.063729
v -0.108211 0.058435 0.063646
v -0.103117 0.058979 0.063918
v -0.111480 0.056947 0.063177
v -0.097555 0.057774 0.062950
v -0.114452 0.054276 0.061926
v -0.108188 0.058618 0.062780
v -0.103086 0.059169 0.063021
v -0.111463 0.057100 0.062445
v -0.111826 0.055420 0.064747
v -0.117130 0.054285 0.064499
v -0.109900 0.053984 0.074099
v -0.119126 0.052010 0.073668
v -0.114093 0.053671 0.061785
v -0.114144 0.050067 0.079416
v -0.109367 0.055022 0.069493
v -0.119624 0.052828 0.069014
v -0.114816 0.055360 0.069540
v -0.119823 0.052323 0.071320
v -0.114715 0.053766 0.074688
v -0.109186 0.054599 0.071817
v -0.110148 0.055317 0.067141
v -0.118825 0.053461 0.066736
v -0.114611 0.055219 0.065803
v -0.114467 0.054237 0.062119
v -0.114684 0.050746 0.079028
v -0.115341 0.055657 0.069597
v -0.115266 0.054155 0.074503
v -0.115086 0.055582 0.065985
v -0.113906 0.050907 0.079077
v -0.114019 0.054331 0.062134
v -0.114478 0.055846 0.069638
v -0.114370 0.054349 0.074552
v -0.114355 0.055741 0.066016
v -0.116750 0.054252 0.065089
v -0.116688 0.055328 0.059767
v -0.125999 0.051895 0.066553
v -0.125891 0.053766 0.057296
v -0.113851 0.053637 0.062229
v -0.131414 0.049834 0.061256
v -0.121392 0.052771 0.067322
v -0.121272 0.054850 0.057031
v -0.121653 0.055245 0.062463
v -0.123577 0.054399 0.056714
v -0.126768 0.053592 0.062069
v -0.123701 0.052242 0.067387
v -0.119077 0.053420 0.066655
v -0.118975 0.055180 0.057949
v -0.117909 0.055144 0.062486
v -0.114208 0.054294 0.062121
v -0.131057 0.050683 0.061020
v -0.121735 0.055725 0.062101
v -0.126610 0.054174 0.061714
v -0.118115 0.055660 0.062201
v -0.131078 0.050519 0.061799
v -0.114207 0.054202 0.062569
v -0.121746 0.055554 0.062969
v -0.126628 0.053994 0.062614
v -0.118121 0.055515 0.062935
v -0.117195 0.055160 0.060041
v -0.111897 0.056245 0.060533
v -0.118695 0.056703 0.050628
v -0.109480 0.058589 0.051483
v -0.114295 0.053495 0.062446
v -0.113405 0.057128 0.044843
v -0.119439 0.055625 0.055196
v -0.109195 0.057723 0.056147
v -0.114637 0.058109 0.055958
v -0.108890 0.058248 0.053856
v -0.114256 0.058671 0.050610
v -0.119514 0.056072 0.052870
v -0.118765 0.055301 0.057577
v -0.110098 0.057075 0.058381
v -0.114623 0.056505 0.059342
v -0.114204 0.054242 0.062385
v -0.113184 0.057766 0.045512
v -0.114287 0.058589 0.056076
v -0.113912 0.059148 0.050990
v -0.114351 0.057067 0.059362
v -0.113960 0.057607 0.045426
v -0.114651 0.054147 0.062348
v -0.115151 0.058417 0.055997
v -0.114808 0.058969 0.050901
v -0.115082 0.056919 0.059298
v -0.114731 0.054482 0.061917
v -0.114750 0.054336 0.062627
v -0.114023 0.054630 0.061968
v -0.114043 0.054484 0.062677
v -0.115256 0.056834 0.062387
v -0.115276 0.056688 0.063096
v -0.114548 0.056982 0.062437
v -0.114568 0.056836 0.063146
v -0.136617 -0.004503 0.049393
v -0.135234 -0.005518 0.052980
v -0.139810 -0.004505 0.049402
v -0.138218 -0.004507 0.047814
v -0.137039 0.061643 0.021555
v -0.130747 -0.006200 0.053980
v -0.130706 0.051236 0.044086
v 0.150748 -0.005919 0.109844
v 0.148911 -0.006434 0.108652
v 0.152048 -0.006627 0.105373
v 0.141213 0.051727 0.095941
v 0.157403 -0.004045 0.095919
v 0.154617 -0.005884 0.098078
v 0.156701 -0.004245 0.092810
v 0.158537 -0.003730 0.094002
v 0.161617 0.054521 0.101445
v 0.154840 -0.006529 0.102675
v 0.149154 0.051316 0.096080
vt 0.431505 0.730333
vt 0.431505 0.732151
vt 0.433323 0.732151
vt 0.433323 0.730333
vt 0.426052 0.730333
vt 0.426052 0.732151
vt 0.427870 0.732151
vt 0.427870 0.730333
vt 0.429688 0.732151
vt 0.429688 0.730333
vt 0.431023 0.732151
vt 0.430532 0.731139
vt 0.429688 0.724880
vt 0.429688 0.726698
vt 0.431505 0.726698
vt 0.431505 0.724880
vt 0.429688 0.728516
vt 0.431505 0.728516
vt 0.427870 0.724880
vt 0.427870 0.726698
vt 0.427870 0.728516
vt 0.426052 0.730333
vt 0.427870 0.730333
vt 0.427870 0.732151
vt 0.426052 0.732151
vt 0.426052 0.726698
vt 0.426052 0.728516
vt 0.433323 0.726698
vt 0.433323 0.724880
vt 0.433323 0.728516
vt 0.431505 0.730333
vt 0.433323 0.730333
vt 0.433323 0.732151
vt 0.431505 0.732151
vt 0.426731 0.726025
vt 0.426052 0.724880
vt 0.426741 0.724880
vt 0.429688 0.730333
vt 0.429688 0.732151
vt 0.430532 0.731139
vt 0.431023 0.732151
vt 0.429688 0.724880
vt 0.431505 0.724880
vt 0.431505 0.726698
vt 0.429688 0.726698
vt 0.431505 0.728516
vt 0.429688 0.728516
vt 0.427870 0.724880
vt 0.427870 0.726698
vt 0.427870 0.728516
vt 0.426052 0.726698
vt 0.426052 0.728516
vt 0.433323 0.724880
vt 0.433323 0.726698
vt 0.433323 0.728516
vt 0.426731 0.726025
vt 0.426741 0.724880
vt 0.426052 0.724880
vt 0.138739 0.484080
vt 0.138739 0.482529
vt 0.140290 0.482529
vt 0.138739 0.480979
vt 0.137188 0.482529
vt 0.141970 0.484080
vt 0.143521 0.482529
vt 0.140419 0.482529
vt 0.139609 0.255974
vt 0.148945 0.255974
vt 0.148945 0.261077
vt 0.139609 0.261077
vt 0.137889 0.255974
vt 0.138738 0.255974
vt 0.138738 0.261077
vt 0.137889 0.261077
vt 0.137889 0.245767
vt 0.138738 0.245767
vt 0.138738 0.250870
vt 0.137889 0.250870
vt 0.139609 0.245767
vt 0.148945 0.245767
vt 0.148945 0.250870
vt 0.139609 0.250870
vt 0.214914 0.250550
vt 0.220020 0.250550
vt 0.220020 0.253341
vt 0.214914 0.253341
vt 0.426863 0.365784
vt 0.427327 0.365784
vt 0.427327 0.368575
vt 0.426863 0.368575
vt 0.427804 0.365784
vt 0.427804 0.368575
vt 0.208854 0.250550
vt 0.213973 0.250550
vt 0.213973 0.253341
vt 0.208854 0.253341
vt 0.128531 0.250870
vt 0.128531 0.255974
vt 0.128531 0.245767
vt 0.128531 0.261077
vt 0.139609 0.255974
vt 0.148945 0.255974
vt 0.148945 0.261077
vt 0.139609 0.261077
vt 0.137889 0.255974
vt 0.138738 0.255974
vt 0.138738 0.261077
vt 0.137889 0.261077
vt 0.137889 0.245767
vt 0.138738 0.245767
vt 0.138738 0.250870
vt 0.137889 0.250870
vt 0.139609 0.245767
vt 0.148945 0.245767
vt 0.148945 0.250870
vt 0.139609 0.250870
vt 0.214914 0.250550
vt 0.220020 0.250550
vt 0.220020 0.253341
vt 0.214914 0.253341
vt 0.426863 0.365784
vt 0.427327 0.365784
vt 0.427327 0.368575
vt 0.426863 0.368575
vt 0.427804 0.365784
vt 0.427804 0.368575
vt 0.208854 0.250550
vt 0.213973 0.250550
vt 0.213973 0.253341
vt 0.208854 0.253341
vt 0.128531 0.250870
vt 0.128531 0.255974
vt 0.128531 0.245767
vt 0.128531 0.261077
vt 0.139609 0.255974
vt 0.148945 0.255974
vt 0.148945 0.261077
vt 0.139609 0.261077
vt 0.137889 0.255974
vt 0.138738 0.255974
vt 0.138738 0.261077
vt 0.137889 0.261077
vt 0.137889 0.245767
vt 0.138738 0.245767
vt 0.138738 0.250870
vt 0.137889 0.250870
vt 0.139609 0.245767
vt 0.148945 0.245767
vt 0.148945 0.250870
vt 0.139609 0.250870
vt 0.214914 0.250550
vt 0.220020 0.250550
vt 0.220020 0.253341
vt 0.214914 0.253341
vt 0.426863 0.365784
vt 0.427327 0.365784
vt 0.427327 0.368575
vt 0.426863 0.368575
vt 0.427804 0.365784
vt 0.427804 0.368575
vt 0.208854 0.250550
vt 0.213973 0.250550
vt 0.213973 0.253341
vt 0.208854 0.253341
vt 0.128531 0.250870
vt 0.128531 0.255974
vt 0.128531 0.245767
vt 0.128531 0.261077
vt 0.139609 0.255974
vt 0.148945 0.255974
vt 0.148945 0.261077
vt 0.139609 0.261077
vt 0.137889 0.255974
vt 0.138738 0.255974
vt 0.138738 0.261077
vt 0.137889 0.261077
vt 0.137889 0.245767
vt 0.138738 0.245767
vt 0.138738 0.250870
vt 0.137889 0.250870
vt 0.139609 0.245767
vt 0.148945 0.245767
vt 0.148945 0.250870
vt 0.139609 0.250870
vt 0.214914 0.250550
vt 0.220020 0.250550
vt 0.220020 0.253341
vt 0.214914 0.253341
vt 0.426863 0.365784
vt 0.427327 0.365784
vt 0.427327 0.368575
vt 0.426863 0.368575
vt 0.427804 0.365784
vt 0.427804 0.368575
vt 0.208854 0.250550
vt 0.213973 0.250550
vt 0.213973 0.253341
vt 0.208854 0.253341
vt 0.128531 0.250870
vt 0.128531 0.255974
vt 0.128531 0.245767
vt 0.128531 0.261077
vt 0.593725 0.558569
vt 0.593725 0.550806
vt 0.585963 0.550806
vt 0.585963 0.558569
vt 0.593725 0.558569
vt 0.585963 0.558569
vt 0.585963 0.550806
vt 0.593725 0.550806
vt 0.138739 0.484080
vt 0.138739 0.482529
vt 0.140290 0.482529
vt 0.138739 0.480979
vt 0.137188 0.482529
vt 0.141970 0.484080
vt 0.143521 0.482529
vt 0.141970 0.480979
vt 0.140419 0.482529
vt 0.140290 0.482529
vt 0.138739 0.482529
vt 0.138739 0.480979
vt 0.137188 0.482529
vt 0.138739 0.484080
vt 0.143521 0.482529
vt 0.141970 0.480979
vt 0.140419 0.482529
vt 0.138739 0.484080
vt 0.138739 0.482529
vt 0.140290 0.482529
vt 0.138739 0.480979
vt 0.137188 0.482529
vt 0.141970 0.484080
vt 0.143521 0.482529
vt 0.140419 0.482529
vt 0.138739 0.484080
vt 0.138739 0.482529
vt 0.140290 0.482529
vt 0.138739 0.480979
vt 0.137188 0.482529
vt 0.141970 0.484080
vt 0.143521 0.482529
vt 0.141970 0.480979
vt 0.140419 0.482529
vt 0.140290 0.482529
vt 0.138739 0.482529
vt 0.138739 0.480979
vt 0.137188 0.482529
vt 0.138739 0.484080
vt 0.143521 0.482529
vt 0.141970 0.480979
vt 0.140419 0.482529
vn 0.0000 -1.0000 0.0000
vn 0.0000 1.0000 0.0000
vn -0.6882 0.1157 0.7162
vn -0.9333 0.0625 -0.3537
vn 0.4210 0.2982 -0.8566
vn -0.7429 0.1386 0.6549
vn -0.8535 0.1047 -0.5104
vn -0.4635 -0.0422 -0.8851
vn 0.7056 0.0121 -0.7085
vn 0.7390 0.0248 0.6732
vn 0.8717 0.0318 -0.4890
vn 0.1055 0.0698 0.9920
vn -0.8457 0.0174 0.5334
vn 0.9476 0.0527 -0.3151
vn 0.0594 0.0582 0.9965
vn 0.4014 -0.0302 -0.9154
vn -0.9799 -0.0225 0.1981
vn 0.8245 0.0449 0.5640
vn 0.5287 0.0488 0.8474
vn -0.9645 0.0603 0.2570
vn 0.8540 0.0193 -0.5199
vn 0.4790 0.1389 -0.8668
vn 0.6985 -0.1471 0.7003
vn -0.8315 0.1462 0.5360
vn 0.4507 -0.0307 -0.8922
vn 0.1629 -0.9729 0.1643
vn 0.1273 0.8535 0.5053
vn 0.1726 0.6060 0.7765
vn -0.3127 0.4638 0.8289
vn -0.3812 0.7819 0.4933
vn -0.0994 0.5694 0.8161
vn -0.1561 0.8462 0.5095
vn -0.5832 0.7317 0.3528
vn -0.4184 0.2502 0.8731
vn -0.3820 0.5861 -0.7146
vn -0.0634 0.8557 -0.5135
vn -0.2785 0.7657 -0.5798
vn 0.2100 0.8699 -0.4463
vn -0.5718 0.8177 -0.0668
vn -0.1376 0.9803 -0.1420
vn -0.3628 0.9172 -0.1646
vn 0.1453 0.9821 -0.1202
vn -0.5028 0.7175 0.4821
vn -0.7681 0.4625 0.4428
vn -0.8526 0.5196 -0.0553
vn -0.5253 0.8508 -0.0134
vn -0.8260 0.5338 0.1811
vn -0.5265 0.8214 0.2194
vn -0.3987 0.8886 -0.2270
vn -0.9021 0.3629 -0.2335
vn 0.6813 0.7135 -0.1635
vn 0.5003 0.8299 0.2468
vn 0.5524 0.8335 0.0101
vn 0.4521 0.7337 0.5073
vn 0.0199 0.9779 -0.2079
vn 0.1235 0.9604 0.2498
vn 0.1310 0.9912 0.0171
vn 0.1212 0.8507 0.5115
vn -0.5120 0.8437 -0.1612
vn -0.4790 0.7166 -0.5071
vn 0.0146 0.8172 -0.5762
vn -0.0198 0.9895 -0.1430
vn -0.2208 0.8126 -0.5393
vn -0.2520 0.9562 -0.1491
vn 0.1979 0.9801 -0.0181
vn 0.1932 0.6984 -0.6892
vn 0.1784 0.3883 0.9041
vn -0.2402 0.5550 0.7964
vn -0.0018 0.5444 0.8388
vn -0.5009 0.4782 0.7214
vn 0.1935 0.8951 0.4018
vn -0.2597 0.8243 0.5030
vn -0.0273 0.8565 0.5155
vn -0.5195 0.7169 0.4648
vn 0.1380 0.9822 -0.1277
vn 0.4869 0.8607 -0.1488
vn 0.5584 0.7551 0.3434
vn 0.1213 0.9164 0.3814
vn 0.5194 0.8451 0.1262
vn 0.1259 0.9798 0.1555
vn -0.0013 0.8170 0.5767
vn 0.6756 0.5771 0.4588
vn -0.9106 0.2617 0.3199
vn -0.8105 0.5857 0.0042
vn -0.8504 0.4788 0.2180
vn -0.7363 0.6225 -0.2653
vn -0.4193 0.7310 0.5383
vn -0.5232 0.8469 0.0951
vn -0.5342 0.7822 0.3207
vn -0.4852 0.8544 -0.1859
vn 0.2139 -0.9580 -0.1911
vn -0.2139 0.9580 0.1911
vn 0.9765 0.2041 0.0695
vn -0.9765 -0.2041 -0.0695
vn -0.0275 -0.2014 0.9791
vn 0.0275 0.2014 -0.9791
vn 0.9049 -0.1602 -0.3944
vn -0.5284 0.3481 0.7744
vn -0.6822 -0.2592 -0.6837
vn 0.6740 -0.2829 -0.6824
vn 0.0002 -0.9814 -0.1921
vn -0.5391 0.1722 0.8245
vn 0.1903 -0.1668 -0.9674
vn 0.8550 -0.0886 -0.5111
vn -0.2115 -0.9239 0.3188
vn -0.5619 0.1050 0.8205
vn -0.7087 -0.2389 -0.6638
vn 0.9464 0.2147 0.2412
vn 0.1451 -0.9698 0.1958
vn 0.6555 -0.1176 0.7460
vn -0.9352 0.1268 -0.3306
vn 0.5267 0.0803 -0.8462
vn 0.8634 -0.1086 0.4927
vn 0.4461 -0.8939 -0.0433
vn -0.9351 -0.1012 -0.3396
vn 0.9950 0.0938 -0.0353
vn 0.6844 0.1487 0.7138
vn -0.0946 -0.9865 -0.1339
usemtl basematerial
s off
f 25/1/1 8/2/1 4/3/1 16/4/1
f 11/5/1 3/6/1 10/7/1 19/8/1
f 19/8/1 10/7/1 9/9/1 22/10/1
f 22/10/1 9/9/1 28/11/1 29/12/1 8/2/1 25/1/1
f 6/13/1 20/14/1 23/15/1 7/16/1
f 20/14/1 21/17/1 24/18/1 23/15/1
f 21/17/1 22/10/1 25/1/1 24/18/1
f 5/19/1 17/20/1 20/14/1 6/13/1
f 17/20/1 18/21/1 21/17/1 20/14/1
f 18/21/1 19/8/1 22/10/1 21/17/1
f 47/22/2 44/23/2 36/24/2 37/25/2
f 13/26/1 12/27/1 18/21/1 17/20/1
f 12/27/1 11/5/1 19/8/1 18/21/1
f 7/16/1 23/15/1 14/28/1 2/29/1
f 23/15/1 24/18/1 15/30/1 14/28/1
f 24/18/1 25/1/1 16/4/1 15/30/1
f 46/31/2 34/32/2 35/33/2 41/34/2
f 27/35/1 1/36/1 13/26/1 17/20/1 5/19/1 26/37/1
f 44/23/2 45/38/2 43/39/2 36/24/2
f 45/38/2 46/31/2 41/34/2 58/40/2 42/41/2 43/39/2
f 40/42/2 32/43/2 55/44/2 53/45/2
f 53/45/2 55/44/2 56/46/2 54/47/2
f 54/47/2 56/46/2 46/31/2 45/38/2
f 39/48/2 40/42/2 53/45/2 51/49/2
f 51/49/2 53/45/2 54/47/2 52/50/2
f 52/50/2 54/47/2 45/38/2 44/23/2
f 30/51/2 51/49/2 52/50/2 48/52/2
f 48/52/2 52/50/2 44/23/2 47/22/2
f 32/43/2 33/53/2 49/54/2 55/44/2
f 55/44/2 49/54/2 50/55/2 56/46/2
f 56/46/2 50/55/2 34/32/2 46/31/2
f 57/56/2 38/57/2 39/48/2 51/49/2 30/51/2 31/58/2
f 9/9/3 10/7/3 36/24/3 43/39/3
f 16/4/4 4/3/4 35/33/4 34/32/4
f 14/28/5 15/30/5 50/55/5 49/54/5
f 10/7/6 3/6/6 37/25/6 36/24/6
f 15/30/7 16/4/7 34/32/7 50/55/7
f 1/36/8 27/35/8 57/56/8 31/58/8
f 26/37/9 5/19/9 39/48/9 38/57/9
f 27/35/10 26/37/10 38/57/10 57/56/10
f 5/19/11 6/13/11 40/42/11 39/48/11
f 3/6/12 11/5/12 47/22/12 37/25/12
f 8/2/13 29/12/13 58/40/13 41/34/13
f 6/13/14 7/16/14 32/43/14 40/42/14
f 11/5/15 12/27/15 48/52/15 47/22/15
f 29/12/16 28/11/16 42/41/16 58/40/16
f 4/3/17 8/2/17 41/34/17 35/33/17
f 13/26/18 1/36/18 31/58/18 30/51/18
f 12/27/19 13/26/19 30/51/19 48/52/19
f 28/11/20 9/9/20 43/39/20 42/41/20
f 7/16/21 2/29/21 33/53/21 32/43/21
f 2/29/22 14/28/22 49/54/22 33/53/22
f 59/59/23 62/60/23 60/61/23
f 60/61/24 62/60/24 61/62/24
f 61/63/25 62/60/25 59/59/25
f 59/64/26 60/65/26 61/66/26
f 81/67/27 72/68/27 66/69/27 79/70/27
f 86/71/28 73/72/28 68/73/28 83/74/28
f 87/75/29 77/76/29 71/77/29 85/78/29
f 82/79/30 76/80/30 70/81/30 80/82/30
f 85/78/31 71/77/31 73/72/31 86/71/31
f 80/82/32 70/81/32 72/68/32 81/67/32
f 78/83/33 64/84/33 76/85/33 82/86/33
f 84/87/34 67/88/34 77/89/34 87/90/34
f 67/88/35 78/91/35 82/92/35 77/89/35
f 71/77/36 80/82/36 81/67/36 73/72/36
f 77/76/37 82/79/37 80/82/37 71/77/37
f 73/72/38 81/67/38 79/70/38 68/73/38
f 63/93/39 84/94/39 87/95/39 75/96/39
f 69/97/40 85/78/40 86/71/40 74/98/40
f 75/99/41 87/75/41 85/78/41 69/97/41
f 74/98/42 86/71/42 83/74/42 65/100/42
f 106/101/43 97/102/43 91/103/43 104/104/43
f 111/105/44 98/106/44 93/107/44 108/108/44
f 112/109/45 102/110/45 96/111/45 110/112/45
f 107/113/46 101/114/46 95/115/46 105/116/46
f 110/112/47 96/111/47 98/106/47 111/105/47
f 105/116/48 95/115/48 97/102/48 106/101/48
f 103/117/49 89/118/49 101/119/49 107/120/49
f 109/121/50 92/122/50 102/123/50 112/124/50
f 92/122/51 103/125/51 107/126/51 102/123/51
f 96/111/52 105/116/52 106/101/52 98/106/52
f 102/110/53 107/113/53 105/116/53 96/111/53
f 98/106/54 106/101/54 104/104/54 93/107/54
f 88/127/55 109/128/55 112/129/55 100/130/55
f 94/131/56 110/112/56 111/105/56 99/132/56
f 100/133/57 112/109/57 110/112/57 94/131/57
f 99/132/58 111/105/58 108/108/58 90/134/58
f 131/135/59 122/136/59 116/137/59 129/138/59
f 136/139/60 123/140/60 118/141/60 133/142/60
f 137/143/61 127/144/61 121/145/61 135/146/61
f 132/147/62 126/148/62 120/149/62 130/150/62
f 135/146/63 121/145/63 123/140/63 136/139/63
f 130/150/64 120/149/64 122/136/64 131/135/64
f 128/151/65 114/152/65 126/153/65 132/154/65
f 134/155/66 117/156/66 127/157/66 137/158/66
f 117/156/67 128/159/67 132/160/67 127/157/67
f 121/145/68 130/150/68 131/135/68 123/140/68
f 127/144/69 132/147/69 130/150/69 121/145/69
f 123/140/70 131/135/70 129/138/70 118/141/70
f 113/161/71 134/162/71 137/163/71 125/164/71
f 119/165/72 135/146/72 136/139/72 124/166/72
f 125/167/73 137/143/73 135/146/73 119/165/73
f 124/166/74 136/139/74 133/142/74 115/168/74
f 156/169/75 147/170/75 141/171/75 154/172/75
f 161/173/76 148/174/76 143/175/76 158/176/76
f 162/177/77 152/178/77 146/179/77 160/180/77
f 157/181/78 151/182/78 145/183/78 155/184/78
f 160/180/79 146/179/79 148/174/79 161/173/79
f 155/184/80 145/183/80 147/170/80 156/169/80
f 153/185/81 139/186/81 151/187/81 157/188/81
f 159/189/82 142/190/82 152/191/82 162/192/82
f 142/190/83 153/193/83 157/194/83 152/191/83
f 146/179/84 155/184/84 156/169/84 148/174/84
f 152/178/85 157/181/85 155/184/85 146/179/85
f 148/174/86 156/169/86 154/172/86 143/175/86
f 138/195/87 159/196/87 162/197/87 150/198/87
f 144/199/88 160/180/88 161/173/88 149/200/88
f 150/201/89 162/177/89 160/180/89 144/199/89
f 149/200/90 161/173/90 158/176/90 140/202/90
f 163/203/91 165/204/91 166/205/91 164/206/91
f 167/207/92 168/208/92 170/209/92 169/210/92
f 166/205/93 165/204/93 169/210/93 170/209/93
f 163/203/94 164/206/94 168/208/94 167/207/94
f 164/206/95 166/205/95 170/209/95 168/208/95
f 165/204/96 163/203/96 167/207/96 169/210/96
f 171/211/97 175/212/97 172/213/97
f 172/213/98 175/212/98 173/214/98
f 173/214/99 175/212/99 174/215/99
f 174/215/100 175/212/100 171/211/100
f 171/216/101 172/217/101 173/218/101 174/219/101
f 61/220/102 177/221/102 172/222/102
f 172/222/103 177/221/103 176/223/103
f 176/223/104 177/221/104 61/224/104
f 61/225/105 172/226/105 176/227/105
f 178/228/106 181/229/106 179/230/106
f 179/230/107 181/229/107 180/231/107
f 180/232/108 181/229/108 178/228/108
f 178/233/109 179/234/109 180/235/109
f 182/236/110 186/237/110 183/238/110
f 183/238/111 186/237/111 184/239/111
f 184/239/112 186/237/112 185/240/112
f 185/240/113 186/237/113 182/236/113
f 182/241/114 183/242/114 184/243/114 185/244/114
f 180/245/115 188/246/115 183/247/115
f 183/247/116 188/246/116 187/248/116
f 187/248/117 188/246/117 180/249/117
f 180/250/118 183/251/118 187/252/118
