# Blender v2.81 (sub 16) OBJ File: 'assets.blend'
# www.blender.org
mtllib wood-block-01.mtl
o wood-block-01
v 0.335072 0.009298 -0.011663
v -0.286574 0.012312 -0.004470
v -0.285868 0.036593 0.115561
v 0.321160 0.019075 0.103168
v 0.340676 0.097295 -0.177404
v -0.288349 0.092987 -0.172835
v -0.287144 0.025282 -0.070796
v 0.340406 0.028127 -0.075889
v 0.339020 0.273396 -0.239405
v -0.290005 0.269088 -0.234837
v -0.289007 0.149058 -0.210562
v 0.340018 0.153366 -0.215130
v -0.290365 0.335415 -0.221864
v 0.338660 0.339723 -0.226432
v 0.338453 0.441766 -0.158722
v -0.290573 0.437458 -0.154154
v -0.985312 0.356036 -0.144319
v -0.919597 0.433150 -0.149585
v -0.919390 0.331106 -0.217295
v 1.034311 0.369868 -0.158986
v 0.967684 0.344031 -0.231000
v 0.967477 0.446075 -0.163290
v -0.984538 0.213505 -0.172196
v -0.919030 0.264780 -0.230268
v -0.918032 0.144749 -0.205993
v 1.035084 0.227338 -0.186864
v 0.969043 0.157674 -0.219698
v 0.968044 0.277705 -0.243973
v -0.983124 0.093014 -0.091126
v -0.917374 0.088678 -0.168267
v -0.916169 0.020973 -0.066227
v 1.036498 0.106846 -0.105793
v 0.970906 0.033898 -0.079933
v 0.969701 0.101603 -0.181972
v -0.981898 0.065143 0.051403
v -0.915599 0.008004 0.000098
v -0.914893 0.032284 0.120130
v 1.037724 0.078976 0.036735
v 0.972182 0.045209 0.106424
v 0.971476 0.020929 -0.013607
v -0.981578 0.146220 0.171898
v -0.914744 0.070014 0.176202
v -0.914951 0.172057 0.243912
v 1.038044 0.160053 0.157230
v 0.972123 0.184982 0.230207
v 0.972330 0.082939 0.162497
v -0.982352 0.288750 0.199776
v -0.915311 0.238384 0.256885
v -0.916310 0.358414 0.232610
v 1.037270 0.302583 0.185108
v 0.970765 0.371339 0.218905
v 0.971763 0.251309 0.243180
v -0.983766 0.409242 0.118705
v -0.916968 0.414485 0.194884
v -0.918173 0.482190 0.092844
v 1.035856 0.423075 0.104037
v 0.968902 0.495115 0.079139
v 0.970107 0.427410 0.181179
v -0.984992 0.437112 -0.023823
v -0.918743 0.495160 0.026519
v -0.919449 0.470879 -0.093513
v 1.034630 0.450945 -0.038491
v 0.967626 0.483804 -0.107218
v 0.968332 0.508085 0.012814
v 0.327409 0.165105 0.229194
v -0.286550 0.178867 0.239977
v -0.285719 0.074322 0.171634
v 0.317790 0.053313 0.157989
v 0.341740 0.367031 0.223474
v -0.296592 0.400037 0.237486
v -0.289409 0.255210 0.255485
v 0.335359 0.239678 0.245123
v 0.339877 0.490807 0.083708
v -0.295786 0.513114 0.095013
v -0.298740 0.462077 0.201271
v 0.341082 0.423102 0.185747
v 0.338601 0.479496 -0.102649
v -0.290424 0.475187 -0.098081
v -0.292841 0.511986 0.025119
v 0.339307 0.503776 0.017382
vt 0.184078 0.051635
vt 0.184078 0.021169
vt 0.192336 0.021169
vt 0.192336 0.051635
vt 0.061805 0.051635
vt 0.061805 0.021169
vt 0.070063 0.021169
vt 0.070063 0.051635
vt 0.086259 0.051635
vt 0.086259 0.021169
vt 0.094518 0.021169
vt 0.094518 0.051635
vt 0.110714 0.051635
vt 0.110714 0.021169
vt 0.118972 0.021169
vt 0.118972 0.051635
vt 0.135169 0.051635
vt 0.135169 0.021169
vt 0.143427 0.021169
vt 0.143427 0.051635
vt 0.159624 0.051635
vt 0.159624 0.021169
vt 0.167882 0.021169
vt 0.167882 0.051635
vt 0.037350 0.051635
vt 0.037350 0.021169
vt 0.045608 0.021169
vt 0.045608 0.051635
vt 0.685012 0.231271
vt 0.648564 0.246368
vt 0.612116 0.231271
vt 0.597019 0.194823
vt 0.612116 0.158375
vt 0.648564 0.143278
vt 0.685012 0.158375
vt 0.700109 0.194823
vt 0.012895 0.051635
vt 0.012895 0.021169
vt 0.021153 0.021169
vt 0.021153 0.051635
vt 0.507208 0.230873
vt 0.492192 0.242246
vt 0.522223 0.242246
vt 0.665197 0.258965
vt 0.631931 0.258965
vt 0.540112 0.217244
vt 0.537535 0.235903
vt 0.558771 0.214668
vt 0.705681 0.228417
vt 0.682158 0.251940
vt 0.553741 0.184340
vt 0.565113 0.199356
vt 0.565113 0.169324
vt 0.712707 0.178190
vt 0.712707 0.211456
vt 0.540112 0.151436
vt 0.558771 0.154013
vt 0.537535 0.132777
vt 0.682158 0.137706
vt 0.705681 0.161229
vt 0.507208 0.137807
vt 0.522223 0.126435
vt 0.492192 0.126435
vt 0.631931 0.130680
vt 0.665197 0.130680
vt 0.474304 0.151436
vt 0.476880 0.132777
vt 0.455645 0.154013
vt 0.591447 0.161229
vt 0.614970 0.137706
vt 0.460675 0.184340
vt 0.449302 0.169324
vt 0.449302 0.199356
vt 0.584421 0.211456
vt 0.584421 0.178190
vt 0.474304 0.217244
vt 0.455645 0.214668
vt 0.476880 0.235903
vt 0.614970 0.251940
vt 0.591447 0.228417
vt 0.012895 0.112568
vt 0.021153 0.112568
vt 0.025897 0.115778
vt 0.008152 0.115778
vt 0.008152 0.017959
vt 0.025897 0.017959
vt 0.200435 0.021169
vt 0.200435 0.051635
vt 0.037350 0.082102
vt 0.037350 0.112568
vt 0.021153 0.082102
vt 0.045608 0.112568
vt 0.050352 0.115778
vt 0.032606 0.115778
vt 0.032606 0.017959
vt 0.050352 0.017959
vt 0.061805 0.082102
vt 0.061805 0.112568
vt 0.045608 0.082102
vt 0.070063 0.112568
vt 0.074807 0.115778
vt 0.057061 0.115778
vt 0.057061 0.017959
vt 0.074807 0.017959
vt 0.086259 0.082102
vt 0.086259 0.112568
vt 0.070063 0.082102
vt 0.094518 0.112568
vt 0.099261 0.115778
vt 0.081516 0.115778
vt 0.081516 0.017959
vt 0.099261 0.017959
vt 0.110714 0.082102
vt 0.110714 0.112568
vt 0.094518 0.082102
vt 0.118972 0.112568
vt 0.123716 0.115778
vt 0.105970 0.115778
vt 0.105970 0.017959
vt 0.123716 0.017959
vt 0.135169 0.082102
vt 0.135169 0.112568
vt 0.118972 0.082102
vt 0.143427 0.112568
vt 0.148171 0.115778
vt 0.130425 0.115778
vt 0.130425 0.017959
vt 0.148171 0.017959
vt 0.159624 0.082102
vt 0.159624 0.112568
vt 0.143427 0.082102
vt 0.167882 0.112568
vt 0.172626 0.115778
vt 0.154880 0.115778
vt 0.154880 0.017959
vt 0.172626 0.017959
vt 0.184078 0.082102
vt 0.184078 0.112568
vt 0.167882 0.082102
vt 0.192336 0.112568
vt 0.197080 0.115778
vt 0.179334 0.115778
vt 0.179334 0.017959
vt 0.197080 0.017959
vt 0.192336 0.082102
vt 0.200435 0.082102
vt 0.200435 0.112568
vt 0.012895 0.082102
vn -0.0097 0.8296 -0.5582
vn 0.0122 -0.9716 -0.2362
vn 0.0325 -0.8380 0.5448
vn 0.0057 -0.2012 0.9795
vn 0.0022 0.5583 0.8297
vn -0.0053 0.9814 0.1920
vn -0.0022 -0.5583 -0.8297
vn -0.0082 0.9801 -0.1982
vn 1.0000 0.0068 -0.0073
vn -0.0084 0.1919 -0.9814
vn -0.5813 0.4491 -0.6785
vn 0.5652 0.4569 -0.6869
vn -0.5780 -0.1664 -0.7989
vn 0.5686 -0.1585 -0.8072
vn -0.5719 -0.6866 -0.4488
vn 0.5747 -0.6788 -0.4572
vn -0.5666 -0.8070 0.1666
vn 0.5800 -0.7991 0.1582
vn -0.5652 -0.4569 0.6869
vn 0.5813 -0.4491 0.6785
vn -0.5686 0.1585 0.8072
vn 0.5780 0.1664 0.7989
vn -0.5747 0.6788 0.4572
vn 0.5719 0.6866 0.4488
vn -0.5800 0.7991 -0.1582
vn 0.5666 0.8070 -0.1666
vn -0.7130 0.1309 -0.6888
vn 0.7011 0.1405 -0.6991
vn -0.0098 0.5529 -0.8332
vn -0.0058 -0.1983 -0.9801
vn -0.7086 -0.3996 -0.5815
vn 0.7055 -0.3899 -0.5918
vn 0.0017 -0.8332 -0.5529
vn -0.7033 -0.6988 -0.1306
vn 0.7108 -0.6891 -0.1409
vn 0.0082 -0.9801 0.1982
vn -0.7002 -0.5915 0.3998
vn 0.7140 -0.5818 0.3896
vn 0.0105 -0.5499 0.8351
vn -0.7011 -0.1405 0.6991
vn 0.7130 -0.1309 0.6888
vn -0.0101 0.1573 0.9875
vn -0.7055 0.3899 0.5918
vn 0.7086 0.3996 0.5815
vn -0.0583 0.8675 0.4940
vn -0.7108 0.6891 0.1409
vn 0.7033 0.6988 0.1306
vn -0.0175 0.9697 -0.2436
vn -0.7140 0.5818 -0.3896
vn 0.7002 0.5915 -0.3998
vn -1.0000 -0.0068 0.0073
vn 0.0006 0.9699 -0.2436
vn -0.0017 0.8332 0.5529
vn 0.0521 0.8674 0.4949
vn 0.0028 0.1825 0.9832
vn 0.0246 0.1442 0.9892
vn 0.0172 -0.5452 0.8381
vn 0.0014 -0.5421 0.8403
vn 0.0289 -0.9890 0.1450
vn -0.0143 -0.9897 0.1427
vn 0.0028 -0.8298 -0.5580
vn 0.0004 -0.8298 -0.5580
vn -0.0381 0.9956 0.0859
vn 0.0253 0.9959 0.0870
vn -0.0459 0.5293 0.8472
vn 0.0494 0.5308 0.8460
vn 0.0079 -0.1956 0.9807
vn 0.0119 -0.2043 0.9788
vn 0.0097 -0.8296 0.5582
vn -0.0150 -0.8389 0.5440
vn 0.0053 -0.9814 -0.1919
vn -0.0025 -0.9716 -0.2367
usemtl Material.014
s off
f 77/1/1 63/2/1 22/3/1 15/4/1
f 8/5/2 33/6/2 40/7/2 1/8/2
f 4/9/3 39/10/3 46/11/3 68/12/3
f 65/13/4 45/14/4 52/15/4 72/16/4
f 69/17/5 51/18/5 58/19/5 76/20/5
f 73/21/6 57/22/6 64/23/6 80/24/6
f 12/25/7 27/26/7 34/27/7 5/28/7
f 63/2/8 77/1/8 80/24/8 64/23/8
f 26/29/9 20/30/9 62/31/9 56/32/9 50/33/9 44/34/9 38/35/9 32/36/9
f 14/37/10 21/38/10 28/39/10 9/40/10
f 17/41/11 18/42/11 19/43/11
f 20/30/12 21/44/12 22/45/12
f 23/46/13 24/47/13 25/48/13
f 26/29/14 27/49/14 28/50/14
f 29/51/15 30/52/15 31/53/15
f 32/36/16 33/54/16 34/55/16
f 35/56/17 36/57/17 37/58/17
f 38/35/18 39/59/18 40/60/18
f 41/61/19 42/62/19 43/63/19
f 44/34/20 45/64/20 46/65/20
f 47/66/21 48/67/21 49/68/21
f 50/33/22 51/69/22 52/70/22
f 53/71/23 54/72/23 55/73/23
f 56/32/24 57/74/24 58/75/24
f 59/76/25 60/77/25 61/78/25
f 62/31/26 63/79/26 64/80/26
f 19/81/27 24/82/27 23/83/27 17/84/27
f 28/39/28 21/38/28 20/85/28 26/86/28
f 15/4/29 22/3/29 21/87/29 14/88/29
f 11/89/30 25/90/30 24/82/30 10/91/30
f 25/90/31 30/92/31 29/93/31 23/94/31
f 34/27/32 27/26/32 26/95/32 32/96/32
f 7/97/33 31/98/33 30/92/33 6/99/33
f 31/98/34 36/100/34 35/101/34 29/102/34
f 40/7/35 33/6/35 32/103/35 38/104/35
f 3/105/36 37/106/36 36/100/36 2/107/36
f 37/106/37 42/108/37 41/109/37 35/110/37
f 46/11/38 39/10/38 38/111/38 44/112/38
f 66/113/39 43/114/39 42/108/39 67/115/39
f 43/114/40 48/116/40 47/117/40 41/118/40
f 52/15/41 45/14/41 44/119/41 50/120/41
f 70/121/42 49/122/42 48/116/42 71/123/42
f 49/122/43 54/124/43 53/125/43 47/126/43
f 58/19/44 51/18/44 50/127/44 56/128/44
f 74/129/45 55/130/45 54/124/45 75/131/45
f 55/130/46 60/132/46 59/133/46 53/134/46
f 64/23/47 57/22/47 56/135/47 62/136/47
f 78/137/48 61/138/48 60/132/48 79/139/48
f 61/138/49 18/140/49 17/141/49 59/142/49
f 22/3/50 63/2/50 62/143/50 20/144/50
f 17/41/51 23/46/51 29/51/51 35/56/51 41/61/51 47/66/51 53/71/51 59/76/51
f 77/1/52 78/137/52 79/139/52 80/24/52
f 57/22/53 73/21/53 76/20/53 58/19/53
f 73/21/54 74/129/54 75/131/54 76/20/54
f 51/18/55 69/17/55 72/16/55 52/15/55
f 69/17/56 70/121/56 71/123/56 72/16/56
f 45/14/57 65/13/57 68/12/57 46/11/57
f 65/13/58 66/113/58 67/115/58 68/12/58
f 39/10/59 4/9/59 1/8/59 40/7/59
f 4/9/60 3/105/60 2/107/60 1/8/60
f 33/6/61 8/5/61 5/28/61 34/27/61
f 8/5/62 7/97/62 6/99/62 5/28/62
f 27/26/30 12/25/30 9/40/30 28/39/30
f 12/25/30 11/89/30 10/91/30 9/40/30
f 18/140/29 16/145/29 13/146/29 19/147/29
f 16/145/29 15/4/29 14/88/29 13/146/29
f 19/81/10 13/148/10 10/91/10 24/82/10
f 13/148/10 14/37/10 9/40/10 10/91/10
f 25/90/7 11/89/7 6/99/7 30/92/7
f 11/89/7 12/25/7 5/28/7 6/99/7
f 55/130/63 74/129/63 79/139/63 60/132/63
f 74/129/64 73/21/64 80/24/64 79/139/64
f 49/122/65 70/121/65 75/131/65 54/124/65
f 70/121/66 69/17/66 76/20/66 75/131/66
f 43/114/67 66/113/67 71/123/67 48/116/67
f 66/113/68 65/13/68 72/16/68 71/123/68
f 37/106/69 3/105/69 67/115/69 42/108/69
f 3/105/70 4/9/70 68/12/70 67/115/70
f 31/98/71 7/97/71 2/107/71 36/100/71
f 7/97/72 8/5/72 1/8/72 2/107/72
f 61/138/1 78/137/1 16/145/1 18/140/1
f 78/137/1 77/1/1 15/4/1 16/145/1
