# Blender v2.81 (sub 16) OBJ File: 'assets.blend'
# www.blender.org
mtllib wood-block-05.mtl
o wood-block-05
v -0.242562 0.013890 -0.082420
v 0.231247 0.019425 -0.074733
v 0.232060 0.082989 -0.134428
v -0.230527 0.066491 -0.144405
v -0.249962 0.000440 0.046201
v 0.229511 0.000440 0.052733
v 0.230661 0.000440 -0.031689
v -0.247680 -0.000666 -0.038452
v -0.251594 0.084037 0.149688
v 0.229339 0.082989 0.149479
v 0.228924 0.019425 0.095776
v -0.250549 0.019425 0.089245
v 0.232136 0.128822 0.152472
v -0.252468 0.132717 0.169551
v -0.254430 0.231460 0.175876
v 0.236399 0.218714 0.131669
v 0.758294 0.173768 0.148551
v 0.707341 0.218714 0.179832
v 0.707341 0.128822 0.179832
v -0.781159 0.173768 0.127581
v -0.731078 0.128822 0.160238
v -0.731078 0.218714 0.160238
v 0.758816 0.075277 0.110238
v 0.707584 0.082989 0.162003
v 0.708397 0.019425 0.102307
v -0.780637 0.075277 0.089268
v -0.730022 0.019425 0.082714
v -0.730835 0.082989 0.142409
v 0.760076 0.034481 0.017741
v 0.708984 0.000440 0.059264
v 0.710134 0.000440 -0.025158
v -0.779377 0.034481 -0.003229
v -0.728285 0.000440 -0.044752
v -0.729435 0.000440 0.039670
v 0.761580 0.074645 -0.074849
v 0.710720 0.019425 -0.068202
v 0.714153 0.076220 -0.128900
v -0.778117 0.075277 -0.095726
v -0.726886 0.082989 -0.147491
v -0.727699 0.019425 -0.087795
v 0.773232 0.144379 -0.117426
v 0.720881 0.105296 -0.149214
v 0.729975 0.171691 -0.152697
v -0.782985 0.164336 -0.141243
v -0.732495 0.208473 -0.173141
v -0.726839 0.128479 -0.165582
v 0.768646 0.253369 -0.077556
v 0.726394 0.226148 -0.133589
v 0.713656 0.320524 -0.069326
v -0.792686 0.246765 -0.115196
v -0.736703 0.312356 -0.099828
v -0.736175 0.248292 -0.159905
v 0.760076 0.313055 0.017741
v 0.710157 0.347036 -0.025167
v 0.708984 0.347096 0.059264
v -0.785311 0.302671 -0.011159
v -0.729829 0.346405 0.039143
v -0.733950 0.337182 -0.052323
v 0.758816 0.272259 0.110238
v 0.708397 0.328111 0.102307
v 0.707584 0.264547 0.162003
v -0.780637 0.272259 0.089268
v -0.730835 0.264547 0.142409
v -0.730022 0.328111 0.082714
v -0.235147 0.207043 -0.161177
v 0.232761 0.220502 -0.151657
v 0.232303 0.128822 -0.152257
v -0.227582 0.109684 -0.162785
v -0.249528 0.330876 -0.075540
v 0.238078 0.354778 -0.065779
v 0.234352 0.273494 -0.131424
v -0.242122 0.260698 -0.140912
v -0.250049 0.322255 0.058887
v 0.234383 0.366117 0.059119
v 0.238584 0.378029 -0.021303
v -0.249476 0.337598 -0.029938
v -0.254535 0.274475 0.161327
v 0.235078 0.264547 0.121475
v 0.232292 0.337057 0.093526
v -0.251794 0.312851 0.103527
vt 0.744940 0.680944
vt 0.744940 0.722655
vt 0.733634 0.722655
vt 0.733634 0.680944
vt 0.912343 0.680944
vt 0.912343 0.722655
vt 0.901037 0.722655
vt 0.901037 0.680944
vt 0.878862 0.680944
vt 0.878862 0.722655
vt 0.867556 0.722655
vt 0.867556 0.680944
vt 0.845382 0.680944
vt 0.845382 0.722655
vt 0.834076 0.722655
vt 0.834076 0.680944
vt 0.811901 0.680944
vt 0.811901 0.722655
vt 0.800595 0.722655
vt 0.800595 0.680944
vt 0.778421 0.680944
vt 0.778421 0.722655
vt 0.767115 0.722655
vt 0.767115 0.680944
vt 0.945823 0.680944
vt 0.945823 0.722655
vt 0.934518 0.722655
vt 0.934518 0.680944
vt 0.682803 0.351061
vt 0.656151 0.362100
vt 0.629500 0.351061
vt 0.618461 0.324409
vt 0.629500 0.297758
vt 0.656151 0.286719
vt 0.682803 0.297758
vt 0.693842 0.324409
vt 0.979304 0.680944
vt 0.979304 0.722655
vt 0.967998 0.722655
vt 0.967998 0.680944
vt 0.551575 0.341605
vt 0.541024 0.349595
vt 0.562126 0.349595
vt 0.668314 0.371312
vt 0.643989 0.371312
vt 0.574695 0.332028
vt 0.572885 0.345139
vt 0.587806 0.330218
vt 0.697916 0.348974
vt 0.680716 0.366174
vt 0.584272 0.308907
vt 0.592263 0.319458
vt 0.592263 0.298356
vt 0.703054 0.312247
vt 0.703053 0.336572
vt 0.574695 0.285787
vt 0.587806 0.287597
vt 0.572885 0.272676
vt 0.680716 0.282644
vt 0.697916 0.299845
vt 0.551575 0.276210
vt 0.562126 0.268219
vt 0.541024 0.268219
vt 0.643989 0.277507
vt 0.668314 0.277507
vt 0.528455 0.285787
vt 0.530265 0.272676
vt 0.515343 0.287597
vt 0.614386 0.299845
vt 0.631587 0.282644
vt 0.518878 0.308907
vt 0.510887 0.298356
vt 0.510887 0.319458
vt 0.609249 0.336572
vt 0.609249 0.312247
vt 0.528454 0.332028
vt 0.515343 0.330218
vt 0.530265 0.345139
vt 0.631587 0.366174
vt 0.614386 0.348974
vt 0.979304 0.597522
vt 0.967998 0.597522
vt 0.961503 0.593127
vt 0.985799 0.593127
vt 0.985799 0.727050
vt 0.961503 0.727050
vt 0.722547 0.722655
vt 0.722547 0.680944
vt 0.945824 0.639233
vt 0.945824 0.597522
vt 0.967998 0.639233
vt 0.934518 0.597522
vt 0.928023 0.593127
vt 0.952318 0.593127
vt 0.952318 0.727050
vt 0.928023 0.727050
vt 0.912343 0.639233
vt 0.912343 0.597522
vt 0.934518 0.639233
vt 0.901037 0.597522
vt 0.894542 0.593127
vt 0.918838 0.593127
vt 0.918838 0.727050
vt 0.894542 0.727050
vt 0.878862 0.639233
vt 0.878862 0.597522
vt 0.901037 0.639233
vt 0.867556 0.597522
vt 0.861062 0.593127
vt 0.885357 0.593127
vt 0.885357 0.727050
vt 0.861062 0.727050
vt 0.845382 0.639233
vt 0.845382 0.597522
vt 0.867556 0.639233
vt 0.834076 0.597522
vt 0.827581 0.593127
vt 0.851877 0.593127
vt 0.851877 0.727050
vt 0.827581 0.727050
vt 0.811901 0.639233
vt 0.811901 0.597522
vt 0.834076 0.639233
vt 0.800595 0.597522
vt 0.794101 0.593127
vt 0.818396 0.593127
vt 0.818396 0.727050
vt 0.794101 0.727050
vt 0.778421 0.639233
vt 0.778421 0.597522
vt 0.800595 0.639233
vt 0.767115 0.597522
vt 0.760620 0.593127
vt 0.784915 0.593127
vt 0.784915 0.727050
vt 0.760620 0.727050
vt 0.744940 0.639233
vt 0.744940 0.597522
vt 0.767115 0.639233
vt 0.733634 0.597522
vt 0.727139 0.593127
vt 0.751435 0.593127
vt 0.751435 0.727050
vt 0.727139 0.727050
vt 0.733634 0.639233
vt 0.722547 0.639233
vt 0.722547 0.597522
vt 0.979304 0.639233
vn -0.0422 0.3422 0.9387
vn -0.0021 -0.9330 -0.3598
vn -0.0080 -0.3801 -0.9249
vn 0.0256 0.3399 -0.9401
vn -0.0030 0.9471 -0.3208
vn 0.0265 0.9536 0.3000
vn -0.0055 -0.9150 0.4035
vn -0.0230 0.7555 0.6548
vn -0.9994 -0.0300 0.0172
vn -0.0142 -0.3705 0.9287
vn 0.5232 0.0000 0.8522
vn -0.5462 0.0000 0.8376
vn 0.5380 -0.5734 0.6179
vn -0.5546 -0.5734 0.6030
vn 0.5587 -0.8293 0.0076
vn -0.5587 -0.8293 -0.0076
vn 0.5887 -0.6066 -0.5343
vn -0.5380 -0.5734 -0.6179
vn 0.5800 -0.1217 -0.8055
vn -0.4563 -0.1156 -0.8823
vn 0.5392 0.5225 -0.6605
vn -0.5129 0.5850 -0.6283
vn 0.5585 0.8295 0.0072
vn -0.5869 0.8078 -0.0550
vn 0.5380 0.5734 0.6179
vn -0.5546 0.5734 0.6030
vn 0.6645 -0.2678 0.6976
vn -0.6833 -0.2678 0.6792
vn -0.0255 -0.0338 0.9991
vn -0.0148 -0.6656 0.7461
vn 0.6861 -0.6621 0.3014
vn -0.6941 -0.6621 0.2826
vn -0.0000 -1.0000 -0.0000
vn 0.6909 -0.6665 -0.2800
vn -0.6861 -0.6621 -0.3014
vn 0.0039 -0.7073 -0.7069
vn 0.6681 -0.4840 -0.5651
vn -0.6005 -0.3592 -0.7144
vn 0.0007 -0.0183 -0.9998
vn 0.7024 0.2724 -0.6576
vn -0.6218 0.1771 -0.7629
vn 0.0455 0.5955 -0.8021
vn 0.7099 0.6250 -0.3248
vn -0.6877 0.6588 -0.3050
vn 0.0529 0.9959 0.0733
vn 0.6861 0.6621 0.3014
vn -0.7153 0.6549 0.2438
vn -0.0386 0.5407 0.8403
vn 0.6645 0.2678 0.6976
vn -0.6833 0.2678 0.6792
vn 0.9989 -0.0090 0.0457
vn 0.0315 0.6114 0.7907
vn 0.0231 0.9992 0.0335
vn -0.0867 0.9839 0.1560
vn 0.0107 0.6831 -0.7303
vn -0.0098 0.6540 -0.7564
vn 0.0141 -0.0325 -0.9994
vn 0.0212 0.0125 -0.9997
vn -0.0103 -0.7227 -0.6911
vn 0.0300 -0.7246 -0.6886
vn -0.0012 -1.0000 0.0065
vn 0.0011 -1.0000 0.0066
vn -0.0098 -0.6839 0.7295
vn -0.0056 -0.6651 0.7468
vn -0.0790 0.1164 0.9900
vn 0.0638 0.0756 0.9951
vn -0.0408 -0.2202 0.9746
vn 0.0162 -0.2353 0.9718
vn 0.0200 0.8493 0.5275
vn -0.0588 0.8988 0.4345
vn 0.0562 0.8714 -0.4873
vn -0.0565 0.9474 -0.3149
vn 0.0304 0.3441 -0.9384
vn 0.0089 0.3554 -0.9347
vn -0.0063 -0.4533 -0.8913
vn 0.0352 -0.3776 -0.9253
vn 0.0055 -0.9150 -0.4035
vn 0.0120 -0.9333 -0.3590
vn -0.0896 0.2902 0.9528
vn 0.0884 0.2685 0.9592
usemtl Material.015
s off
f 77/1/1 63/2/1 22/3/1 15/4/1
f 8/5/2 33/6/2 40/7/2 1/8/2
f 4/9/3 39/10/3 46/11/3 68/12/3
f 65/13/4 45/14/4 52/15/4 72/16/4
f 69/17/5 51/18/5 58/19/5 76/20/5
f 73/21/6 57/22/6 64/23/6 80/24/6
f 12/25/7 27/26/7 34/27/7 5/28/7
f 63/2/8 77/1/8 80/24/8 64/23/8
f 26/29/9 20/30/9 62/31/9 56/32/9 50/33/9 44/34/9 38/35/9 32/36/9
f 14/37/10 21/38/10 28/39/10 9/40/10
f 17/41/11 18/42/11 19/43/11
f 20/30/12 21/44/12 22/45/12
f 23/46/13 24/47/13 25/48/13
f 26/29/14 27/49/14 28/50/14
f 29/51/15 30/52/15 31/53/15
f 32/36/16 33/54/16 34/55/16
f 35/56/17 36/57/17 37/58/17
f 38/35/18 39/59/18 40/60/18
f 41/61/19 42/62/19 43/63/19
f 44/34/20 45/64/20 46/65/20
f 47/66/21 48/67/21 49/68/21
f 50/33/22 51/69/22 52/70/22
f 53/71/23 54/72/23 55/73/23
f 56/32/24 57/74/24 58/75/24
f 59/76/25 60/77/25 61/78/25
f 62/31/26 63/79/26 64/80/26
f 19/81/27 24/82/27 23/83/27 17/84/27
f 28/39/28 21/38/28 20/85/28 26/86/28
f 15/4/29 22/3/29 21/87/29 14/88/29
f 11/89/30 25/90/30 24/82/30 10/91/30
f 25/90/31 30/92/31 29/93/31 23/94/31
f 34/27/32 27/26/32 26/95/32 32/96/32
f 7/97/33 31/98/33 30/92/33 6/99/33
f 31/98/34 36/100/34 35/101/34 29/102/34
f 40/7/35 33/6/35 32/103/35 38/104/35
f 3/105/36 37/106/36 36/100/36 2/107/36
f 37/106/37 42/108/37 41/109/37 35/110/37
f 46/11/38 39/10/38 38/111/38 44/112/38
f 66/113/39 43/114/39 42/108/39 67/115/39
f 43/114/40 48/116/40 47/117/40 41/118/40
f 52/15/41 45/14/41 44/119/41 50/120/41
f 70/121/42 49/122/42 48/116/42 71/123/42
f 49/122/43 54/124/43 53/125/43 47/126/43
f 58/19/44 51/18/44 50/127/44 56/128/44
f 74/129/45 55/130/45 54/124/45 75/131/45
f 55/130/46 60/132/46 59/133/46 53/134/46
f 64/23/47 57/22/47 56/135/47 62/136/47
f 78/137/48 61/138/48 60/132/48 79/139/48
f 61/138/49 18/140/49 17/141/49 59/142/49
f 22/3/50 63/2/50 62/143/50 20/144/50
f 17/41/51 23/46/51 29/51/51 35/56/51 41/61/51 47/66/51 53/71/51 59/76/51
f 77/1/52 78/137/52 79/139/52 80/24/52
f 57/22/53 73/21/53 76/20/53 58/19/53
f 73/21/54 74/129/54 75/131/54 76/20/54
f 51/18/55 69/17/55 72/16/55 52/15/55
f 69/17/56 70/121/56 71/123/56 72/16/56
f 45/14/57 65/13/57 68/12/57 46/11/57
f 65/13/58 66/113/58 67/115/58 68/12/58
f 39/10/59 4/9/59 1/8/59 40/7/59
f 4/9/60 3/105/60 2/107/60 1/8/60
f 33/6/61 8/5/61 5/28/61 34/27/61
f 8/5/62 7/97/62 6/99/62 5/28/62
f 27/26/63 12/25/63 9/40/63 28/39/63
f 12/25/64 11/89/64 10/91/64 9/40/64
f 18/140/65 16/145/65 13/146/65 19/147/65
f 16/145/66 15/4/66 14/88/66 13/146/66
f 19/81/67 13/148/67 10/91/67 24/82/67
f 13/148/68 14/37/68 9/40/68 10/91/68
f 25/90/7 11/89/7 6/99/7 30/92/7
f 11/89/7 12/25/7 5/28/7 6/99/7
f 55/130/69 74/129/69 79/139/69 60/132/69
f 74/129/70 73/21/70 80/24/70 79/139/70
f 49/122/71 70/121/71 75/131/71 54/124/71
f 70/121/72 69/17/72 76/20/72 75/131/72
f 43/114/73 66/113/73 71/123/73 48/116/73
f 66/113/74 65/13/74 72/16/74 71/123/74
f 37/106/75 3/105/75 67/115/75 42/108/75
f 3/105/76 4/9/76 68/12/76 67/115/76
f 31/98/77 7/97/77 2/107/77 36/100/77
f 7/97/78 8/5/78 1/8/78 2/107/78
f 61/138/79 78/137/79 16/145/79 18/140/79
f 78/137/80 77/1/80 15/4/80 16/145/80
